<svg xmlns="http://www.w3.org/2000/svg" width="42" height="43" viewBox="0 0 42 43" fill="none">
  <path d="M18.2232 35.5319C18.2183 35.5319 18.2126 35.5319 18.2077 35.5319C18.0042 35.5278 17.8123 35.4408 17.6745 35.2916L3.60938 19.9976C3.36821 19.7351 3.34606 19.3398 3.55688 19.0518C3.7677 18.7647 4.1516 18.6663 4.47481 18.8172L17.348 24.8449C17.4563 24.8957 17.5842 24.8711 17.6671 24.785L37.3037 4.26159C37.5695 3.98351 38.0043 3.95315 38.3061 4.19269C38.608 4.43222 38.6777 4.86206 38.4669 5.18444L18.9336 35.1078C18.9057 35.1513 18.8729 35.1907 18.8368 35.2276L18.7507 35.3137C18.6104 35.4532 18.4201 35.5319 18.2232 35.5319Z" fill="url(#paint0_linear_16025_4304)"/>
  <defs>
    <linearGradient id="paint0_linear_16025_4304" x1="3.41248" y1="4.03125" x2="44.4931" y2="17.4348" gradientUnits="userSpaceOnUse">
      <stop stop-color="#E39BFC"/>
      <stop offset="1" stop-color="#82D2FF"/>
    </linearGradient>
  </defs>
</svg>