<svg xmlns="http://www.w3.org/2000/svg" width="24" height="24" viewBox="0 0 24 24" fill="none">
  <path d="M17.737 14.622L15.311 16.852C14.0634 17.9395 12.5976 18.7476 11.012 19.222L11.656 22.226C11.6889 22.3792 11.7574 22.5226 11.856 22.6446C11.9545 22.7665 12.0804 22.8636 12.2234 22.9279C12.3663 22.9922 12.5224 23.022 12.6791 23.0149C12.8357 23.0078 12.9884 22.964 13.125 22.887L17.03 20.685C17.5797 20.351 18.0092 19.851 18.2563 19.2572C18.5034 18.6633 18.5555 18.0063 18.405 17.381L17.737 14.622ZM7.266 8.77596L9.354 6.29596L6.75 5.66796C6.11676 5.44701 5.42494 5.4627 4.80236 5.71214C4.17979 5.96157 3.66852 6.4279 3.363 7.02496L1.163 10.925C1.08598 11.0615 1.04214 11.2143 1.03503 11.3709C1.02791 11.5275 1.05773 11.6836 1.12206 11.8266C1.1864 11.9696 1.28345 12.0954 1.40538 12.194C1.52732 12.2925 1.67072 12.361 1.824 12.394L4.897 13.053C5.40651 11.4892 6.21065 10.0374 7.266 8.77596ZM16.734 8.81596C17.0307 8.81596 17.3207 8.72798 17.5674 8.56316C17.814 8.39834 18.0063 8.16407 18.1198 7.88998C18.2334 7.61589 18.2631 7.31429 18.2052 7.02332C18.1473 6.73235 18.0044 6.46508 17.7947 6.2553C17.5849 6.04552 17.3176 5.90266 17.0266 5.84478C16.7357 5.7869 16.4341 5.81661 16.16 5.93014C15.8859 6.04367 15.6516 6.23593 15.4868 6.4826C15.322 6.72928 15.234 7.01929 15.234 7.31596C15.234 7.71378 15.392 8.09531 15.6733 8.37662C15.9546 8.65792 16.3362 8.81596 16.734 8.81596Z" fill="#6A6A6A"/>
  <path d="M22.601 2.06201C22.556 1.89066 22.4662 1.73434 22.3409 1.60906C22.2157 1.48379 22.0593 1.39404 21.888 1.34901C19.8368 0.815989 17.6767 0.873271 15.6566 1.51426C13.6365 2.15524 11.8386 3.35385 10.47 4.97201L7.26599 8.77601C5.66568 10.6845 4.65036 13.0145 4.34199 15.486C4.32202 15.638 4.33725 15.7925 4.38649 15.9376C4.43574 16.0827 4.51768 16.2146 4.62599 16.323L7.72599 19.423C7.81894 19.516 7.92932 19.5897 8.05081 19.64C8.1723 19.6903 8.30251 19.7161 8.43399 19.716C8.46199 19.716 8.49099 19.715 8.51999 19.712C11.0298 19.5046 13.4082 18.5028 15.31 16.852L18.974 13.484C20.5977 12.1187 21.8005 10.3205 22.4424 8.29854C23.0843 6.27654 23.14 4.11385 22.601 2.06201ZM16.734 8.81601C16.4373 8.81601 16.1473 8.72804 15.9006 8.56321C15.654 8.39839 15.4617 8.16412 15.3482 7.89003C15.2346 7.61594 15.2049 7.31435 15.2628 7.02337C15.3207 6.7324 15.4635 6.46513 15.6733 6.25535C15.8831 6.04557 16.1504 5.90271 16.4414 5.84483C16.7323 5.78695 17.0339 5.81666 17.308 5.93019C17.5821 6.04372 17.8164 6.23598 17.9812 6.48265C18.146 6.72933 18.234 7.01934 18.234 7.31601C18.234 7.71383 18.076 8.09537 17.7946 8.37667C17.5133 8.65797 17.1318 8.81601 16.734 8.81601Z" fill="#A4A4A4"/>
</svg>