<svg width="48" height="49" viewBox="0 0 48 49" fill="none" xmlns="http://www.w3.org/2000/svg">
<rect y="0.5" width="48" height="48" rx="24" fill="url(#paint0_linear_16018_5912)"/>
<path d="M33.9647 23.2671L29.7459 26.9074L31.0313 32.3515C31.1022 32.647 31.0839 32.9569 30.9788 33.2421C30.8736 33.5272 30.6864 33.7748 30.4406 33.9536C30.1948 34.1324 29.9015 34.2343 29.5979 34.2465C29.2942 34.2587 28.9937 34.1806 28.7344 34.0221L24 31.1083L19.2628 34.0221C19.0035 34.1797 18.7034 34.257 18.4003 34.2444C18.0971 34.2318 17.8045 34.1297 17.5592 33.9511C17.3139 33.7725 17.127 33.5253 17.0219 33.2406C16.9168 32.956 16.8983 32.6466 16.9688 32.3515L18.2588 26.9074L14.04 23.2671C13.8106 23.0688 13.6447 22.8074 13.563 22.5154C13.4813 22.2234 13.4874 21.9138 13.5806 21.6252C13.6739 21.3367 13.85 21.082 14.0871 20.893C14.3242 20.704 14.6117 20.589 14.9138 20.5624L20.445 20.1162L22.5788 14.9524C22.6942 14.671 22.8908 14.4303 23.1435 14.2609C23.3961 14.0914 23.6935 14.001 23.9977 14.001C24.3019 14.001 24.5992 14.0914 24.8518 14.2609C25.1045 14.4303 25.3011 14.671 25.4166 14.9524L27.5494 20.1162L33.0806 20.5624C33.3833 20.588 33.6716 20.7023 33.9096 20.8911C34.1475 21.0799 34.3245 21.3346 34.4183 21.6235C34.5121 21.9124 34.5185 22.2225 34.4368 22.5151C34.3552 22.8076 34.189 23.0695 33.9591 23.268L33.9647 23.2671Z" fill="white"/>
<defs>
<linearGradient id="paint0_linear_16018_5912" x1="3.82463e-07" y1="41.8333" x2="49.9861" y2="36.9878" gradientUnits="userSpaceOnUse">
<stop stop-color="#1ECC97"/>
<stop offset="1" stop-color="#5A60FC"/>
</linearGradient>
</defs>
</svg>
