<svg xmlns="http://www.w3.org/2000/svg" width="176" height="177" viewBox="0 0 176 177" fill="none">
  <path d="M78.7103 176.051L77.364 175.895C46.5691 172.207 13.2943 140.139 3.2041 104.398L3.71428 104.228C7.41306 113.702 21.8114 120.595 43.2105 123.162H43.3947L43.4372 123.361C50.4663 148.252 62.8806 167.215 77.5199 175.398L78.7103 176.065V176.051ZM4.57875 107.107C15.3633 140.976 46.6825 170.888 76.0886 175.186C61.8745 166.619 49.8569 147.954 42.9696 123.673C23.512 121.319 9.80806 115.362 4.57875 107.107Z" fill="#01FFFF"/>
  <path d="M52.1386 147.004C40.2344 145.586 27.395 133.204 23.4978 119.418L24.0222 119.276C27.8627 132.878 40.5037 145.089 52.2094 146.479L52.1527 147.018L52.1386 147.004Z" fill="#01FFFF"/>
  <path d="M63.83 164.619C41.524 161.953 17.4323 138.735 10.1339 112.851L10.6583 112.709C17.9141 138.395 41.7932 161.442 63.9009 164.08L63.8442 164.619H63.83Z" fill="#01FFFF"/>
  <path d="M46.6399 163.655C39.4832 158.422 38.1228 143.728 42.9269 123.361L43.4513 123.489C38.7038 143.629 39.9934 158.124 46.9658 163.215L46.6541 163.655H46.6399Z" fill="#01FFFF"/>
  <path d="M43.5507 123.744L43.1539 123.701C21.5423 121.12 6.98804 114.099 3.2184 104.427C-2.23766 85.0952 -0.0410635 67.7919 9.25549 56.9135C16.568 48.3611 27.8203 44.5033 40.929 46.0776L41.2266 46.1202L41.1557 46.418C35.5721 70.4015 36.4082 98.4414 43.4373 123.361L43.5507 123.744ZM35.3029 46.2762C24.7592 46.2762 15.7886 50.0914 9.66647 57.268C0.497457 68.0046 -1.67079 85.1235 3.72858 104.256C7.39902 113.646 21.6415 120.51 42.8138 123.12C35.8839 98.3138 35.0619 70.4583 40.5747 46.5882C38.7891 46.3897 37.0318 46.2904 35.317 46.2904L35.3029 46.2762Z" fill="#01FFFF"/>
  <path d="M23.4979 119.404C21.3864 111.93 22.2508 105.221 25.8504 100.994C28.6989 97.6614 33.0637 96.158 38.1655 96.7679L38.1088 97.3068C33.1913 96.7253 28.9823 98.1578 26.2614 101.349C22.7752 105.434 21.9532 111.958 24.0081 119.248L23.4838 119.39L23.4979 119.404Z" fill="#01FFFF"/>
  <path d="M10.1341 112.851C6.18025 98.8668 7.78163 86.329 14.5273 78.4432C19.8275 72.2311 27.9903 69.437 37.4994 70.5858L37.4428 71.1248C28.1179 70.0043 20.1251 72.7416 14.9383 78.7978C8.32015 86.5417 6.76128 98.9093 10.6585 112.724L10.1341 112.865V112.851Z" fill="#01FFFF"/>
  <path d="M43.0405 123.645C20.862 108.795 5.75506 90.2152 1.60278 72.6707L2.12713 72.5431C6.25106 89.9599 21.2729 108.412 43.3381 123.205L43.0405 123.645Z" fill="#01FFFF"/>
  <path d="M42.9697 123.588C26.0063 100.697 15.8169 74.5288 15.0233 51.8218H15.5618C16.3554 74.4154 26.5023 100.455 43.409 123.276L42.9838 123.602L42.9697 123.588Z" fill="#01FFFF"/>
  <path d="M62.1297 124.765C55.5399 124.765 49.1627 124.41 43.154 123.687H42.9697L42.9272 123.489C35.8698 98.4839 35.0336 70.3448 40.6456 46.2761L40.7023 46.035L40.9432 46.0634C71.738 49.751 105.013 81.8188 115.103 117.56L115.174 117.83L114.905 117.9C97.5728 122.411 79.1498 124.765 62.1439 124.765H62.1297ZM43.3949 123.177C64.7514 125.701 90.6429 123.616 114.494 117.447C104.389 82.1025 71.568 50.4176 41.1132 46.6307C35.6005 70.5008 36.4366 98.3846 43.3949 123.177Z" fill="#01FFFF"/>
  <path d="M66.296 124.524C62.4555 110.922 49.8145 98.7107 38.1088 97.3208L38.1655 96.7819C50.0696 98.2002 62.909 110.582 66.8062 124.382L66.2819 124.524H66.296Z" fill="#01FFFF"/>
  <path d="M90.6854 122.482C83.4295 96.7961 59.5504 73.7487 37.4427 71.1106L37.4994 70.5717C59.8055 73.2381 83.8972 96.4557 91.1956 122.34L90.6712 122.482H90.6854Z" fill="#01FFFF"/>
  <path d="M43.4515 123.489L42.9271 123.361C47.7029 103.079 58.034 79.3935 71.2703 58.3884L71.7238 58.6721C58.5159 79.6346 48.2131 103.264 43.4515 123.489Z" fill="#01FFFF"/>
  <path d="M82.9902 176.235C81.162 176.235 79.2772 176.122 77.364 175.895L77.2648 175.866C62.5122 167.626 49.9987 148.536 42.9271 123.503L42.8137 123.12L43.2105 123.162C64.6805 125.729 90.7562 123.63 114.749 117.39L115.004 117.319L115.075 117.574C120.517 136.877 118.32 154.181 109.023 165.059C102.788 172.363 93.6755 176.235 82.976 176.235H82.9902ZM77.4774 175.37C90.3877 176.888 101.456 173.115 108.627 164.704C117.753 154.01 119.95 136.991 114.635 117.971C90.7987 124.141 64.9356 126.24 43.5506 123.744C50.5939 148.422 62.9374 167.215 77.4774 175.37Z" fill="#01FFFF"/>
  <path d="M54.3211 147.132C53.6125 147.132 52.8756 147.089 52.1387 147.004L52.1954 146.465C57.0987 147.047 61.3219 145.614 64.0428 142.423C67.529 138.338 68.351 131.814 66.2961 124.524L66.8204 124.382C68.932 131.857 68.0675 138.565 64.4679 142.778C62.0446 145.628 58.4875 147.132 54.3353 147.132H54.3211Z" fill="#01FFFF"/>
  <path d="M67.9116 164.861C66.5795 164.861 65.219 164.775 63.8302 164.619L63.8869 164.081C73.226 165.201 81.2046 162.464 86.3914 156.407C93.0095 148.664 94.5684 136.296 90.6712 122.496L91.1955 122.354C95.1494 136.338 93.548 148.876 86.8023 156.762C82.2674 162.067 75.6635 164.875 67.8974 164.875L67.9116 164.861Z" fill="#01FFFF"/>
  <path d="M116.421 149.628C91.9467 147.969 65.2049 138.494 43.0405 123.645L43.3381 123.205C65.4175 137.998 92.0742 147.43 116.463 149.089L116.421 149.628Z" fill="#01FFFF"/>
  <path d="M102.93 170.42C81.7999 163.556 59.9473 146.479 42.9697 123.588L43.3949 123.262C60.3016 146.068 82.0549 163.073 103.086 169.895L102.916 170.406L102.93 170.42Z" fill="#01FFFF"/>
  <path d="M82.9902 176.235C81.5731 176.235 80.1417 176.164 78.6679 176.037L78.7104 176.065L77.3074 175.895C66.1969 174.562 54.4062 169.498 43.1964 161.244C40.5038 159.159 37.1168 156.393 34.7643 154.351C33.7156 153.457 32.4827 152.238 31.4057 151.16C31.0656 150.819 30.7396 150.507 30.442 150.209C27.877 147.727 23.9939 143.231 21.8682 140.508C20.281 138.48 18.2119 135.544 15.5193 131.53C14.7541 130.382 13.8896 128.892 13.1243 127.559L12.6567 126.765C11.7922 125.29 10.6868 123.205 9.90739 121.588C8.87286 119.461 7.5549 116.525 6.61958 114.298C5.28745 111.022 4.13955 107.689 3.2184 104.412C-2.23766 85.0952 -0.0410635 67.7919 9.25549 56.9135C16.568 48.3611 27.8203 44.5033 40.929 46.0776C71.7238 49.7652 104.999 81.8331 115.089 117.574C120.531 136.877 118.334 154.181 109.038 165.059C102.802 172.363 93.6898 176.235 82.9902 176.235ZM77.4775 175.37C90.3878 176.888 101.456 173.115 108.627 164.705C117.796 153.968 119.964 136.835 114.565 117.716C104.531 82.1735 71.4687 50.2758 40.8581 46.6166C27.9195 45.0706 16.8373 48.8575 9.6523 57.268C0.497457 68.0046 -1.67079 85.1235 3.72858 104.256C4.64973 107.519 5.78346 110.823 7.11559 114.085C8.05091 116.312 9.36887 119.234 10.3892 121.347C11.1687 122.95 12.2599 125.02 13.1243 126.495L13.592 127.29C14.3573 128.609 15.2076 130.098 15.9728 131.233C18.6513 135.232 20.7203 138.154 22.2933 140.182C24.4049 142.905 28.2738 147.359 30.8246 149.841C31.1364 150.139 31.4624 150.465 31.8025 150.791C32.8795 151.855 34.1124 153.06 35.147 153.954C37.4995 155.982 40.8723 158.748 43.5507 160.818C54.2503 168.69 65.4742 173.64 76.117 175.186C61.8746 166.605 49.8287 147.869 42.9555 123.503L43.4799 123.361C50.4948 148.224 62.9091 167.187 77.52 175.37H77.4775Z" fill="#01FFFF"/>
  <path d="M78.7104 176.051L77.3641 175.895C46.5693 172.207 13.2944 140.14 3.20422 104.398L3.7144 104.228C7.41318 113.702 21.8115 120.595 43.2106 123.162H43.3948L43.4373 123.361C50.4664 148.252 62.8808 167.215 77.52 175.399L78.7104 176.065V176.051ZM4.57887 107.107C15.3634 140.976 46.6826 170.888 76.0887 175.186C61.8746 166.619 49.8571 147.954 42.9697 123.673C23.5121 121.319 9.80818 115.362 4.57887 107.107Z" fill="#01FFFF"/>
  <path d="M20.3376 138.296C20.2243 138.296 20.1676 138.253 20.1251 138.225C20.0826 138.182 19.9267 138.041 20.0259 137.771L20.536 137.955C20.536 137.955 20.536 137.885 20.4935 137.828C20.451 137.771 20.3943 137.757 20.3802 137.757C20.7628 137.757 23.5546 136.665 43.0263 123.205L43.3239 123.645C24.249 136.835 21.0462 138.296 20.3235 138.296H20.3376Z" fill="#01FFFF"/>
  <path d="M43.2107 161.244C43.0123 161.102 42.828 160.96 42.6296 160.818C41.3117 159.84 39.6678 158.592 38.4632 157.556C38.2648 157.386 38.0522 157.202 37.8255 157.017C37.4428 156.691 37.0602 156.365 36.6917 156.039C35.8556 155.315 34.9628 154.55 34.2542 153.911C33.3047 153.046 32.1568 151.926 31.1506 150.933L30.3287 150.124C26.9133 146.806 23.2429 142.239 21.8683 140.523C19.8134 137.97 18.9914 136.736 15.5194 131.545C14.7258 130.353 13.8471 128.836 13.0677 127.488L12.5292 126.552C11.3246 124.481 9.94996 121.673 8.87292 119.475C8.61783 118.936 8.34857 118.34 8.06514 117.702C7.55496 116.567 7.07313 115.433 6.60547 114.298L7.10147 114.085C7.31405 114.582 7.55496 115.135 7.79588 115.702C8.05097 116.298 8.30606 116.908 8.56115 117.489C14.995 131.772 25.0569 145.217 37.0177 155.613C37.2303 155.798 37.4428 155.982 37.6412 156.152C37.8255 156.308 37.9955 156.464 38.1656 156.606C39.7245 157.925 41.3117 159.173 42.9131 160.393C43.1115 160.549 43.3099 160.691 43.4941 160.818L43.1823 161.258L43.2107 161.244Z" fill="#01FFFF"/>
  <path d="M3.27509 104.625L3.2184 104.398C-2.23766 85.0952 -0.0410635 67.7919 9.25549 56.9135C16.568 48.3611 27.8203 44.5033 40.929 46.0776H41.0424L41.1132 46.1769C48.0148 54.9278 55.6674 59.7501 63.1784 60.445C66.9055 56.488 72.4182 54.7293 78.8096 55.4952L79.4615 55.5661L78.9513 55.9632C74.0621 59.7784 68.7761 61.4237 63.3909 60.9982C63.2776 61.1116 63.1784 61.2393 63.065 61.3669C58.4451 66.7707 57.368 75.394 60.089 85.0384L60.1456 85.2086L60.0039 85.3221C48.1707 94.5411 27.055 101.746 3.53018 104.583L3.30343 104.611L3.27509 104.625ZM35.317 46.2762C24.7734 46.2762 15.8028 50.0914 9.68064 57.268C0.5258 67.9621 -1.65662 84.9959 3.65772 104.03C26.9133 101.193 47.7455 94.1014 59.4937 85.0242C56.787 75.2805 57.9207 66.5438 62.6257 61.0266C62.654 60.9982 62.6682 60.9698 62.6965 60.9415C55.2139 60.1047 47.618 55.2541 40.7447 46.5882C38.8883 46.3755 37.0743 46.262 35.3029 46.262L35.317 46.2762ZM63.8728 60.5018C68.7478 60.7854 73.5803 59.2962 78.0585 55.9632C72.3049 55.4243 67.3306 57.0269 63.8728 60.5018Z" fill="#01FFFF"/>
  <path d="M25.1276 100.328C21.0887 86.0171 22.7185 73.1814 29.62 65.1113C35.0477 58.7573 43.3948 55.9065 53.1307 57.0695L53.074 57.6085C43.5223 56.4596 35.3453 59.2537 30.031 65.4659C23.257 73.3942 21.6556 86.0596 25.652 100.186L25.1276 100.328Z" fill="#01FFFF"/>
  <path d="M44.5426 93.7894C41.439 82.7833 42.7003 72.8978 48.0004 66.6856C52.1811 61.7924 58.6008 59.5941 66.1117 60.4876L66.055 61.0266C58.7425 60.1614 52.4787 62.2889 48.4256 67.0402C43.2388 73.1105 42.02 82.8117 45.0669 93.6475L44.5426 93.7894Z" fill="#01FFFF"/>
  <path d="M48.7232 64.2602C38.7606 64.2602 27.1116 60.1188 15.1366 52.0202L15.4342 51.5806C35.161 64.9126 53.9242 67.4372 65.6299 58.3175L65.9559 58.743C61.2084 62.4448 55.3414 64.2602 48.7232 64.2602Z" fill="#01FFFF"/>
  <path d="M115.273 118.241L114.678 117.858C109.69 114.695 106.954 110.809 106.742 106.611C106.657 104.725 107.082 102.796 107.989 100.853C99.7411 84.301 86.93 69.5932 72.5883 59.6226C62.1439 63.7073 50.6224 59.112 40.6739 46.5033L40.2629 45.9927L40.9148 46.0636C51.5435 47.3401 62.4698 51.9921 72.645 59.0127C74.6715 58.1901 76.6556 57.0413 78.5829 55.5379L78.6679 55.4669H78.7813C94.4267 57.3533 111.319 73.6354 116.435 91.7755L116.492 91.9457L116.35 92.0592C112.651 94.9525 110.03 97.9168 108.584 100.838C111.263 106.242 113.459 111.844 115.075 117.546L115.259 118.227L115.273 118.241ZM108.315 101.477C107.564 103.207 107.209 104.923 107.295 106.597C107.479 110.426 109.916 114.029 114.38 117.021C112.836 111.731 110.795 106.526 108.329 101.491L108.315 101.477ZM73.1977 59.3815C87.3976 69.3379 100.067 83.8897 108.315 100.257C109.803 97.4062 112.354 94.5412 115.897 91.7613C110.781 73.9191 94.2142 57.949 78.8522 56.0484C77.024 57.4668 75.125 58.5872 73.1977 59.3956V59.3815ZM41.5242 46.6735C51.1042 58.5447 62.0872 62.9272 72.064 59.2396C62.2714 52.5311 51.7703 48.035 41.5242 46.6735Z" fill="#01FFFF"/>
  <path d="M107.564 110.185C100.138 83.8897 75.692 60.3033 53.0599 57.5944L53.1166 57.0554C75.947 59.7786 100.591 83.5493 108.074 110.029L107.55 110.171L107.564 110.185Z" fill="#01FFFF"/>
  <path d="M107.847 101.363C102.15 81.1948 83.4012 63.0972 66.0552 61.0265L66.1119 60.4875C83.6563 62.5866 102.618 80.8544 108.357 101.207L107.833 101.349L107.847 101.363Z" fill="#01FFFF"/>
  <path d="M80.7937 68.2599C79.7025 68.2599 78.6821 68.0897 77.7468 67.7493C74.544 66.5863 72.2908 63.4093 71.2421 58.5871L71.7664 58.4736C72.7726 63.1115 74.9125 66.1467 77.9311 67.2529C81.9841 68.728 87.5819 66.8133 94.1008 61.7357L94.4268 62.1612C89.24 66.2034 84.5917 68.2741 80.7937 68.2741V68.2599Z" fill="#01FFFF"/>
  <path d="M82.9902 176.235C81.1621 176.235 79.2772 176.122 77.3641 175.895L77.1232 175.867V175.625C77.7609 150.678 85.2293 130.254 97.0768 121.021L97.1618 120.95H97.2752C103.454 121.702 108.782 120.028 112.396 116.241C108.868 113.405 106.926 110.128 106.756 106.625C106.515 101.746 109.732 96.5692 116.038 91.6477L116.35 91.4066L116.463 91.7896C119.241 101.604 118.107 110.412 113.374 115.957C113.317 116.028 113.247 116.099 113.19 116.17C113.743 116.596 114.352 117.007 114.975 117.418L115.06 117.475L115.089 117.574C120.531 136.877 118.334 154.181 109.038 165.059C102.802 172.363 93.6897 176.235 82.9902 176.235ZM77.6759 175.384C90.5011 176.845 101.498 173.073 108.641 164.705C117.796 153.982 119.964 136.892 114.607 117.815C113.983 117.418 113.388 116.993 112.821 116.567C109.108 120.482 103.652 122.226 97.3318 121.503C85.6828 130.651 78.3561 150.763 77.6759 175.384ZM116.052 92.3285C110.1 97.0515 107.082 101.987 107.294 106.597C107.45 109.944 109.335 113.092 112.765 115.83C112.836 115.759 112.906 115.674 112.963 115.603C117.512 110.27 118.632 101.803 116.052 92.3143V92.3285Z" fill="#01FFFF"/>
  <path d="M84.2515 153.543C82.8911 153.543 81.5023 153.458 80.0709 153.287L80.1276 152.748C89.6793 153.883 97.8563 151.089 103.171 144.891C109.945 136.963 111.546 124.311 107.55 110.171L108.074 110.029C112.113 124.34 110.483 137.175 103.582 145.246C98.9475 150.678 92.1876 153.543 84.2515 153.543Z" fill="#01FFFF"/>
  <path d="M90.0052 134.707C88.9565 134.707 87.8794 134.636 86.7882 134.509L86.8449 133.97C94.1574 134.849 100.421 132.708 104.474 127.956C109.661 121.886 110.88 112.185 107.833 101.349L108.357 101.207C111.461 112.213 110.2 122.099 104.899 128.311C101.328 132.495 96.1131 134.707 90.0052 134.707Z" fill="#01FFFF"/>
  <path d="M116.208 149.514C104.687 132.637 104.914 117.007 116.846 107.717L117.172 108.143C105.509 117.234 105.31 132.594 116.648 149.217L116.208 149.514Z" fill="#01FFFF"/>
  <path d="M59.6637 85.5775L59.5503 85.1946C56.7869 75.3799 57.9064 66.5723 62.6397 61.0267C62.6964 60.9558 62.7673 60.8848 62.824 60.8139C62.2713 60.3884 61.6619 59.9771 61.0383 59.5658L60.9533 59.5091L60.925 59.4098C55.4831 40.1067 57.6797 22.8034 66.9762 11.925C74.2746 3.37264 85.5268 -0.47096 98.6355 1.10336L98.8765 1.13172V1.37283C98.2387 26.3208 90.7703 46.7444 78.9229 55.9775L78.8378 56.0484H78.7245C72.5457 55.2967 67.2171 56.9703 63.6034 60.7572C67.1321 63.5938 69.0736 66.8701 69.2437 70.3733C69.4846 75.2523 66.2677 80.4291 59.9613 85.3506L59.6495 85.5917L59.6637 85.5775ZM63.2491 61.1401C63.1782 61.2111 63.1216 61.2962 63.0507 61.3671C58.5016 66.6999 57.3821 75.1672 59.9613 84.6556C65.9134 79.9327 68.9319 74.997 68.7193 70.3875C68.5635 67.0403 66.6786 63.8917 63.2491 61.1543V61.1401ZM61.4068 59.1687C62.0304 59.5658 62.6256 59.9913 63.1924 60.4168C66.9054 56.5023 72.3614 54.7578 78.682 55.4811C90.331 46.3331 97.6577 26.2215 98.3379 1.59976C85.5127 0.124728 74.5155 3.9116 67.373 12.2796C58.2182 23.002 56.0499 40.0925 61.4068 59.1687Z" fill="#01FFFF"/>
  <path d="M65.9558 58.7432L65.6299 58.3177C77.3356 49.198 79.9857 29.98 72.744 6.90418L73.2542 6.74817C80.5667 30.0367 77.8458 49.4817 65.9558 58.7432Z" fill="#01FFFF"/>
  <path d="M116.052 92.3286L115.939 91.9457C110.866 73.9899 94.1857 57.8922 78.7387 56.0342L78.0868 55.9633L78.597 55.5662C90.331 46.4181 97.7144 26.1647 98.338 1.37279V1.07495L98.6356 1.10332C129.43 4.79091 162.705 36.8587 172.795 72.6L172.881 72.8978L172.569 72.9404C149.129 75.7628 128.112 82.9252 116.364 92.0875L116.052 92.3286ZM79.4331 55.5804C94.7809 57.7929 111.177 73.6637 116.35 91.4067C128.183 82.3437 149.001 75.2664 172.2 72.4298C162.096 37.114 129.303 5.48588 98.8765 1.67064C98.1963 26.1364 90.9546 46.2054 79.4331 55.5804Z" fill="#01FFFF"/>
  <path d="M94.4125 62.1471L94.0865 61.7216C105.849 52.5593 118.887 34.5043 128.963 13.4283L129.445 13.6553C119.34 34.788 106.246 52.9139 94.4125 62.1329V62.1471Z" fill="#01FFFF"/>
  <path d="M107.847 75.0961L107.521 74.6706C119.312 65.48 137.282 52.1054 155.577 38.901L155.889 39.3407C137.608 52.5309 119.652 65.9055 107.847 75.0961Z" fill="#01FFFF"/>
  <path d="M140.697 131.261C138.869 131.261 136.984 131.148 135.071 130.921H134.957L134.887 130.821C127.985 122.085 120.332 117.248 112.821 116.553C109.094 120.51 103.581 122.255 97.1901 121.503L96.5382 121.432L97.0484 121.035C101.938 117.22 107.238 115.575 112.609 116C112.722 115.887 112.821 115.759 112.935 115.631C117.555 110.228 118.632 101.604 115.911 91.9598L115.854 91.7896L115.996 91.6761C127.829 82.4572 148.945 75.2522 172.47 72.4156L172.696 72.3872L172.753 72.6141C178.195 91.9172 175.998 109.221 166.702 120.099C160.466 127.403 151.354 131.275 140.654 131.275L140.697 131.261ZM135.241 130.396C148.123 131.913 159.162 128.127 166.333 119.73C175.474 109.036 177.656 92.0023 172.328 72.9687C149.072 75.8053 128.24 82.8968 116.492 91.974C119.199 101.718 118.065 110.454 113.36 115.972C113.332 116 113.317 116.028 113.289 116.043C120.772 116.879 128.368 121.73 135.241 130.396ZM97.9412 121.035C103.695 121.56 108.669 119.971 112.127 116.496C107.238 116.199 102.419 117.702 97.9412 121.035Z" fill="#01FFFF"/>
  <path d="M117.172 108.142L116.846 107.717C128.708 98.4697 150.149 97.1223 174.227 104.129L174.071 104.653C150.163 97.7038 128.906 99.0086 117.172 108.157V108.142Z" fill="#01FFFF"/>
  <path d="M108.896 120.78L108.386 120.609C108.598 119.815 108.669 118.553 108.584 116.865C108.499 115.177 108.258 113.943 107.946 112.256C107.748 111.178 107.422 109.873 107.139 108.965C106.501 106.894 105.651 104.469 104.999 102.767C104.786 102.214 102.802 97.6187 101.314 95.0658C100.095 92.9667 98.3096 90.0875 96.8783 87.9033C96.1839 86.8396 95.1777 85.5064 94.2849 84.3576C93.137 82.8542 92.2442 81.7621 91.5781 81.0104C89.1831 78.3298 87.2558 76.2732 85.8386 74.8833C85.0309 74.0891 83.8688 72.997 82.9335 72.2169L82.0974 71.5219C81.4029 70.9404 80.6518 70.3022 80.0141 69.8058C79.3906 69.3094 78.5686 68.7137 77.8459 68.1747L77.1515 67.6641C77.1515 67.6641 73.6086 65.0545 69.0737 62.9554C67.9541 62.4448 65.0915 61.1967 62.5689 60.8988C62.1438 60.8421 61.9595 60.8421 61.7753 60.8563L61.7328 60.3173C62.0871 60.2748 63.3625 60.0479 64.9214 58.8281C68.5493 56.0057 73.3393 54.8569 78.767 55.4951C94.4125 57.3673 111.305 73.6494 116.421 91.7895C119.638 103.164 117.611 113.021 111.022 118.156C110.469 118.624 110.143 118.893 109.732 119.404C109.165 120.085 108.952 120.553 108.867 120.78H108.896ZM63.235 60.445C65.6725 60.8563 68.2659 61.9767 69.3146 62.459C73.892 64.5864 77.4491 67.2103 77.4774 67.2387L78.1718 67.7492C78.8946 68.2882 79.7165 68.8839 80.3542 69.3803C80.992 69.8767 81.7431 70.5149 82.4516 71.1106L83.2736 71.8056C84.2231 72.5998 85.3993 73.7061 86.2071 74.5004C87.6243 75.8903 89.5658 77.961 91.9749 80.6416C92.6552 81.4075 93.548 82.5138 94.7101 84.0314C95.6029 85.1944 96.609 86.5276 97.3176 87.6197C98.7631 89.818 100.549 92.7114 101.768 94.8105C103.284 97.4343 105.268 102.001 105.48 102.597C106.132 104.299 106.983 106.738 107.635 108.823C107.918 109.745 108.244 111.078 108.442 112.142C108.768 113.887 109.009 115.135 109.094 116.865C109.151 117.83 109.151 118.681 109.094 119.375C109.165 119.276 109.236 119.177 109.321 119.078C109.774 118.525 110.129 118.227 110.667 117.773C117.101 112.752 119.057 103.108 115.897 91.9455C110.823 73.9898 94.1432 57.892 78.6962 56.0341C73.4102 55.3958 68.7477 56.5163 65.2332 59.2536C64.4679 59.8351 63.7735 60.218 63.1925 60.445H63.235Z" fill="#01FFFF"/>
  <path d="M3.27509 104.625L3.2184 104.398C-2.23766 85.0952 -0.0410635 67.7919 9.25549 56.9135C16.568 48.3611 27.8203 44.5033 40.929 46.0776H41.0424L41.1132 46.1769C48.0148 54.9278 55.6674 59.7501 63.1784 60.445C66.9055 56.488 72.4182 54.7293 78.8096 55.4952L79.4615 55.5661L78.9513 55.9632C74.0621 59.7784 68.7761 61.4237 63.3909 60.9982C63.2776 61.1116 63.1784 61.2393 63.065 61.3669C58.4451 66.7707 57.368 75.394 60.089 85.0384L60.1456 85.2086L60.0039 85.3221C48.1707 94.5411 27.055 101.746 3.53018 104.583L3.30343 104.611L3.27509 104.625ZM35.317 46.2762C24.7734 46.2762 15.8028 50.0914 9.68064 57.268C0.5258 67.9621 -1.65662 84.9959 3.65772 104.03C26.9133 101.193 47.7455 94.1014 59.4937 85.0242C56.787 75.2805 57.9207 66.5438 62.6257 61.0266C62.654 60.9982 62.6682 60.9698 62.6965 60.9415C55.2139 60.1047 47.618 55.2541 40.7447 46.5882C38.8883 46.3755 37.0743 46.262 35.3029 46.262L35.317 46.2762ZM63.8728 60.5018C68.7478 60.7854 73.5803 59.2962 78.0585 55.9632C72.3049 55.4243 67.3306 57.0269 63.8728 60.5018Z" fill="#01FFFF"/>
  <path d="M25.1276 100.328C21.0887 86.0171 22.7185 73.1814 29.62 65.1113C35.0477 58.7573 43.3948 55.9065 53.1307 57.0695L53.074 57.6085C43.5223 56.4596 35.3453 59.2537 30.031 65.4659C23.257 73.3942 21.6556 86.0596 25.652 100.186L25.1276 100.328Z" fill="#01FFFF"/>
  <path d="M44.5426 93.7894C41.439 82.7833 42.7003 72.8978 48.0004 66.6856C52.1811 61.7924 58.6008 59.5941 66.1117 60.4876L66.055 61.0266C58.7425 60.1614 52.4787 62.2889 48.4256 67.0402C43.2388 73.1105 42.02 82.8117 45.0669 93.6475L44.5426 93.7894Z" fill="#01FFFF"/>
  <path d="M48.7232 64.2602C38.7606 64.2602 27.1116 60.1188 15.1366 52.0202L15.4342 51.5806C35.161 64.9126 53.9242 67.4372 65.6299 58.3175L65.9559 58.743C61.2084 62.4448 55.3414 64.2602 48.7232 64.2602Z" fill="#01FFFF"/>
  <path d="M115.273 118.241L114.678 117.858C109.69 114.695 106.954 110.809 106.742 106.611C106.657 104.725 107.082 102.796 107.989 100.853C99.7411 84.301 86.93 69.5932 72.5883 59.6226C62.1439 63.7073 50.6224 59.112 40.6739 46.5033L40.2629 45.9927L40.9148 46.0636C51.5435 47.3401 62.4698 51.9921 72.645 59.0127C74.6715 58.1901 76.6556 57.0413 78.5829 55.5379L78.6679 55.4669H78.7813C94.4267 57.3533 111.319 73.6354 116.435 91.7755L116.492 91.9457L116.35 92.0592C112.651 94.9525 110.03 97.9168 108.584 100.838C111.263 106.242 113.459 111.844 115.075 117.546L115.259 118.227L115.273 118.241ZM108.315 101.477C107.564 103.207 107.209 104.923 107.295 106.597C107.479 110.426 109.916 114.029 114.38 117.021C112.836 111.731 110.795 106.526 108.329 101.491L108.315 101.477ZM73.1977 59.3815C87.3976 69.3379 100.067 83.8897 108.315 100.257C109.803 97.4062 112.354 94.5412 115.897 91.7613C110.781 73.9191 94.2142 57.949 78.8522 56.0484C77.024 57.4668 75.125 58.5872 73.1977 59.3956V59.3815ZM41.5242 46.6735C51.1042 58.5447 62.0872 62.9272 72.064 59.2396C62.2714 52.5311 51.7703 48.035 41.5242 46.6735Z" fill="#01FFFF"/>
  <path d="M107.564 110.185C100.138 83.8897 75.692 60.3033 53.0599 57.5944L53.1166 57.0554C75.947 59.7786 100.591 83.5493 108.074 110.029L107.55 110.171L107.564 110.185Z" fill="#01FFFF"/>
  <path d="M107.847 101.363C102.15 81.1948 83.4012 63.0972 66.0552 61.0265L66.1119 60.4875C83.6563 62.5866 102.618 80.8544 108.357 101.207L107.833 101.349L107.847 101.363Z" fill="#01FFFF"/>
  <path d="M80.7937 68.2599C79.7025 68.2599 78.6821 68.0897 77.7468 67.7493C74.544 66.5863 72.2908 63.4093 71.2421 58.5871L71.7664 58.4736C72.7726 63.1115 74.9125 66.1467 77.9311 67.2529C81.9841 68.728 87.5819 66.8133 94.1008 61.7357L94.4268 62.1612C89.24 66.2034 84.5917 68.2741 80.7937 68.2741V68.2599Z" fill="#01FFFF"/>
  <path d="M82.9902 176.235C81.1621 176.235 79.2772 176.122 77.3641 175.895L77.1232 175.867V175.625C77.7609 150.678 85.2293 130.254 97.0768 121.021L97.1618 120.95H97.2752C103.454 121.702 108.782 120.028 112.396 116.241C108.868 113.405 106.926 110.128 106.756 106.625C106.515 101.746 109.732 96.5692 116.038 91.6477L116.35 91.4066L116.463 91.7896C119.241 101.604 118.107 110.412 113.374 115.957C113.317 116.028 113.247 116.099 113.19 116.17C113.743 116.596 114.352 117.007 114.975 117.418L115.06 117.475L115.089 117.574C120.531 136.877 118.334 154.181 109.038 165.059C102.802 172.363 93.6897 176.235 82.9902 176.235ZM77.6759 175.384C90.5011 176.845 101.498 173.073 108.641 164.705C117.796 153.982 119.964 136.892 114.607 117.815C113.983 117.418 113.388 116.993 112.821 116.567C109.108 120.482 103.652 122.226 97.3318 121.503C85.6828 130.651 78.3561 150.763 77.6759 175.384ZM116.052 92.3285C110.1 97.0515 107.082 101.987 107.294 106.597C107.45 109.944 109.335 113.092 112.765 115.83C112.836 115.759 112.906 115.674 112.963 115.603C117.512 110.27 118.632 101.803 116.052 92.3143V92.3285Z" fill="#01FFFF"/>
  <path d="M84.2515 153.543C82.8911 153.543 81.5023 153.458 80.0709 153.287L80.1276 152.748C89.6793 153.883 97.8563 151.089 103.171 144.891C109.945 136.963 111.546 124.311 107.55 110.171L108.074 110.029C112.113 124.34 110.483 137.175 103.582 145.246C98.9475 150.678 92.1876 153.543 84.2515 153.543Z" fill="#01FFFF"/>
  <path d="M90.0052 134.707C88.9565 134.707 87.8794 134.636 86.7882 134.509L86.8449 133.97C94.1574 134.849 100.421 132.708 104.474 127.956C109.661 121.886 110.88 112.185 107.833 101.349L108.357 101.207C111.461 112.213 110.2 122.099 104.899 128.311C101.328 132.495 96.1131 134.707 90.0052 134.707Z" fill="#01FFFF"/>
  <path d="M116.208 149.514C104.687 132.637 104.914 117.007 116.846 107.717L117.172 108.143C105.509 117.234 105.31 132.594 116.648 149.217L116.208 149.514Z" fill="#01FFFF"/>
  <path d="M59.6637 85.5775L59.5503 85.1946C56.7869 75.3799 57.9064 66.5723 62.6397 61.0267C62.6964 60.9558 62.7673 60.8848 62.824 60.8139C62.2713 60.3884 61.6619 59.9771 61.0383 59.5658L60.9533 59.5091L60.925 59.4098C55.4831 40.1067 57.6797 22.8034 66.9762 11.925C74.2746 3.37264 85.5268 -0.47096 98.6355 1.10336L98.8765 1.13172V1.37283C98.2387 26.3208 90.7703 46.7444 78.9229 55.9775L78.8378 56.0484H78.7245C72.5457 55.2967 67.2171 56.9703 63.6034 60.7572C67.1321 63.5938 69.0736 66.8701 69.2437 70.3733C69.4846 75.2523 66.2677 80.4291 59.9613 85.3506L59.6495 85.5917L59.6637 85.5775ZM63.2491 61.1401C63.1782 61.2111 63.1216 61.2962 63.0507 61.3671C58.5016 66.6999 57.3821 75.1672 59.9613 84.6556C65.9134 79.9327 68.9319 74.997 68.7193 70.3875C68.5635 67.0403 66.6786 63.8917 63.2491 61.1543V61.1401ZM61.4068 59.1687C62.0304 59.5658 62.6256 59.9913 63.1924 60.4168C66.9054 56.5023 72.3614 54.7578 78.682 55.4811C90.331 46.3331 97.6577 26.2215 98.3379 1.59976C85.5127 0.124728 74.5155 3.9116 67.373 12.2796C58.2182 23.002 56.0499 40.0925 61.4068 59.1687Z" fill="#01FFFF"/>
  <path d="M65.9558 58.7432L65.6299 58.3177C77.3356 49.198 79.9857 29.98 72.744 6.90418L73.2542 6.74817C80.5667 30.0367 77.8458 49.4817 65.9558 58.7432Z" fill="#01FFFF"/>
  <path d="M116.052 92.3286L115.939 91.9457C110.866 73.9899 94.1857 57.8922 78.7387 56.0342L78.0868 55.9633L78.597 55.5662C90.331 46.4181 97.7144 26.1647 98.338 1.37279V1.07495L98.6356 1.10332C129.43 4.79091 162.705 36.8587 172.795 72.6L172.881 72.8978L172.569 72.9404C149.129 75.7628 128.112 82.9252 116.364 92.0875L116.052 92.3286ZM79.4331 55.5804C94.7809 57.7929 111.177 73.6637 116.35 91.4067C128.183 82.3437 149.001 75.2664 172.2 72.4298C162.096 37.114 129.303 5.48588 98.8765 1.67064C98.1963 26.1364 90.9546 46.2054 79.4331 55.5804Z" fill="#01FFFF"/>
  <path d="M94.4125 62.1471L94.0865 61.7216C105.849 52.5593 118.887 34.5043 128.963 13.4283L129.445 13.6553C119.34 34.788 106.246 52.9139 94.4125 62.1329V62.1471Z" fill="#01FFFF"/>
  <path d="M107.847 75.0961L107.521 74.6706C119.312 65.48 137.282 52.1054 155.577 38.901L155.889 39.3407C137.608 52.5309 119.652 65.9055 107.847 75.0961Z" fill="#01FFFF"/>
  <path d="M140.697 131.261C138.869 131.261 136.984 131.148 135.071 130.921H134.957L134.887 130.821C127.985 122.085 120.332 117.248 112.821 116.553C109.094 120.51 103.581 122.255 97.1901 121.503L96.5382 121.432L97.0484 121.035C101.938 117.22 107.238 115.575 112.609 116C112.722 115.887 112.821 115.759 112.935 115.631C117.555 110.228 118.632 101.604 115.911 91.9598L115.854 91.7896L115.996 91.6761C127.829 82.4572 148.945 75.2522 172.47 72.4156L172.696 72.3872L172.753 72.6141C178.195 91.9172 175.998 109.221 166.702 120.099C160.466 127.403 151.354 131.275 140.654 131.275L140.697 131.261ZM135.241 130.396C148.123 131.913 159.162 128.127 166.333 119.73C175.474 109.036 177.656 92.0023 172.328 72.9687C149.072 75.8053 128.24 82.8968 116.492 91.974C119.199 101.718 118.065 110.454 113.36 115.972C113.332 116 113.317 116.028 113.289 116.043C120.772 116.879 128.368 121.73 135.241 130.396ZM97.9412 121.035C103.695 121.56 108.669 119.971 112.127 116.496C107.238 116.199 102.419 117.702 97.9412 121.035Z" fill="#01FFFF"/>
  <path d="M117.172 108.142L116.846 107.717C128.708 98.4697 150.149 97.1223 174.227 104.129L174.071 104.653C150.163 97.7038 128.906 99.0086 117.172 108.157V108.142Z" fill="#01FFFF"/>
  <path d="M104.233 169.612L104.12 169.257C96.8784 147.742 98.579 129.502 108.57 119.659C108.698 118.468 108.598 117.021 108.542 116.156C108.457 114.951 108.4 114.624 107.791 111.532C107.606 110.61 107.295 109.405 107.011 108.497C106.402 106.625 105.509 104.115 104.8 102.271C104.361 101.122 103.681 99.647 103.128 98.5691C102.958 98.2287 102.76 97.86 102.561 97.4628C102.122 96.6118 101.683 95.7325 101.286 95.0092C100.875 94.2575 100.336 93.3639 99.8261 92.4988C99.5994 92.1158 99.3726 91.7329 99.1742 91.3925C98.7349 90.655 96.3824 87.0099 94.2992 84.3577C93.0663 82.7834 90.1894 79.0958 85.8104 74.8551C82.0124 71.1675 79.1356 69.0968 76.8115 67.4232C76.6556 67.3097 72.9001 64.6149 68.3227 62.6151C66.3387 61.7499 64.3121 61.1401 62.8241 60.9273C50.8349 68.1607 32.7945 65.3241 13.7763 53.0274L13.4645 52.8288L13.7621 52.6019C20.862 47.0563 30.2578 44.8154 40.929 46.0919C71.7239 49.7795 104.999 81.8473 115.089 117.589C121.395 139.955 117.456 159.315 104.531 169.399L104.233 169.626V169.612ZM108.414 120.567C99.1034 130.325 97.6012 147.954 104.503 168.704C117.016 158.705 120.772 139.672 114.579 117.702C104.545 82.1593 71.4829 50.2617 40.8723 46.6025C30.4987 45.3685 21.358 47.496 14.3998 52.7721C32.7662 64.5582 50.1689 67.4373 61.903 60.828C61.8604 60.828 61.8321 60.828 61.7896 60.828L61.7612 60.2891C62.073 60.2607 62.654 60.1189 63.3201 59.8069C64.0003 59.4948 64.3405 59.2537 64.9498 58.7999L65.2758 59.2254L65.1341 59.0268L65.29 59.2254C64.7231 59.665 64.1421 60.0905 63.5327 60.4735C64.9924 60.7571 66.8063 61.3245 68.5636 62.1045C73.1835 64.1185 76.9815 66.8558 77.1516 66.9693C79.4757 68.6571 82.3809 70.742 86.2072 74.4438C90.6146 78.7129 93.5056 82.4288 94.7385 84.0031C96.8217 86.6837 99.2167 90.3571 99.6419 91.0946C99.8403 91.435 100.067 91.8038 100.294 92.2009C100.804 93.0661 101.342 93.9596 101.768 94.7255C102.164 95.4488 102.618 96.3282 103.057 97.1933C103.256 97.5763 103.44 97.9592 103.624 98.2854C104.177 99.3633 104.857 100.867 105.311 102.03C106.033 103.874 106.926 106.398 107.535 108.284C107.833 109.192 108.159 110.44 108.329 111.362C108.938 114.497 109.009 114.837 109.094 116.071C109.137 116.808 109.222 117.971 109.165 119.064C109.675 118.596 110.214 118.142 110.752 117.716L111.093 118.142C110.653 118.496 109.491 119.447 108.924 120.78L108.414 120.61C108.414 120.61 108.414 120.581 108.414 120.567Z" fill="#01FFFF"/>
  <path d="M77.6618 175.923L77.3642 175.895C46.5693 172.207 13.2945 140.14 3.20429 104.398L3.11926 104.101L3.43104 104.058C26.8708 101.236 47.8873 94.0732 59.6355 84.9109L59.9473 84.6698L60.0607 85.0527C65.1341 103.008 81.8141 119.106 97.2611 120.964L97.913 121.035L97.4028 121.432C85.6687 130.58 78.2853 150.834 77.6618 175.626V175.923ZM3.81367 104.554C13.918 139.87 46.6969 171.498 77.1374 175.328C77.8177 150.862 85.0594 130.793 96.5809 121.418C81.233 119.205 64.8365 103.335 59.6639 85.5917C47.8306 94.6547 27.0126 101.732 3.81367 104.569V104.554Z" fill="#01FFFF"/>
  <path d="M80.0709 153.302C57.2405 150.578 32.5961 126.808 25.1135 100.328L25.6379 100.186C33.0638 126.481 57.5098 150.068 80.1418 152.777L80.0851 153.316L80.0709 153.302Z" fill="#01FFFF"/>
  <path d="M86.7882 134.509C69.2438 132.41 50.2822 114.142 44.5427 93.7894L45.0671 93.6476C50.7641 113.816 69.5131 131.913 86.8591 133.984L86.8024 134.523L86.7882 134.509Z" fill="#01FFFF"/>
  <path d="M47.0369 163.556L46.5551 163.329C56.6594 142.182 69.7539 124.07 81.5872 114.851L81.9132 115.277C70.1507 124.439 57.1129 142.494 47.0369 163.57V163.556Z" fill="#01FFFF"/>
  <path d="M3.27509 104.625L3.2184 104.398C-2.23766 85.0952 -0.0410635 67.7919 9.25549 56.9135C16.568 48.3611 27.8203 44.5033 40.929 46.0776H41.0424L41.1132 46.1769C48.0148 54.9278 55.6674 59.7501 63.1784 60.445C66.9055 56.488 72.4182 54.7293 78.8096 55.4952L79.4615 55.5661L78.9513 55.9632C74.0621 59.7784 68.7761 61.4237 63.3909 60.9982C63.2776 61.1116 63.1784 61.2393 63.065 61.3669C58.4451 66.7707 57.368 75.394 60.089 85.0384L60.1456 85.2086L60.0039 85.3221C48.1707 94.5411 27.055 101.746 3.53018 104.583L3.30343 104.611L3.27509 104.625ZM35.317 46.2762C24.7734 46.2762 15.8028 50.0914 9.68064 57.268C0.5258 67.9621 -1.65662 84.9959 3.65772 104.03C26.9133 101.193 47.7455 94.1014 59.4937 85.0242C56.787 75.2805 57.9207 66.5438 62.6257 61.0266C62.654 60.9982 62.6682 60.9698 62.6965 60.9415C55.2139 60.1047 47.618 55.2541 40.7447 46.5882C38.8883 46.3755 37.0743 46.262 35.3029 46.262L35.317 46.2762ZM63.8728 60.5018C68.7478 60.7854 73.5803 59.2962 78.0585 55.9632C72.3049 55.4243 67.3306 57.0269 63.8728 60.5018Z" fill="#01FFFF"/>
  <path d="M25.1276 100.328C21.0887 86.0171 22.7185 73.1814 29.62 65.1113C35.0477 58.7573 43.3948 55.9065 53.1307 57.0695L53.074 57.6085C43.5223 56.4596 35.3453 59.2537 30.031 65.4659C23.257 73.3942 21.6556 86.0596 25.652 100.186L25.1276 100.328Z" fill="#01FFFF"/>
  <path d="M44.5428 93.7894C41.4392 82.7833 42.7005 72.8978 48.0007 66.6856C52.1813 61.7924 58.601 59.5941 66.112 60.4876L66.0553 61.0266C58.7427 60.1614 52.4789 62.2889 48.4258 67.0402C43.239 73.1105 42.0203 82.8117 45.0672 93.6475L44.5428 93.7894Z" fill="#01FFFF"/>
  <path d="M30.4704 77.3086C21.7407 77.3086 11.9906 75.8477 1.78711 72.8693L1.943 72.3445C25.8363 79.2942 47.1078 77.9894 58.8419 68.8413L59.1678 69.2668C52.3371 74.5854 42.332 77.2944 30.4704 77.2944V77.3086Z" fill="#01FFFF"/>
  <path d="M135.723 130.992L135.071 130.921C124.442 129.644 113.516 124.992 103.341 117.971C101.314 118.794 99.3301 119.943 97.4028 121.446L97.3177 121.517H97.2044C81.5589 119.631 64.6664 103.349 59.5505 85.2087L59.4938 85.0385L59.6355 84.925C63.3343 82.0317 65.956 79.0674 67.3873 76.1457C64.7089 70.742 62.5123 65.1397 60.8968 59.4381L60.7125 58.7573L61.3077 59.1403C66.2961 62.3031 69.0313 66.1892 69.2438 70.3874C69.3289 72.2738 68.9037 74.2026 67.9967 76.1457C76.2446 92.6973 89.0557 107.405 103.397 117.376C113.842 113.305 125.363 117.886 135.312 130.495L135.723 131.006V130.992ZM103.95 117.73C113.743 124.439 124.244 128.935 134.49 130.297C124.91 118.44 113.941 114.043 103.95 117.73ZM60.1315 85.2229C65.2474 103.065 81.814 119.035 97.176 120.936C99.0041 119.517 100.903 118.397 102.83 117.589C88.6305 107.646 75.9612 93.0803 67.7133 76.713C66.2253 79.5638 63.6744 82.4288 60.1315 85.2087V85.2229ZM61.6479 59.9629C63.1926 65.2532 65.2333 70.4583 67.7133 75.4933C68.4644 73.763 68.8187 72.0468 68.7336 70.3732C68.5494 66.5438 66.1119 62.9413 61.6479 59.9487V59.9629Z" fill="#01FFFF"/>
  <path d="M104.248 118.51C103.241 113.873 101.116 110.837 98.0829 109.731C94.0298 108.256 88.4462 110.171 81.9131 115.248L81.5872 114.823C88.262 109.618 94.044 107.689 98.2671 109.22C101.47 110.383 103.723 113.56 104.772 118.383L104.248 118.496V118.51Z" fill="#01FFFF"/>
  <path d="M68.4927 102.313L68.1667 101.888C76.698 95.2361 79.2914 92.8818 80.0709 92.045C79.7166 92.201 79.1356 92.513 78.1435 93.1087L77.8743 92.6407C80.3827 91.1373 80.6803 91.194 80.8787 91.4776C81.1054 91.8039 81.4172 92.2577 68.521 102.313H68.4927Z" fill="#01FFFF"/>
  <path d="M59.6638 85.5775L59.5504 85.1946C56.787 75.3799 57.9065 66.5723 62.6398 61.0267C62.6965 60.9558 62.7674 60.8848 62.8241 60.8139C62.2714 60.3884 61.662 59.9771 61.0385 59.5658L60.9534 59.5091L60.9251 59.4098C55.4832 40.1067 57.6798 22.8034 66.9764 11.925C74.2747 3.37264 85.527 -0.47096 98.6357 1.10336L98.8766 1.13172V1.37283C98.2389 26.3208 90.7704 46.7444 78.923 55.9775L78.838 56.0484H78.7246C72.5458 55.2967 67.2173 56.9703 63.6035 60.7572C67.1322 63.5938 69.0737 66.8701 69.2438 70.3733C69.4847 75.2523 66.2678 80.4291 59.9614 85.3506L59.6496 85.5917L59.6638 85.5775ZM63.2492 61.1401C63.1784 61.2111 63.1217 61.2962 63.0508 61.3671C58.5017 66.6999 57.3822 75.1672 59.9614 84.6556C65.9135 79.9327 68.932 74.997 68.7195 70.3875C68.5636 67.0403 66.6788 63.8917 63.2492 61.1543V61.1401ZM61.4069 59.1687C62.0305 59.5658 62.6257 59.9913 63.1925 60.4168C66.9055 56.5023 72.3616 54.7578 78.6821 55.4811C90.3311 46.3331 97.6578 26.2215 98.3381 1.59976C85.5128 0.124728 74.5156 3.9116 67.3732 12.2796C58.2183 23.002 56.0501 40.0925 61.4069 59.1687Z" fill="#01FFFF"/>
  <path d="M59.1677 69.2812L58.8418 68.8557C70.505 59.7644 70.7034 44.4041 59.3661 27.7816L59.8055 27.4838C71.327 44.3616 71.1002 59.9913 59.1677 69.2812Z" fill="#01FFFF"/>
  <path d="M77.6617 175.923L77.3641 175.895C46.5692 172.207 13.2943 140.139 3.20416 104.398C-3.11637 82.0316 0.837503 62.6717 13.762 52.5876L13.9179 52.4741L14.0738 52.5734C34.2258 65.6076 53.2298 67.9336 64.9356 58.8139L65.2615 59.2394C58.856 64.2319 56.9003 73.8763 60.0606 85.0384C65.134 102.994 81.8139 119.092 97.261 120.95L97.9129 121.021L97.4027 121.418C85.6686 130.566 78.2852 150.819 77.6617 175.611V175.909V175.923ZM13.9462 53.1407C1.31934 63.0972 -2.50699 82.1876 3.72851 104.256C13.7336 139.686 46.6117 171.498 77.1373 175.328C77.8176 150.862 85.0592 130.793 96.5807 121.418C81.1195 119.191 64.6096 103.108 59.5504 85.2086C56.7586 75.3088 57.9206 66.5721 62.5973 61.0832C50.6365 68.118 32.7803 65.2814 13.9462 53.1549V53.1407Z" fill="#01FFFF"/>
  <path d="M82.9902 176.235C81.1621 176.235 79.2772 176.122 77.3641 175.895L77.1232 175.867V175.625C77.7609 150.678 85.2293 130.254 97.0768 121.021L97.1618 120.95H97.2752C103.454 121.702 108.782 120.028 112.396 116.241C108.868 113.405 106.926 110.128 106.756 106.625C106.515 101.746 109.732 96.5692 116.038 91.6477L116.35 91.4066L116.463 91.7896C119.241 101.604 118.107 110.412 113.374 115.957C113.317 116.028 113.247 116.099 113.19 116.17C113.743 116.596 114.352 117.007 114.975 117.418L115.06 117.475L115.089 117.574C120.531 136.877 118.334 154.181 109.038 165.059C102.802 172.363 93.6897 176.235 82.9902 176.235ZM77.6759 175.384C90.5011 176.845 101.498 173.073 108.641 164.705C117.796 153.982 119.964 136.892 114.607 117.815C113.983 117.418 113.388 116.993 112.821 116.567C109.108 120.482 103.652 122.226 97.3318 121.503C85.6828 130.651 78.3561 150.763 77.6759 175.384ZM116.052 92.3285C110.1 97.0515 107.082 101.987 107.294 106.597C107.45 109.944 109.335 113.092 112.765 115.83C112.836 115.759 112.906 115.674 112.963 115.603C117.512 110.27 118.632 101.803 116.052 92.3143V92.3285Z" fill="#01FFFF"/>
  <path d="M84.2515 153.543C82.8911 153.543 81.5023 153.458 80.0709 153.287L80.1276 152.748C89.6793 153.883 97.8563 151.089 103.171 144.891C109.945 136.963 111.546 124.311 107.55 110.171L108.074 110.029C112.113 124.34 110.483 137.175 103.582 145.246C98.9475 150.678 92.1876 153.543 84.2515 153.543Z" fill="#01FFFF"/>
  <path d="M90.0052 134.707C88.9565 134.707 87.8794 134.636 86.7882 134.509L86.8449 133.97C94.1574 134.849 100.421 132.708 104.474 127.956C109.661 121.886 110.88 112.185 107.833 101.349L108.357 101.207C111.461 112.213 110.2 122.099 104.899 128.311C101.328 132.495 96.1131 134.707 90.0052 134.707Z" fill="#01FFFF"/>
  <path d="M102.745 170.236C95.4186 146.947 98.1537 127.502 110.044 118.241L110.37 118.666C98.6639 127.786 96.0138 147.004 103.255 170.08L102.745 170.236Z" fill="#01FFFF"/>
  <path d="M140.697 131.261C138.869 131.261 136.984 131.148 135.071 130.921H134.957L134.887 130.821C127.985 122.085 120.332 117.248 112.821 116.553C109.094 120.51 103.581 122.255 97.1901 121.503L96.5382 121.432L97.0484 121.035C101.938 117.22 107.238 115.575 112.609 116C112.722 115.887 112.821 115.759 112.935 115.631C117.555 110.228 118.632 101.604 115.911 91.9599L115.854 91.7897L115.996 91.6763C127.829 82.4573 148.945 75.2523 172.47 72.4157L172.696 72.3873L172.753 72.6143C178.195 91.9174 175.998 109.221 166.702 120.099C160.466 127.403 151.354 131.275 140.654 131.275L140.697 131.261ZM135.241 130.396C148.123 131.914 159.162 128.127 166.333 119.73C175.474 109.036 177.656 92.0025 172.328 72.9688C149.072 75.8054 128.24 82.897 116.492 91.9741C119.199 101.718 118.065 110.455 113.36 115.972C113.332 116 113.317 116.029 113.289 116.043C120.772 116.88 128.368 121.73 135.241 130.396ZM97.9412 121.035C103.695 121.56 108.669 119.971 112.127 116.497C107.238 116.199 102.419 117.702 97.9412 121.035Z" fill="#01FFFF"/>
  <path d="M160.565 125.403C140.839 112.071 122.075 109.547 110.37 118.667L110.044 118.241C121.934 108.965 140.938 111.476 160.863 124.95L160.565 125.389V125.403Z" fill="#01FFFF"/>
  <path d="M83.0469 176.235C81.2046 176.235 79.3056 176.122 77.3641 175.895L77.1232 175.867V175.626C77.7609 150.678 85.2293 130.254 97.0768 121.021L97.1618 120.95H97.2752C102.575 121.588 107.224 120.482 110.738 117.745L111.064 118.17C99.3584 127.29 96.9492 146.323 104.616 169.087L104.673 169.272L104.517 169.385C98.7065 173.924 91.3514 176.25 83.0327 176.25L83.0469 176.235ZM77.6759 175.384C88.0211 176.562 97.1334 174.392 104.049 169.059C96.935 147.784 98.5648 129.729 108.343 119.858C105.197 121.404 101.442 121.971 97.3318 121.489C85.6828 130.637 78.3561 150.749 77.6759 175.37V175.384Z" fill="#01FFFF"/>
  <path d="M77.6617 175.923L77.3641 175.895C46.5692 172.207 13.2943 140.14 3.20417 104.398L3.11914 104.101L3.43092 104.058C26.8707 101.236 47.8872 94.0732 59.6354 84.9109L59.9472 84.6698L60.0606 85.0527C65.134 103.008 81.8139 119.106 97.261 120.964L97.9129 121.035L97.4027 121.432C85.6686 130.58 78.2852 150.834 77.6617 175.626V175.923ZM3.81355 104.554C13.9179 139.87 46.6968 171.498 77.1373 175.328C77.8176 150.862 85.0592 130.793 96.5807 121.418C81.2329 119.205 64.8364 103.335 59.6637 85.5917C47.8305 94.6547 27.0124 101.732 3.81355 104.569V104.554Z" fill="#01FFFF"/>
  <path d="M47.0369 163.556L46.5551 163.329C56.6594 142.182 69.7539 124.07 81.5872 114.851L81.9132 115.277C70.1507 124.439 57.1129 142.494 47.0369 163.57V163.556Z" fill="#01FFFF"/>
  <path d="M3.27509 104.625L3.2184 104.398C-2.23766 85.0952 -0.0410635 67.7919 9.25549 56.9135C16.568 48.3611 27.8203 44.5033 40.929 46.0776H41.0424L41.1132 46.1769C48.0148 54.9278 55.6674 59.7501 63.1784 60.445C66.9055 56.488 72.4182 54.7293 78.8096 55.4952L79.4615 55.5661L78.9513 55.9632C74.0621 59.7784 68.7761 61.4237 63.3909 60.9982C63.2776 61.1116 63.1784 61.2393 63.065 61.3669C58.4451 66.7707 57.368 75.394 60.089 85.0384L60.1456 85.2086L60.0039 85.3221C48.1707 94.5411 27.055 101.746 3.53018 104.583L3.30343 104.611L3.27509 104.625ZM35.317 46.2762C24.7734 46.2762 15.8028 50.0914 9.68064 57.268C0.5258 67.9621 -1.65662 84.9959 3.65772 104.03C26.9133 101.193 47.7455 94.1014 59.4937 85.0242C56.787 75.2805 57.9207 66.5438 62.6257 61.0266C62.654 60.9982 62.6682 60.9698 62.6965 60.9415C55.2139 60.1047 47.618 55.2541 40.7447 46.5882C38.8883 46.3755 37.0743 46.262 35.3029 46.262L35.317 46.2762ZM63.8728 60.5018C68.7478 60.7854 73.5803 59.2962 78.0585 55.9632C72.3049 55.4243 67.3306 57.0269 63.8728 60.5018Z" fill="#01FFFF"/>
  <path d="M30.4703 77.3086C21.7406 77.3086 11.9905 75.8477 1.78699 72.8693L1.94287 72.3445C25.8362 79.2942 47.1077 77.9894 58.8418 68.8413L59.1677 69.2668C52.337 74.5854 42.3319 77.2944 30.4703 77.2944V77.3086Z" fill="#01FFFF"/>
  <path d="M135.723 130.992L135.071 130.921C124.442 129.644 113.516 124.992 103.341 117.971C101.314 118.794 99.3301 119.943 97.4028 121.446L97.3177 121.517H97.2044C81.5589 119.631 64.6664 103.349 59.5505 85.2087L59.4938 85.0385L59.6355 84.925C63.3343 82.0317 65.956 79.0674 67.3873 76.1457C64.7089 70.742 62.5123 65.1397 60.8968 59.4381L60.7125 58.7573L61.3077 59.1403C66.2961 62.3031 69.0313 66.1892 69.2438 70.3874C69.3289 72.2738 68.9037 74.2026 67.9967 76.1457C76.2446 92.6973 89.0557 107.405 103.397 117.376C113.842 113.305 125.363 117.886 135.312 130.495L135.723 131.006V130.992ZM103.95 117.73C113.743 124.439 124.244 128.935 134.49 130.297C124.91 118.44 113.941 114.043 103.95 117.73ZM60.1315 85.2229C65.2474 103.065 81.814 119.035 97.176 120.936C99.0041 119.517 100.903 118.397 102.83 117.589C88.6305 107.646 75.9612 93.0803 67.7133 76.713C66.2253 79.5638 63.6744 82.4288 60.1315 85.2087V85.2229ZM61.6479 59.9629C63.1926 65.2532 65.2333 70.4583 67.7133 75.4933C68.4644 73.763 68.8187 72.0468 68.7336 70.3732C68.5494 66.5438 66.1119 62.9413 61.6479 59.9487V59.9629Z" fill="#01FFFF"/>
  <path d="M109.888 116.497C92.3435 114.397 73.3819 96.1297 67.6425 75.7771L68.1668 75.6353C73.8638 95.8035 92.6128 113.901 109.959 115.972L109.902 116.511L109.888 116.497Z" fill="#01FFFF"/>
  <path d="M122.883 119.929C100.053 117.206 75.4084 93.4349 67.9258 66.9552L68.4501 66.8134C75.876 93.1087 100.322 116.695 122.954 119.404L122.897 119.943L122.883 119.929Z" fill="#01FFFF"/>
  <path d="M104.248 118.51C103.241 113.873 101.116 110.837 98.083 109.731C94.0299 108.256 88.4463 110.171 81.9132 115.248L81.5873 114.823C88.2621 109.618 94.0441 107.689 98.2672 109.22C101.47 110.383 103.723 113.56 104.772 118.383L104.248 118.496V118.51Z" fill="#01FFFF"/>
  <path d="M59.6637 85.5775L59.5503 85.1946C56.7869 75.3799 57.9064 66.5723 62.6397 61.0267C62.6964 60.9558 62.7673 60.8848 62.824 60.8139C62.2713 60.3884 61.6619 59.9771 61.0383 59.5658L60.9533 59.5091L60.925 59.4098C55.4831 40.1067 57.6797 22.8034 66.9762 11.925C74.2746 3.37264 85.5268 -0.47096 98.6355 1.10336L98.8765 1.13172V1.37283C98.2387 26.3208 90.7703 46.7444 78.9229 55.9775L78.8378 56.0484H78.7245C72.5457 55.2967 67.2171 56.9703 63.6034 60.7572C67.1321 63.5938 69.0736 66.8701 69.2437 70.3733C69.4846 75.2523 66.2677 80.4291 59.9613 85.3506L59.6495 85.5917L59.6637 85.5775ZM63.2491 61.1401C63.1782 61.2111 63.1216 61.2962 63.0507 61.3671C58.5016 66.6999 57.3821 75.1672 59.9613 84.6556C65.9134 79.9327 68.9319 74.997 68.7193 70.3875C68.5635 67.0403 66.6786 63.8917 63.2491 61.1543V61.1401ZM61.4068 59.1687C62.0304 59.5658 62.6256 59.9913 63.1924 60.4168C66.9054 56.5023 72.3614 54.7578 78.682 55.4811C90.331 46.3331 97.6577 26.2215 98.3379 1.59976C85.5127 0.124728 74.5155 3.9116 67.373 12.2796C58.2182 23.002 56.0499 40.0925 61.4068 59.1687Z" fill="#01FFFF"/>
  <path d="M67.6423 75.7771C64.5387 64.771 65.8 54.8854 71.1002 48.6733C75.2808 43.7801 81.7147 41.5817 89.2115 42.4753L89.1548 43.0142C81.8564 42.1349 75.5784 44.2765 71.5111 49.0278C66.3244 55.0982 65.1056 64.7994 68.1667 75.6352L67.6423 75.7771Z" fill="#01FFFF"/>
  <path d="M67.9257 66.9552C63.8868 52.6445 65.5165 39.8089 72.4181 31.7387C77.8458 25.3847 86.1929 22.5198 95.9288 23.697L95.8721 24.2359C86.3204 23.0871 78.1434 25.8812 72.8291 32.0933C66.0551 40.0216 64.4537 52.6871 68.4501 66.8134L67.9257 66.9552Z" fill="#01FFFF"/>
  <path d="M59.1677 69.2812L58.8418 68.8557C70.505 59.7644 70.7034 44.4041 59.3661 27.7816L59.8055 27.4838C71.327 44.3616 71.1002 59.9913 59.1677 69.2812Z" fill="#01FFFF"/>
  <path d="M97.3177 121.503H97.2043C81.5589 119.617 64.6663 103.335 59.5504 85.1945C56.3335 73.8197 58.36 63.9625 64.9498 58.8282C65.3749 58.4736 66.537 57.5376 67.118 56.2043L67.6282 56.3887C67.2739 57.6652 67.4156 59.7359 67.4865 60.8564C67.5715 62.0619 67.614 62.3314 68.2376 65.4942C68.4076 66.402 68.7336 67.6075 69.017 68.5294C69.6264 70.4016 70.5192 72.912 71.2278 74.7558C71.6671 75.8762 72.3332 77.3654 72.9 78.4575C73.0701 78.7979 73.2685 79.1667 73.4669 79.5496C73.9062 80.4006 74.3455 81.28 74.7423 82.0033C75.1533 82.755 75.6918 83.6485 76.2162 84.5137C76.4429 84.8966 76.6697 85.2796 76.8681 85.62C76.8823 85.6483 78.7246 88.7261 81.7431 92.6548C82.9052 94.1723 83.798 95.2786 84.4782 96.0445C86.1646 97.9308 88.4746 100.399 90.2177 102.157C92.1876 104.143 96.0989 107.306 96.4957 107.604C98.0546 108.767 100.223 110.256 101.867 111.334C102.689 111.873 103.837 112.525 104.729 112.979C106.926 114.085 107.663 114.454 109.349 115.064C110.058 115.319 110.965 115.603 111.603 115.773C112.141 115.915 112.892 116.043 113.431 116.128L113.36 116.667C107.748 116 102.377 117.617 97.4169 121.475L97.3318 121.546L97.3177 121.503ZM66.8771 57.6368C66.2819 58.4311 65.5875 58.9984 65.2757 59.2537C58.856 64.2461 56.9145 73.9048 60.0606 85.0526C65.1198 102.966 81.7431 119.035 97.1618 120.95C101.314 117.745 105.736 116.071 110.37 115.957C109.959 115.83 109.534 115.688 109.151 115.546C107.436 114.922 106.685 114.553 104.474 113.433C103.567 112.979 102.391 112.312 101.555 111.759C99.8969 110.681 97.7286 109.164 96.1556 108.001C95.7588 107.703 91.7908 104.512 89.8067 102.512C88.0495 100.739 85.7395 98.2712 84.0389 96.3707C83.3445 95.5906 82.4375 94.4702 81.2754 92.9526C78.2569 89.0239 76.3862 85.8894 76.3721 85.8611C76.1737 85.5207 75.9469 85.1519 75.7202 84.769C75.1958 83.9038 74.6715 82.9961 74.2463 82.2302C73.8495 81.5069 73.396 80.6275 72.9567 79.7624C72.7583 79.3794 72.5741 78.9965 72.3899 78.6703C71.823 77.5782 71.1428 76.0606 70.7034 74.926C69.9807 73.0822 69.0879 70.5576 68.4785 68.6712C68.1809 67.7493 67.855 66.5012 67.6849 65.5935C67.0613 62.3882 67.0047 62.1187 66.9196 60.8848C66.8629 60.0763 66.7779 58.7998 66.8629 57.6368H66.8771Z" fill="#01FFFF"/>
  <path d="M77.6617 175.923L77.3641 175.895C46.5692 172.207 13.2943 140.14 3.20417 104.398L3.11914 104.101L3.43092 104.058C26.8707 101.236 47.8872 94.0732 59.6354 84.9109L59.9472 84.6698L60.0606 85.0527C65.134 103.008 81.8139 119.106 97.261 120.964L97.9129 121.035L97.4027 121.432C85.6686 130.58 78.2852 150.834 77.6617 175.626V175.923ZM3.81355 104.554C13.9179 139.87 46.6968 171.498 77.1373 175.328C77.8176 150.862 85.0592 130.793 96.5807 121.418C81.2329 119.205 64.8364 103.335 59.6637 85.5917C47.8305 94.6547 27.0124 101.732 3.81355 104.569V104.554Z" fill="#01FFFF"/>
  <path d="M47.0369 163.556L46.5551 163.329C56.6594 142.182 69.7539 124.07 81.5872 114.851L81.9132 115.277C70.1507 124.439 57.1129 142.494 47.0369 163.57V163.556Z" fill="#01FFFF"/>
  <path d="M20.4368 138.083L20.125 137.643C38.3922 124.467 56.3476 111.093 68.1667 101.888L68.4926 102.313C56.6735 111.518 38.7181 124.893 20.4368 138.083Z" fill="#01FFFF"/>
  <path d="M3.27509 104.625L3.2184 104.398C-2.23766 85.0952 -0.0410635 67.7919 9.25549 56.9135C16.568 48.3611 27.8203 44.5033 40.929 46.0776H41.0424L41.1132 46.1769C48.0148 54.9278 55.6674 59.7501 63.1784 60.445C66.9055 56.488 72.4182 54.7293 78.8096 55.4952L79.4615 55.5661L78.9513 55.9632C74.0621 59.7784 68.7761 61.4237 63.3909 60.9982C63.2776 61.1116 63.1784 61.2393 63.065 61.3669C58.4451 66.7707 57.368 75.394 60.089 85.0384L60.1456 85.2086L60.0039 85.3221C48.1707 94.5411 27.055 101.746 3.53018 104.583L3.30343 104.611L3.27509 104.625ZM35.317 46.2762C24.7734 46.2762 15.8028 50.0914 9.68064 57.268C0.5258 67.9621 -1.65662 84.9959 3.65772 104.03C26.9133 101.193 47.7455 94.1014 59.4937 85.0242C56.787 75.2805 57.9207 66.5438 62.6257 61.0266C62.654 60.9982 62.6682 60.9698 62.6965 60.9415C55.2139 60.1047 47.618 55.2541 40.7447 46.5882C38.8883 46.3755 37.0743 46.262 35.3029 46.262L35.317 46.2762ZM63.8728 60.5018C68.7478 60.7854 73.5803 59.2962 78.0585 55.9632C72.3049 55.4243 67.3306 57.0269 63.8728 60.5018Z" fill="#01FFFF"/>
  <path d="M30.4703 77.3086C21.7406 77.3086 11.9905 75.8477 1.78699 72.8693L1.94287 72.3445C25.8362 79.2942 47.1077 77.9894 58.8418 68.8413L59.1677 69.2668C52.337 74.5854 42.3319 77.2944 30.4703 77.2944V77.3086Z" fill="#01FFFF"/>
  <path d="M135.723 130.992L135.071 130.921C124.442 129.644 113.516 124.992 103.341 117.971C101.314 118.794 99.3301 119.943 97.4028 121.446L97.3177 121.517H97.2044C81.5589 119.631 64.6664 103.349 59.5505 85.2087L59.4938 85.0385L59.6355 84.925C63.3343 82.0317 65.956 79.0674 67.3873 76.1457C64.7089 70.742 62.5123 65.1397 60.8968 59.4381L60.7125 58.7573L61.3077 59.1403C66.2961 62.3031 69.0313 66.1892 69.2438 70.3874C69.3289 72.2738 68.9037 74.2026 67.9967 76.1457C76.2446 92.6973 89.0557 107.405 103.397 117.376C113.842 113.305 125.363 117.886 135.312 130.495L135.723 131.006V130.992ZM103.95 117.73C113.743 124.439 124.244 128.935 134.49 130.297C124.91 118.44 113.941 114.043 103.95 117.73ZM60.1315 85.2229C65.2474 103.065 81.814 119.035 97.176 120.936C99.0041 119.517 100.903 118.397 102.83 117.589C88.6305 107.646 75.9612 93.0803 67.7133 76.713C66.2253 79.5638 63.6744 82.4288 60.1315 85.2087V85.2229ZM61.6479 59.9629C63.1926 65.2532 65.2333 70.4583 67.7133 75.4933C68.4644 73.763 68.8187 72.0468 68.7336 70.3732C68.5494 66.5438 66.1119 62.9413 61.6479 59.9487V59.9629Z" fill="#01FFFF"/>
  <path d="M109.888 116.497C92.3435 114.397 73.3819 96.1297 67.6425 75.7771L68.1668 75.6353C73.8638 95.8035 92.6128 113.901 109.959 115.972L109.902 116.511L109.888 116.497Z" fill="#01FFFF"/>
  <path d="M122.883 119.929C100.053 117.206 75.4084 93.4349 67.9258 66.9552L68.4501 66.8134C75.876 93.1087 100.322 116.695 122.954 119.404L122.897 119.943L122.883 119.929Z" fill="#01FFFF"/>
  <path d="M104.248 118.51C103.241 113.873 101.116 110.837 98.083 109.731C94.0299 108.256 88.4463 110.171 81.9132 115.248L81.5873 114.823C88.2621 109.618 94.0441 107.689 98.2672 109.22C101.47 110.383 103.723 113.56 104.772 118.383L104.248 118.496V118.51Z" fill="#01FFFF"/>
  <path d="M59.6637 85.5775L59.5503 85.1946C56.7869 75.3799 57.9064 66.5723 62.6397 61.0267C62.6964 60.9558 62.7673 60.8848 62.824 60.8139C62.2713 60.3884 61.6619 59.9771 61.0383 59.5658L60.9533 59.5091L60.925 59.4098C55.4831 40.1067 57.6797 22.8034 66.9762 11.925C74.2746 3.37264 85.5268 -0.47096 98.6355 1.10336L98.8765 1.13172V1.37283C98.2387 26.3208 90.7703 46.7444 78.9229 55.9775L78.8378 56.0484H78.7245C72.5457 55.2967 67.2171 56.9703 63.6034 60.7572C67.1321 63.5938 69.0736 66.8701 69.2437 70.3733C69.4846 75.2523 66.2677 80.4291 59.9613 85.3506L59.6495 85.5917L59.6637 85.5775ZM63.2491 61.1401C63.1782 61.2111 63.1216 61.2962 63.0507 61.3671C58.5016 66.6999 57.3821 75.1672 59.9613 84.6556C65.9134 79.9327 68.9319 74.997 68.7193 70.3875C68.5635 67.0403 66.6786 63.8917 63.2491 61.1543V61.1401ZM61.4068 59.1687C62.0304 59.5658 62.6256 59.9913 63.1924 60.4168C66.9054 56.5023 72.3614 54.7578 78.682 55.4811C90.331 46.3331 97.6577 26.2215 98.3379 1.59976C85.5127 0.124728 74.5155 3.9116 67.373 12.2796C58.2182 23.002 56.0499 40.0925 61.4068 59.1687Z" fill="#01FFFF"/>
  <path d="M67.6423 75.7771C64.5387 64.771 65.8 54.8854 71.1002 48.6733C75.2808 43.7801 81.7147 41.5817 89.2115 42.4753L89.1548 43.0142C81.8564 42.1349 75.5784 44.2765 71.5111 49.0278C66.3244 55.0982 65.1056 64.7994 68.1667 75.6352L67.6423 75.7771Z" fill="#01FFFF"/>
  <path d="M67.9257 66.9552C63.8868 52.6445 65.5165 39.8089 72.4181 31.7387C77.8458 25.3847 86.1929 22.5198 95.9288 23.697L95.8721 24.2359C86.3204 23.0871 78.1434 25.8812 72.8291 32.0933C66.0551 40.0216 64.4537 52.6871 68.4501 66.8134L67.9257 66.9552Z" fill="#01FFFF"/>
  <path d="M59.1677 69.2812L58.8418 68.8557C70.505 59.7644 70.7034 44.4041 59.3661 27.7816L59.8055 27.4838C71.327 44.3616 71.1002 59.9913 59.1677 69.2812Z" fill="#01FFFF"/>
  <path d="M135.723 130.992L135.071 130.921C104.276 127.233 71.001 95.1652 60.9108 59.4239C54.5903 37.0573 58.5442 17.6832 71.4687 7.61328L71.7663 7.38635L71.8796 7.74093C79.1213 29.2566 77.4207 47.496 67.4298 57.339C67.203 59.5941 67.5715 63.6646 68.8469 68.0046C69.4138 69.9477 70.3208 72.4723 70.9868 74.1884C71.3411 75.0962 71.8513 76.2166 72.3048 77.2094C72.4607 77.5498 72.6165 77.876 72.7583 78.1881C73.7503 80.3722 74.7565 82.0884 76.783 85.5207C76.7972 85.5491 78.6678 88.6835 81.6864 92.6122C82.8343 94.1014 84.1239 95.7892 87.2133 99.1222C89.3107 101.377 92.0741 103.944 93.0378 104.753C96.0422 107.277 97.5444 108.54 101.484 111.079C102.349 111.646 103.397 112.256 104.12 112.624C105.792 113.485 107.29 114.194 108.612 114.752C109.463 115.106 111.234 115.759 113.388 116.071C120.998 116.979 128.566 121.957 135.283 130.453L135.694 130.963L135.723 130.992ZM71.5112 8.27988C58.9977 18.2789 55.228 37.3126 61.4352 59.2821C71.3978 94.5695 104.063 126.269 134.476 130.311C127.957 122.241 120.658 117.518 113.346 116.638C111.121 116.312 109.307 115.645 108.428 115.277C107.087 114.719 105.575 114.005 103.893 113.135C102.986 112.667 101.881 111.986 101.201 111.561C97.2468 109.008 95.7304 107.731 92.7118 105.193C91.7482 104.384 88.9564 101.789 86.8448 99.5193C83.7412 96.1721 82.4375 94.4702 81.2896 92.9668C78.2285 88.9813 76.3578 85.8469 76.3437 85.8185C74.303 82.3721 73.2826 80.6417 72.2906 78.4292C72.1489 78.1313 72.0072 77.7909 71.8371 77.4505C71.3694 76.4577 70.8593 75.3231 70.505 74.4012C69.8389 72.6709 68.9319 70.1179 68.3509 68.1748C67.1605 64.1469 66.7495 60.3033 66.8629 57.9063C66.3527 58.3744 65.8142 58.8282 65.2615 59.2679L64.9214 58.8424C65.4599 58.3885 65.8 58.1049 66.2252 57.5943C66.7779 56.9135 67.0046 56.4455 67.0896 56.2185L67.5998 56.3887C67.5998 56.3887 67.5998 56.4171 67.5998 56.4313C76.9105 46.6734 78.4127 29.0438 71.5112 8.27988Z" fill="#01FFFF"/>
  <path d="M3.27509 104.625L3.2184 104.398C-2.23766 85.0952 -0.0410635 67.7919 9.25549 56.9135C16.568 48.3611 27.8203 44.5033 40.929 46.0776H41.0424L41.1132 46.1769C48.0148 54.9278 55.6674 59.7501 63.1784 60.445C66.9055 56.488 72.4182 54.7293 78.8096 55.4952L79.4615 55.5661L78.9513 55.9632C74.0621 59.7784 68.7761 61.4237 63.3909 60.9982C63.2776 61.1116 63.1784 61.2393 63.065 61.3669C58.4451 66.7707 57.368 75.394 60.089 85.0384L60.1456 85.2086L60.0039 85.3221C48.1707 94.5411 27.055 101.746 3.53018 104.583L3.30343 104.611L3.27509 104.625ZM35.317 46.2762C24.7734 46.2762 15.8028 50.0914 9.68064 57.268C0.5258 67.9621 -1.65662 84.9959 3.65772 104.03C26.9133 101.193 47.7455 94.1014 59.4937 85.0242C56.787 75.2805 57.9207 66.5438 62.6257 61.0266C62.654 60.9982 62.6682 60.9698 62.6965 60.9415C55.2139 60.1047 47.618 55.2541 40.7447 46.5882C38.8883 46.3755 37.0743 46.262 35.3029 46.262L35.317 46.2762ZM63.8728 60.5018C68.7478 60.7854 73.5803 59.2962 78.0585 55.9632C72.3049 55.4243 67.3306 57.0269 63.8728 60.5018Z" fill="#01FFFF"/>
  <path d="M48.7232 64.2602C38.7606 64.2602 27.1116 60.1188 15.1366 52.0202L15.4342 51.5806C35.161 64.9126 53.9242 67.4372 65.6299 58.3175L65.9559 58.743C61.2084 62.4448 55.3414 64.2602 48.7232 64.2602Z" fill="#01FFFF"/>
  <path d="M115.273 118.241L114.678 117.858C109.69 114.695 106.954 110.809 106.742 106.611C106.657 104.725 107.082 102.796 107.989 100.853C99.7411 84.301 86.93 69.5932 72.5883 59.6226C62.1439 63.7073 50.6224 59.112 40.6739 46.5033L40.2629 45.9927L40.9148 46.0636C51.5435 47.3401 62.4698 51.9921 72.645 59.0127C74.6715 58.1901 76.6556 57.0413 78.5829 55.5379L78.6679 55.4669H78.7813C94.4267 57.3533 111.319 73.6354 116.435 91.7755L116.492 91.9457L116.35 92.0592C112.651 94.9525 110.03 97.9168 108.584 100.838C111.263 106.242 113.459 111.844 115.075 117.546L115.259 118.227L115.273 118.241ZM108.315 101.477C107.564 103.207 107.209 104.923 107.295 106.597C107.479 110.426 109.916 114.029 114.38 117.021C112.836 111.731 110.795 106.526 108.329 101.491L108.315 101.477ZM73.1977 59.3815C87.3976 69.3379 100.067 83.8897 108.315 100.257C109.803 97.4062 112.354 94.5412 115.897 91.7613C110.781 73.9191 94.2142 57.949 78.8522 56.0484C77.024 57.4668 75.125 58.5872 73.1977 59.3956V59.3815ZM41.5242 46.6735C51.1042 58.5447 62.0872 62.9272 72.064 59.2396C62.2714 52.5311 51.7703 48.035 41.5242 46.6735Z" fill="#01FFFF"/>
  <path d="M80.7937 68.2599C79.7025 68.2599 78.6821 68.0897 77.7468 67.7493C74.544 66.5863 72.2908 63.4093 71.2421 58.5871L71.7664 58.4736C72.7726 63.1115 74.9125 66.1467 77.9311 67.2529C81.9841 68.728 87.5819 66.8133 94.1008 61.7357L94.4268 62.1612C89.24 66.2034 84.5917 68.2741 80.7937 68.2741V68.2599Z" fill="#01FFFF"/>
  <path d="M95.4329 85.6626C95.277 85.6626 95.2062 85.5917 95.1495 85.5066C94.9227 85.1804 94.611 84.7265 107.507 74.6708L107.833 75.0963C99.3018 81.7481 96.7084 84.1025 95.9289 84.9393C96.2832 84.7691 96.8643 84.4713 97.8704 83.8756L98.1397 84.3436C96.4249 85.3648 95.7447 85.6626 95.4188 85.6626H95.4329Z" fill="#01FFFF"/>
  <path d="M82.9902 176.235C81.1621 176.235 79.2772 176.122 77.3641 175.895L77.1232 175.867V175.625C77.7609 150.678 85.2293 130.254 97.0768 121.021L97.1618 120.95H97.2752C103.454 121.702 108.782 120.028 112.396 116.241C108.868 113.405 106.926 110.128 106.756 106.625C106.515 101.746 109.732 96.5692 116.038 91.6477L116.35 91.4066L116.463 91.7896C119.241 101.604 118.107 110.412 113.374 115.957C113.317 116.028 113.247 116.099 113.19 116.17C113.743 116.596 114.352 117.007 114.975 117.418L115.06 117.475L115.089 117.574C120.531 136.877 118.334 154.181 109.038 165.059C102.802 172.363 93.6897 176.235 82.9902 176.235ZM77.6759 175.384C90.5011 176.845 101.498 173.073 108.641 164.705C117.796 153.982 119.964 136.892 114.607 117.815C113.983 117.418 113.388 116.993 112.821 116.567C109.108 120.482 103.652 122.226 97.3318 121.503C85.6828 130.651 78.3561 150.763 77.6759 175.384ZM116.052 92.3285C110.1 97.0515 107.082 101.987 107.294 106.597C107.45 109.944 109.335 113.092 112.765 115.83C112.836 115.759 112.906 115.674 112.963 115.603C117.512 110.27 118.632 101.803 116.052 92.3143V92.3285Z" fill="#01FFFF"/>
  <path d="M116.208 149.514C104.687 132.637 104.914 117.007 116.846 107.717L117.172 108.143C105.509 117.234 105.31 132.594 116.648 149.217L116.208 149.514Z" fill="#01FFFF"/>
  <path d="M59.6637 85.5775L59.5503 85.1946C56.7869 75.3799 57.9064 66.5723 62.6397 61.0267C62.6964 60.9558 62.7673 60.8848 62.824 60.8139C62.2713 60.3884 61.6619 59.9771 61.0383 59.5658L60.9533 59.5091L60.925 59.4098C55.4831 40.1067 57.6797 22.8034 66.9762 11.925C74.2746 3.37264 85.5268 -0.47096 98.6355 1.10336L98.8765 1.13172V1.37283C98.2387 26.3208 90.7703 46.7444 78.9229 55.9775L78.8378 56.0484H78.7245C72.5457 55.2967 67.2171 56.9703 63.6034 60.7572C67.1321 63.5938 69.0736 66.8701 69.2437 70.3733C69.4846 75.2523 66.2677 80.4291 59.9613 85.3506L59.6495 85.5917L59.6637 85.5775ZM63.2491 61.1401C63.1782 61.2111 63.1216 61.2962 63.0507 61.3671C58.5016 66.6999 57.3821 75.1672 59.9613 84.6556C65.9134 79.9327 68.9319 74.997 68.7193 70.3875C68.5635 67.0403 66.6786 63.8917 63.2491 61.1543V61.1401ZM61.4068 59.1687C62.0304 59.5658 62.6256 59.9913 63.1924 60.4168C66.9054 56.5023 72.3614 54.7578 78.682 55.4811C90.331 46.3331 97.6577 26.2215 98.3379 1.59976C85.5127 0.124728 74.5155 3.9116 67.373 12.2796C58.2182 23.002 56.0499 40.0925 61.4068 59.1687Z" fill="#01FFFF"/>
  <path d="M67.6423 75.7771C64.5387 64.771 65.8 54.8854 71.1002 48.6733C75.2808 43.7801 81.7147 41.5817 89.2115 42.4753L89.1548 43.0142C81.8564 42.1349 75.5784 44.2765 71.5111 49.0278C66.3244 55.0982 65.1056 64.7994 68.1667 75.6352L67.6423 75.7771Z" fill="#01FFFF"/>
  <path d="M67.9257 66.9552C63.8868 52.6445 65.5165 39.8089 72.4181 31.7387C77.8458 25.3847 86.1929 22.5198 95.9288 23.697L95.8721 24.2359C86.3204 23.0871 78.1434 25.8812 72.8291 32.0933C66.0551 40.0216 64.4537 52.6871 68.4501 66.8134L67.9257 66.9552Z" fill="#01FFFF"/>
  <path d="M65.9558 58.7432L65.6299 58.3177C77.3356 49.198 79.9857 29.98 72.744 6.90418L73.2542 6.74817C80.5667 30.0367 77.8458 49.4817 65.9558 58.7432Z" fill="#01FFFF"/>
  <path d="M116.052 92.3286L115.939 91.9457C110.866 73.9899 94.1857 57.8922 78.7387 56.0342L78.0868 55.9633L78.597 55.5662C90.331 46.4181 97.7144 26.1647 98.338 1.37279V1.07495L98.6356 1.10332C129.43 4.79091 162.705 36.8587 172.795 72.6L172.881 72.8978L172.569 72.9404C149.129 75.7628 128.112 82.9252 116.364 92.0875L116.052 92.3286ZM79.4331 55.5804C94.7809 57.7929 111.177 73.6637 116.35 91.4067C128.183 82.3437 149.001 75.2664 172.2 72.4298C162.096 37.114 129.303 5.48588 98.8765 1.67064C98.1963 26.1364 90.9546 46.2054 79.4331 55.5804Z" fill="#01FFFF"/>
  <path d="M130.947 83.3506C125.25 63.1823 106.501 45.0848 89.1548 43.0141L89.2115 42.4751C106.756 44.5742 125.717 62.8419 131.457 83.1946L130.933 83.3364L130.947 83.3506Z" fill="#01FFFF"/>
  <path d="M150.362 76.8121C142.936 50.5168 118.49 26.9304 95.8579 24.2214L95.9146 23.6825C118.745 26.4056 143.389 50.1764 150.872 76.6561L150.348 76.798L150.362 76.8121Z" fill="#01FFFF"/>
  <path d="M94.4125 62.1471L94.0865 61.7216C105.849 52.5593 118.887 34.5043 128.963 13.4283L129.445 13.6553C119.34 34.788 106.246 52.9139 94.4125 62.1329V62.1471Z" fill="#01FFFF"/>
  <path d="M140.697 131.261C138.869 131.261 136.984 131.148 135.071 130.921H134.957L134.887 130.821C127.985 122.085 120.332 117.248 112.821 116.553C109.094 120.51 103.581 122.255 97.1901 121.503L96.5382 121.432L97.0484 121.035C101.938 117.22 107.238 115.575 112.609 116C112.722 115.887 112.821 115.759 112.935 115.631C117.555 110.228 118.632 101.604 115.911 91.9598L115.854 91.7896L115.996 91.6761C127.829 82.4572 148.945 75.2522 172.47 72.4156L172.696 72.3872L172.753 72.6141C178.195 91.9172 175.998 109.221 166.702 120.099C160.466 127.403 151.354 131.275 140.654 131.275L140.697 131.261ZM135.241 130.396C148.123 131.913 159.162 128.127 166.333 119.73C175.474 109.036 177.656 92.0023 172.328 72.9687C149.072 75.8053 128.24 82.8968 116.492 91.974C119.199 101.718 118.065 110.454 113.36 115.972C113.332 116 113.317 116.028 113.289 116.043C120.772 116.879 128.368 121.73 135.241 130.396ZM97.9412 121.035C103.695 121.56 108.669 119.971 112.127 116.496C107.238 116.199 102.419 117.702 97.9412 121.035Z" fill="#01FFFF"/>
  <path d="M113.105 116.695C112.056 116.695 110.979 116.624 109.888 116.496L109.945 115.957C117.257 116.837 123.521 114.695 127.574 109.944C132.761 103.873 133.98 94.1721 130.933 83.3363L131.457 83.1945C134.561 94.2005 133.299 104.086 127.999 110.298C124.428 114.482 119.213 116.695 113.105 116.695Z" fill="#01FFFF"/>
  <path d="M127.05 120.184C125.689 120.184 124.3 120.099 122.869 119.929L122.926 119.39C132.477 120.539 140.654 117.744 145.969 111.532C152.743 103.604 154.344 90.9385 150.348 76.8122L150.872 76.6704C154.911 90.9811 153.281 103.817 146.38 111.887C141.746 117.319 134.986 120.184 127.05 120.184Z" fill="#01FFFF"/>
  <path d="M117.172 108.142L116.846 107.717C128.708 98.4697 150.149 97.1223 174.227 104.129L174.071 104.653C150.163 97.7038 128.906 99.0086 117.172 108.157V108.142Z" fill="#01FFFF"/>
  <path d="M162.082 124.51L161.926 124.411C141.774 111.39 122.77 109.05 111.064 118.156L110.738 117.73C117.144 112.738 119.099 103.093 115.939 91.9314C110.866 73.9756 94.1857 57.8779 78.7387 56.0199C73.4527 55.3817 68.7902 56.5021 65.2757 59.2395L64.9497 58.814C76.6413 49.6943 79.0646 30.6606 71.3978 7.89687L71.3411 7.71249L71.497 7.59902C78.5828 2.08182 87.9785 -0.187464 98.6356 1.10319C129.43 4.79078 162.705 36.8586 172.795 72.5999C179.116 94.9665 175.162 114.326 162.238 124.411L162.082 124.524V124.51ZM128.382 112.128C138.344 112.128 150.008 116.085 162.053 123.843C174.68 113.873 178.507 94.7822 172.271 72.7275C162.238 37.1848 129.175 5.28719 98.5789 1.62797C88.1344 0.379858 78.9371 2.54986 71.9646 7.92523C79.0788 29.1998 77.4349 47.2548 67.6848 57.1262C70.8593 55.5661 74.6431 55.0129 78.8095 55.5093C94.4549 57.3815 111.347 73.6636 116.463 91.8037C119.255 101.703 118.093 110.44 113.417 115.929C117.725 113.39 122.798 112.142 128.396 112.142L128.382 112.128Z" fill="#01FFFF"/>
  <path d="M82.9902 176.235C81.1621 176.235 79.2772 176.122 77.3641 175.895L77.1232 175.867V175.625C77.7609 150.678 85.2293 130.254 97.0768 121.021L97.1618 120.95H97.2752C103.454 121.702 108.782 120.028 112.396 116.241C108.868 113.405 106.926 110.128 106.756 106.625C106.515 101.746 109.732 96.5692 116.038 91.6477L116.35 91.4066L116.463 91.7896C119.241 101.604 118.107 110.412 113.374 115.957C113.317 116.028 113.247 116.099 113.19 116.17C113.743 116.596 114.352 117.007 114.975 117.418L115.06 117.475L115.089 117.574C120.531 136.877 118.334 154.181 109.038 165.059C102.802 172.363 93.6897 176.235 82.9902 176.235ZM77.6759 175.384C90.5011 176.845 101.498 173.073 108.641 164.705C117.796 153.982 119.964 136.892 114.607 117.815C113.983 117.418 113.388 116.993 112.821 116.567C109.108 120.482 103.652 122.226 97.3318 121.503C85.6828 130.651 78.3561 150.763 77.6759 175.384ZM116.052 92.3285C110.1 97.0515 107.082 101.987 107.294 106.597C107.45 109.944 109.335 113.092 112.765 115.83C112.836 115.759 112.906 115.674 112.963 115.603C117.512 110.27 118.632 101.803 116.052 92.3143V92.3285Z" fill="#01FFFF"/>
  <path d="M102.745 170.236C95.4186 146.947 98.1537 127.502 110.044 118.241L110.37 118.666C98.6639 127.786 96.0138 147.004 103.255 170.08L102.745 170.236Z" fill="#01FFFF"/>
  <path d="M140.697 131.261C138.869 131.261 136.984 131.148 135.071 130.921H134.957L134.887 130.821C127.985 122.085 120.332 117.248 112.821 116.553C109.094 120.51 103.581 122.255 97.1901 121.503L96.5382 121.432L97.0484 121.035C101.938 117.22 107.238 115.575 112.609 116C112.722 115.887 112.821 115.759 112.935 115.631C117.555 110.228 118.632 101.604 115.911 91.9599L115.854 91.7897L115.996 91.6763C127.829 82.4573 148.945 75.2523 172.47 72.4157L172.696 72.3873L172.753 72.6143C178.195 91.9174 175.998 109.221 166.702 120.099C160.466 127.403 151.354 131.275 140.654 131.275L140.697 131.261ZM135.241 130.396C148.123 131.914 159.162 128.127 166.333 119.73C175.474 109.036 177.656 92.0025 172.328 72.9688C149.072 75.8054 128.24 82.897 116.492 91.9741C119.199 101.718 118.065 110.455 113.36 115.972C113.332 116 113.317 116.029 113.289 116.043C120.772 116.88 128.368 121.73 135.241 130.396ZM97.9412 121.035C103.695 121.56 108.669 119.971 112.127 116.497C107.238 116.199 102.419 117.702 97.9412 121.035Z" fill="#01FFFF"/>
  <path d="M113.105 116.695C112.056 116.695 110.979 116.624 109.888 116.496L109.945 115.957C117.257 116.837 123.521 114.695 127.574 109.944C132.761 103.873 133.98 94.1722 130.933 83.3364L131.457 83.1946C134.561 94.2006 133.299 104.086 127.999 110.298C124.428 114.482 119.213 116.695 113.105 116.695Z" fill="#01FFFF"/>
  <path d="M160.565 125.403C140.839 112.071 122.075 109.547 110.37 118.667L110.044 118.241C121.934 108.965 140.938 111.476 160.863 124.95L160.565 125.389V125.403Z" fill="#01FFFF"/>
  <path d="M100.109 121.673C99.1741 121.673 98.2104 121.616 97.2184 121.503L96.5665 121.432L97.0767 121.035C102.15 117.078 107.649 115.418 113.417 116.113C113.927 116.17 114.068 116.17 114.196 116.17L114.238 116.709C113.572 116.794 112.495 117.12 111.064 118.198C108.102 120.51 104.347 121.702 100.109 121.702V121.673ZM97.9553 121.035C102.972 121.503 107.379 120.368 110.738 117.744C111.489 117.177 112.155 116.808 112.722 116.567C107.521 116.099 102.561 117.603 97.9412 121.035H97.9553Z" fill="#01FFFF"/>
  <path d="M82.9902 176.235C81.1621 176.235 79.2772 176.122 77.3641 175.895L77.1232 175.867V175.625C77.7609 150.678 85.2293 130.254 97.0768 121.021L97.1618 120.95H97.2752C103.454 121.702 108.782 120.028 112.396 116.241C108.868 113.405 106.926 110.128 106.756 106.625C106.515 101.746 109.732 96.5692 116.038 91.6477L116.35 91.4066L116.463 91.7896C119.241 101.604 118.107 110.412 113.374 115.957C113.317 116.028 113.247 116.099 113.19 116.17C113.743 116.596 114.352 117.007 114.975 117.418L115.06 117.475L115.089 117.574C120.531 136.877 118.334 154.181 109.038 165.059C102.802 172.363 93.6897 176.235 82.9902 176.235ZM77.6759 175.384C90.5011 176.845 101.498 173.073 108.641 164.705C117.796 153.982 119.964 136.892 114.607 117.815C113.983 117.418 113.388 116.993 112.821 116.567C109.108 120.482 103.652 122.226 97.3318 121.503C85.6828 130.651 78.3561 150.763 77.6759 175.384ZM116.052 92.3285C110.1 97.0515 107.082 101.987 107.294 106.597C107.45 109.944 109.335 113.092 112.765 115.83C112.836 115.759 112.906 115.674 112.963 115.603C117.512 110.27 118.632 101.803 116.052 92.3143V92.3285Z" fill="#01FFFF"/>
  <path d="M102.745 170.236C95.4186 146.947 98.1537 127.502 110.044 118.241L110.37 118.666C98.6639 127.786 96.0138 147.004 103.255 170.08L102.745 170.236Z" fill="#01FFFF"/>
  <path d="M140.697 131.261C138.869 131.261 136.984 131.148 135.071 130.921H134.957L134.887 130.821C127.985 122.085 120.332 117.248 112.821 116.553C109.094 120.51 103.581 122.255 97.1901 121.503L96.5382 121.432L97.0484 121.035C101.938 117.22 107.238 115.575 112.609 116C112.722 115.887 112.821 115.759 112.935 115.631C117.555 110.228 118.632 101.604 115.911 91.9599L115.854 91.7897L115.996 91.6763C127.829 82.4573 148.945 75.2523 172.47 72.4157L172.696 72.3873L172.753 72.6143C178.195 91.9174 175.998 109.221 166.702 120.099C160.466 127.403 151.354 131.275 140.654 131.275L140.697 131.261ZM135.241 130.396C148.123 131.914 159.162 128.127 166.333 119.73C175.474 109.036 177.656 92.0025 172.328 72.9688C149.072 75.8054 128.24 82.897 116.492 91.9741C119.199 101.718 118.065 110.455 113.36 115.972C113.332 116 113.317 116.029 113.289 116.043C120.772 116.88 128.368 121.73 135.241 130.396ZM97.9412 121.035C103.695 121.56 108.669 119.971 112.127 116.497C107.238 116.199 102.419 117.702 97.9412 121.035Z" fill="#01FFFF"/>
  <path d="M113.105 116.695C112.056 116.695 110.979 116.624 109.888 116.496L109.945 115.957C117.257 116.837 123.521 114.695 127.574 109.944C132.761 103.873 133.98 94.1722 130.933 83.3364L131.457 83.1946C134.561 94.2006 133.299 104.086 127.999 110.298C124.428 114.482 119.213 116.695 113.105 116.695Z" fill="#01FFFF"/>
  <path d="M127.05 120.184C125.689 120.184 124.3 120.099 122.869 119.929L122.926 119.39C132.477 120.539 140.654 117.744 145.969 111.532C152.743 103.604 154.344 90.9385 150.348 76.8122L150.872 76.6704C154.911 90.9811 153.281 103.817 146.38 111.887C141.746 117.319 134.986 120.184 127.05 120.184Z" fill="#01FFFF"/>
  <path d="M160.565 125.403C140.839 112.071 122.075 109.547 110.37 118.667L110.044 118.241C121.934 108.965 140.938 111.476 160.863 124.95L160.565 125.389V125.403Z" fill="#01FFFF"/>
  <path d="M140.754 131.261C138.911 131.261 137.012 131.147 135.071 130.921H134.957L134.887 130.821C128.467 122.68 121.253 117.83 114.012 116.723C112.623 117.007 111.489 117.844 111.05 118.17L110.724 117.745C122.614 108.483 141.859 110.809 162.209 123.957L162.521 124.155L162.224 124.382C156.413 128.921 149.058 131.247 140.739 131.247L140.754 131.261ZM135.241 130.396C145.558 131.616 154.67 129.474 161.6 124.212C143.234 112.426 125.817 109.547 114.083 116.156C114.125 116.156 114.139 116.156 114.168 116.156V116.213C121.509 117.347 128.764 122.241 135.241 130.41V130.396Z" fill="#01FFFF"/>
  <path d="M172.285 72.756C168.572 63.2818 154.174 56.3888 132.789 53.8217L132.605 53.7933L132.562 53.6231C125.533 28.7461 113.119 9.76916 98.4797 1.58555L97.2893 0.918945L98.6356 1.07496C129.43 4.76255 162.705 36.8304 172.795 72.5716L172.285 72.7418V72.756ZM133.03 53.3111C152.488 55.6655 166.192 61.6223 171.421 69.8769C160.636 36.0078 129.317 6.09575 99.911 1.81248C114.125 10.379 126.143 29.0439 133.03 53.3253V53.3111Z" fill="#01FFFF"/>
  <path d="M132.973 53.7791L132.676 53.3394C154.911 37.965 155.577 38.5465 155.889 38.7734C155.931 38.816 156.087 38.9578 155.988 39.2273L155.492 39.0287C155.492 39.0287 155.492 39.0997 155.535 39.1564C155.577 39.2131 155.634 39.2273 155.648 39.2273C155.265 39.2273 152.473 40.3194 133.016 53.7791H132.973Z" fill="#01FFFF"/>
  <path d="M168.856 62.7994C168.105 61.0265 167.141 58.8565 166.277 57.0127C160.027 44.1062 150.858 31.9939 140.073 22.3494C137.82 20.4347 134.929 18.0803 132.591 16.2507L132.917 15.8252C135.496 17.7257 138.004 19.7681 140.428 21.9381C140.754 22.2076 141.051 22.477 141.349 22.7323C142.369 23.6117 143.588 24.8172 144.665 25.8668C145.019 26.2214 145.359 26.5618 145.685 26.8738C148.208 29.3274 152.062 33.7809 154.174 36.5041C155.761 38.5464 157.844 41.4823 160.523 45.4819C161.274 46.6166 162.138 48.0916 162.89 49.3964L163.386 50.2474C164.236 51.6941 165.341 53.779 166.135 55.4242C166.333 55.8497 166.56 56.3036 166.787 56.7858C167.722 58.7147 168.587 60.6436 169.38 62.6008L168.884 62.8136L168.856 62.7994Z" fill="#01FFFF"/>
  <path d="M135.312 130.949L135.071 130.921C104.276 127.233 71.001 95.1653 60.9108 59.4241L60.84 59.1546L61.1092 59.0837C85.1726 52.8289 111.333 50.7157 132.846 53.297L133.03 53.3254L133.073 53.4955C140.13 78.4861 140.966 106.639 135.354 130.708L135.297 130.949H135.312ZM61.506 59.5517C71.6104 94.8958 104.432 126.581 134.886 130.368C140.399 106.483 139.563 78.6137 132.605 53.8218C111.262 51.2972 85.371 53.3821 61.506 59.5517Z" fill="#01FFFF"/>
  <path d="M138.5 106.427C116.194 103.76 92.1024 80.5425 84.8041 54.6584L85.3284 54.5166C92.5843 80.2021 116.463 103.25 138.571 105.888L138.514 106.427H138.5Z" fill="#01FFFF"/>
  <path d="M137.834 80.2022C125.944 78.7839 113.091 66.4021 109.193 52.602L109.718 52.4602C113.558 66.0617 126.199 78.2733 137.905 79.6633L137.848 80.2022H137.834Z" fill="#01FFFF"/>
  <path d="M104.744 118.61L104.29 118.326C117.498 97.3493 127.801 73.7345 132.562 53.5095L133.087 53.6372C128.311 73.9189 117.98 97.6046 104.744 118.61Z" fill="#01FFFF"/>
  <path d="M60.9959 59.6791L60.9251 59.4238C55.4832 40.1207 57.6798 22.8174 66.9764 11.939C74.2747 3.37248 85.527 -0.471127 98.6357 1.10319L98.7349 1.13156C113.487 9.38608 126.015 28.4764 133.073 53.4953L133.186 53.8783L132.789 53.8357C111.333 51.2686 85.2577 53.3819 61.251 59.6082L60.9959 59.6791ZM93.0237 1.28757C82.4801 1.28757 73.5095 5.10281 67.3732 12.2794C58.2467 22.9734 56.0501 39.9931 61.3644 59.0125C85.2152 52.8429 111.078 50.7438 132.449 53.24C125.42 28.5757 113.062 9.76902 98.5223 1.61378C96.6516 1.38685 94.8093 1.28757 93.0095 1.28757H93.0237Z" fill="#01FFFF"/>
  <path d="M84.8042 54.6584C80.8503 40.674 82.4517 28.1362 89.1973 20.2504C94.4975 14.0382 102.66 11.2442 112.169 12.3788L112.113 12.9178C102.788 11.8115 94.7951 14.5346 89.6083 20.5908C82.9902 28.3347 81.4313 40.7023 85.3285 54.5024L84.8042 54.6442V54.6584Z" fill="#01FFFF"/>
  <path d="M109.193 52.6161C107.082 45.1417 107.946 38.4331 111.546 34.2207C114.394 30.8877 118.759 29.3843 123.861 29.9942L123.804 30.5331C118.887 29.9375 114.678 31.3841 111.957 34.5753C108.471 38.66 107.649 45.1842 109.704 52.4743L109.179 52.6161H109.193Z" fill="#01FFFF"/>
  <path d="M132.676 53.7932C110.596 39.0003 83.9539 29.5686 59.5504 27.9092L59.5929 27.3702C84.0814 29.0438 110.823 38.5039 132.973 53.3536L132.676 53.8074V53.7932Z" fill="#01FFFF"/>
  <path d="M132.605 53.7224C115.712 30.9303 93.959 13.9248 72.9142 7.08859L73.0842 6.578C94.2282 13.4568 116.081 30.519 133.044 53.4104L132.619 53.7366L132.605 53.7224Z" fill="#01FFFF"/>
  <path d="M172.285 72.756C168.572 63.2818 154.174 56.3888 132.789 53.8217L132.605 53.7933L132.562 53.6231C125.533 28.7461 113.119 9.76916 98.4797 1.58555L97.2893 0.918945L98.6356 1.07496C129.43 4.76255 162.705 36.8304 172.795 72.5716L172.285 72.7418V72.756ZM133.03 53.3111C152.488 55.6655 166.192 61.6223 171.421 69.8769C160.636 36.0078 129.317 6.09575 99.911 1.81248C114.125 10.379 126.143 29.0439 133.03 53.3253V53.3111Z" fill="#01FFFF"/>
  <path d="M165.341 64.2886C158.085 38.6031 134.206 15.5557 112.099 12.9176L112.155 12.3787C134.461 15.0451 158.553 38.2627 165.851 64.1467L165.327 64.2886H165.341Z" fill="#01FFFF"/>
  <path d="M151.992 57.7362C148.151 44.1346 135.51 31.923 123.804 30.5331L123.861 29.9941C135.765 31.4124 148.605 43.7942 152.502 57.5943L151.977 57.7362H151.992Z" fill="#01FFFF"/>
  <path d="M133.087 53.6231L132.562 53.4955C137.296 33.3556 136.02 18.8747 129.048 13.7546L129.36 13.3149C136.516 18.5627 137.877 33.2421 133.073 53.609L133.087 53.6231Z" fill="#01FFFF"/>
  <path d="M140.697 131.261C138.869 131.261 136.984 131.147 135.071 130.921L134.773 130.878L134.844 130.58C140.428 106.582 139.591 78.5426 132.562 53.6372L132.449 53.2543L132.846 53.2968C154.443 55.8781 168.997 62.8987 172.781 72.5716V72.5999C178.237 91.903 176.041 109.206 166.744 120.085C160.509 127.389 151.396 131.261 140.697 131.261ZM135.425 130.424C148.236 131.885 159.205 128.084 166.333 119.73C175.502 108.994 177.67 91.8747 172.271 72.7559C168.572 63.3526 154.344 56.4738 133.172 53.8925C140.102 78.6845 140.909 106.54 135.411 130.424H135.425Z" fill="#01FFFF"/>
  <path d="M142.582 106.667C141.25 106.667 139.889 106.582 138.5 106.426L138.557 105.887C147.896 107.008 155.875 104.271 161.061 98.2144C167.68 90.4704 169.238 78.1028 165.341 64.3027L165.866 64.1609C169.819 78.1454 168.218 90.6832 161.472 98.5689C156.952 103.873 150.334 106.682 142.582 106.682V106.667Z" fill="#01FFFF"/>
  <path d="M140.017 80.3439C139.308 80.3439 138.585 80.3014 137.834 80.2163L137.891 79.6773C142.808 80.2589 147.017 78.8264 149.738 75.6352C153.224 71.5505 154.046 65.0263 151.992 57.7362L152.516 57.5944C154.627 65.0688 153.763 71.7774 150.163 75.9898C147.74 78.8405 144.183 80.3439 140.031 80.3439H140.017Z" fill="#01FFFF"/>
  <path d="M173.887 104.441C169.749 87.0241 154.727 68.5578 132.676 53.7791L132.973 53.3252C155.138 68.1748 170.245 86.7546 174.411 104.299L173.887 104.427V104.441Z" fill="#01FFFF"/>
  <path d="M160.452 125.191C159.658 102.569 149.512 76.5145 132.605 53.7223L133.03 53.3961C149.993 76.2733 160.183 102.441 160.976 125.162H160.438L160.452 125.191Z" fill="#01FFFF"/>
  <path d="M140.697 131.261C138.94 131.261 137.14 131.162 135.312 130.949L134.773 130.878C104.063 127.02 70.9728 95.0376 60.9109 59.424C55.469 40.1208 57.6656 22.8175 66.9622 11.9392C74.2747 3.3726 85.527 -0.471005 98.6357 1.10331C109.803 2.43652 121.636 7.52823 132.888 15.8253C134.49 17.0167 136.304 18.3783 137.622 19.5271C137.976 19.8249 138.344 20.1511 138.741 20.4915C139.762 21.3709 140.924 22.3637 141.817 23.1863C142.738 24.0373 143.871 25.1294 144.863 26.108L145.756 26.9732C149.101 30.2211 152.757 34.7597 154.132 36.4758C156.201 39.0571 157.023 40.3052 160.495 45.4962C161.26 46.645 162.139 48.1626 162.904 49.4958L163.471 50.4603C164.675 52.531 166.092 55.4243 167.07 57.4241C167.566 58.4595 168.119 59.736 168.643 60.9557C168.884 61.5372 169.125 62.0904 169.352 62.5868C170.712 65.9056 171.874 69.267 172.81 72.5858C178.252 91.8889 176.055 109.192 166.758 120.071C160.523 127.375 151.411 131.247 140.711 131.247L140.697 131.261ZM135.425 130.424C148.236 131.885 159.205 128.084 166.333 119.73C175.502 108.994 177.671 91.8606 172.271 72.7418C171.336 69.4372 170.188 66.09 168.842 62.7995C168.629 62.3031 168.388 61.75 168.147 61.1685C167.623 59.9487 167.084 58.6864 166.588 57.6511C165.625 55.6654 164.208 52.7721 163.017 50.7156L162.45 49.7511C161.685 48.4321 160.821 46.9287 160.055 45.7799C156.597 40.6031 155.776 39.3691 153.721 36.8162C152.346 35.1001 148.704 30.5757 145.388 27.3561L144.495 26.4909C143.503 25.5265 142.383 24.4202 141.462 23.5834C140.569 22.775 139.422 21.7822 138.401 20.9028C138.004 20.5624 137.622 20.2362 137.282 19.9384C135.964 18.7896 134.079 17.3713 132.577 16.265C121.409 8.02463 109.647 2.96129 98.579 1.64227C85.6403 0.0963167 74.5582 3.88319 67.3732 12.2937C58.2042 23.0303 56.0359 40.1634 61.4353 59.2821C71.4404 94.7397 104.361 126.566 134.901 130.353C140.428 106.412 139.577 78.4718 132.562 53.6373L133.087 53.4954C133.129 53.6231 133.158 53.7649 133.2 53.8926C133.2 53.8926 133.229 53.9919 133.243 54.0486C140.13 78.798 140.924 106.583 135.439 130.41L135.425 130.424Z" fill="#01FFFF"/>
</svg>