<svg xmlns="http://www.w3.org/2000/svg" width="24" height="24" viewBox="0 0 24 24" fill="none">
  <path d="M15.878 9.536L16.536 8.879C17.0017 8.41567 17.3708 7.86458 17.6221 7.25763C17.8734 6.65068 18.0019 5.99991 18 5.343V2C18 1.73478 17.8946 1.48043 17.7071 1.29289C17.5196 1.10536 17.2652 1 17 1H6.99999C6.73477 1 6.48042 1.10536 6.29288 1.29289C6.10534 1.48043 5.99999 1.73478 5.99999 2V5.343C5.99822 6.00014 6.12679 6.6511 6.37825 7.25822C6.62972 7.86534 6.99909 8.41657 7.46499 8.88L8.12199 9.535C8.68599 10.097 9.00199 10.861 8.99999 11.657V12.667C8.99848 13.3159 8.7881 13.947 8.39999 14.467L6.99999 16.334C6.35301 17.2002 6.00235 18.2518 5.99999 19.333V22C5.99999 22.2652 6.10534 22.5196 6.29288 22.7071C6.48042 22.8946 6.73477 23 6.99999 23H8.99999C8.73477 23 8.48042 22.8946 8.29288 22.7071C8.10534 22.5196 7.99999 22.2652 7.99999 22V19.333C7.99999 18.765 8.09699 18.201 8.28599 17.666C8.3551 17.471 8.48301 17.3022 8.65208 17.1829C8.82116 17.0636 9.02307 16.9997 9.22999 17H14.772C14.9787 16.9999 15.1804 17.0639 15.3493 17.1832C15.5182 17.3024 15.6459 17.4711 15.715 17.666C15.905 18.201 16.001 18.766 16.001 19.333V22C16.001 22.2652 15.8956 22.5196 15.7081 22.7071C15.5206 22.8946 15.2662 23 15.001 23H17.001C17.2662 23 17.5206 22.8946 17.7081 22.7071C17.8956 22.5196 18.001 22.2652 18.001 22V19.333C17.9988 18.2518 17.6481 17.2001 17.001 16.334L15.601 14.467C15.2127 13.9471 15.0023 13.3159 15.001 12.667V11.657C15 11.2631 15.0771 10.873 15.2278 10.5091C15.3785 10.1452 15.5998 9.81481 15.879 9.537L15.878 9.536ZM14.536 8.879L13.878 9.536C13.5996 9.81419 13.3788 10.1445 13.2281 10.5081C13.0774 10.8717 12.9999 11.2614 13 11.655V12H11V11.657C11 10.86 10.683 10.095 10.118 9.532L9.46499 8.88C8.69211 8.10163 8.19967 7.0886 8.06499 6H15.935C15.8004 7.08833 15.3079 8.10107 14.535 8.879H14.536Z" fill="#4E4E4E"/>
  <path d="M13 12V11.655C13 10.86 13.316 10.098 13.878 9.536L14.536 8.879C15.3089 8.10107 15.8014 7.08833 15.936 6H8.064C8.19867 7.0886 8.69112 8.10163 9.46399 8.88L10.118 9.532C10.683 10.095 11 10.86 11 11.657V12H13Z" fill="#7D7D7D"/>
  <path d="M19 3H5C4.73478 3 4.48043 2.89464 4.29289 2.70711C4.10536 2.51957 4 2.26522 4 2C4 1.73478 4.10536 1.48043 4.29289 1.29289C4.48043 1.10536 4.73478 1 5 1H19C19.2652 1 19.5196 1.10536 19.7071 1.29289C19.8946 1.48043 20 1.73478 20 2C20 2.26522 19.8946 2.51957 19.7071 2.70711C19.5196 2.89464 19.2652 3 19 3Z" fill="#818181"/>
  <path d="M15 23H9C8.73478 23 8.48043 22.8946 8.29289 22.7071C8.10536 22.5196 8 22.2652 8 22V19.333C8 18.765 8.097 18.201 8.286 17.666C8.35511 17.471 8.48302 17.3022 8.65209 17.1829C8.82117 17.0636 9.02308 16.9997 9.23 17H14.772C14.9787 16.9999 15.1804 17.0639 15.3493 17.1832C15.5182 17.3024 15.6459 17.4711 15.715 17.666C15.905 18.201 16.001 18.766 16.001 19.333V22C16.001 22.2652 15.8956 22.5196 15.7081 22.7071C15.5206 22.8946 15.2662 23 15.001 23H15Z" fill="#7D7D7D"/>
  <path d="M19 23H5C4.73478 23 4.48043 22.8946 4.29289 22.7071C4.10536 22.5196 4 22.2652 4 22C4 21.7348 4.10536 21.4804 4.29289 21.2929C4.48043 21.1054 4.73478 21 5 21H19C19.2652 21 19.5196 21.1054 19.7071 21.2929C19.8946 21.4804 20 21.7348 20 22C20 22.2652 19.8946 22.5196 19.7071 22.7071C19.5196 22.8946 19.2652 23 19 23Z" fill="#818181"/>
</svg>