<svg xmlns="http://www.w3.org/2000/svg" width="1440" height="141" viewBox="0 0 1440 141" fill="none">
  <path fill-rule="evenodd" clip-rule="evenodd" d="M1685.57 0L1344.45 140.803L1345.88 141L1687 0.196838L1685.57 0Z" fill="url(#paint0_radial_15995_22432)"/>
  <path fill-rule="evenodd" clip-rule="evenodd" d="M1564.71 0.00965881L1266.22 140.813L1267.7 140.99L1566.18 0.18718L1564.71 0.00965881Z" fill="url(#paint1_radial_15995_22432)"/>
  <path fill-rule="evenodd" clip-rule="evenodd" d="M1443.83 0.0202179L1188 140.823L1189.52 140.98L1445.35 0.176636L1443.83 0.0202179Z" fill="url(#paint2_radial_15995_22432)"/>
  <path fill-rule="evenodd" clip-rule="evenodd" d="M1322.96 0.0316162L1109.76 140.835L1111.32 140.968L1324.52 0.165222L1322.96 0.0316162Z" fill="url(#paint3_radial_15995_22432)"/>
  <path fill-rule="evenodd" clip-rule="evenodd" d="M1608.76 90.0881H-168.703V91H1608.76V90.0881Z" fill="url(#paint4_radial_15995_22432)"/>
  <path fill-rule="evenodd" clip-rule="evenodd" d="M1202.11 0.0438232L1031.55 140.847L1033.13 140.956L1203.69 0.153015L1202.11 0.0438232Z" fill="url(#paint5_radial_15995_22432)"/>
  <path fill-rule="evenodd" clip-rule="evenodd" d="M1081.24 0.0567627L953.315 140.86L954.929 140.943L1082.85 0.140076L1081.24 0.0567627Z" fill="url(#paint6_radial_15995_22432)"/>
  <path fill-rule="evenodd" clip-rule="evenodd" d="M960.391 0.0702972L875.102 140.873L876.737 140.93L962.026 0.126541L960.391 0.0702972Z" fill="url(#paint7_radial_15995_22432)"/>
  <path fill-rule="evenodd" clip-rule="evenodd" d="M839.53 0.084259L796.894 140.887L798.542 140.916L841.178 0.112579L839.53 0.084259Z" fill="url(#paint8_radial_15995_22432)"/>
  <path fill-rule="evenodd" clip-rule="evenodd" d="M718.674 0.0984192V140.902H720.326V0.0984192H718.674Z" fill="url(#paint9_radial_15995_22432)"/>
  <path fill-rule="evenodd" clip-rule="evenodd" d="M597.838 0.112579L640.474 140.916L642.122 140.887L599.486 0.084259L597.838 0.112579Z" fill="url(#paint10_radial_15995_22432)"/>
  <path fill-rule="evenodd" clip-rule="evenodd" d="M476.99 0.126541L562.279 140.93L563.914 140.873L478.625 0.0702972L476.99 0.126541Z" fill="url(#paint11_radial_15995_22432)"/>
  <path fill-rule="evenodd" clip-rule="evenodd" d="M356.146 0.140076L484.071 140.943L485.685 140.86L357.761 0.0567627L356.146 0.140076Z" fill="url(#paint12_radial_15995_22432)"/>
  <path fill-rule="evenodd" clip-rule="evenodd" d="M235.322 0.153015L405.883 140.956L407.47 140.847L236.909 0.0438232L235.322 0.153015Z" fill="url(#paint13_radial_15995_22432)"/>
  <path fill-rule="evenodd" clip-rule="evenodd" d="M114.485 0.165222L327.681 140.968L329.235 140.835L116.039 0.0316162L114.485 0.165222Z" fill="url(#paint14_radial_15995_22432)"/>
  <path fill-rule="evenodd" clip-rule="evenodd" d="M-6.33412 0.176636L249.498 140.98L251.014 140.823L-4.81819 0.0202179L-6.33412 0.176636Z" fill="url(#paint15_radial_15995_22432)"/>
  <path fill-rule="evenodd" clip-rule="evenodd" d="M-127.168 0.18718L171.317 140.99L172.792 140.813L-125.693 0.00965881L-127.168 0.18718Z" fill="url(#paint16_radial_15995_22432)"/>
  <path fill-rule="evenodd" clip-rule="evenodd" d="M-248 0.196838L93.1209 141L94.5515 140.803L-246.569 0L-248 0.196838Z" fill="url(#paint17_radial_15995_22432)"/>
  <defs>
    <radialGradient id="paint0_radial_15995_22432" cx="0" cy="0" r="1" gradientUnits="userSpaceOnUse" gradientTransform="translate(719.5 70.5) rotate(-90) scale(70.5 588.617)">
      <stop offset="0.46" stop-color="#323232"/>
      <stop offset="1" stop-color="#323232" stop-opacity="0"/>
    </radialGradient>
    <radialGradient id="paint1_radial_15995_22432" cx="0" cy="0" r="1" gradientUnits="userSpaceOnUse" gradientTransform="translate(719.5 70.5) rotate(-90) scale(70.5 588.617)">
      <stop offset="0.46" stop-color="#323232"/>
      <stop offset="1" stop-color="#323232" stop-opacity="0"/>
    </radialGradient>
    <radialGradient id="paint2_radial_15995_22432" cx="0" cy="0" r="1" gradientUnits="userSpaceOnUse" gradientTransform="translate(719.5 70.5) rotate(-90) scale(70.5 588.617)">
      <stop offset="0.46" stop-color="#323232"/>
      <stop offset="1" stop-color="#323232" stop-opacity="0"/>
    </radialGradient>
    <radialGradient id="paint3_radial_15995_22432" cx="0" cy="0" r="1" gradientUnits="userSpaceOnUse" gradientTransform="translate(719.5 70.5) rotate(-90) scale(70.5 588.617)">
      <stop offset="0.46" stop-color="#323232"/>
      <stop offset="1" stop-color="#323232" stop-opacity="0"/>
    </radialGradient>
    <radialGradient id="paint4_radial_15995_22432" cx="0" cy="0" r="1" gradientUnits="userSpaceOnUse" gradientTransform="translate(719.5 70.5) rotate(-90) scale(70.5 588.617)">
      <stop offset="0.46" stop-color="#323232"/>
      <stop offset="1" stop-color="#323232" stop-opacity="0"/>
    </radialGradient>
    <radialGradient id="paint5_radial_15995_22432" cx="0" cy="0" r="1" gradientUnits="userSpaceOnUse" gradientTransform="translate(719.5 70.5) rotate(-90) scale(70.5 588.617)">
      <stop offset="0.46" stop-color="#323232"/>
      <stop offset="1" stop-color="#323232" stop-opacity="0"/>
    </radialGradient>
    <radialGradient id="paint6_radial_15995_22432" cx="0" cy="0" r="1" gradientUnits="userSpaceOnUse" gradientTransform="translate(719.5 70.5) rotate(-90) scale(70.5 588.617)">
      <stop offset="0.46" stop-color="#323232"/>
      <stop offset="1" stop-color="#323232" stop-opacity="0"/>
    </radialGradient>
    <radialGradient id="paint7_radial_15995_22432" cx="0" cy="0" r="1" gradientUnits="userSpaceOnUse" gradientTransform="translate(719.5 70.5) rotate(-90) scale(70.5 588.617)">
      <stop offset="0.46" stop-color="#323232"/>
      <stop offset="1" stop-color="#323232" stop-opacity="0"/>
    </radialGradient>
    <radialGradient id="paint8_radial_15995_22432" cx="0" cy="0" r="1" gradientUnits="userSpaceOnUse" gradientTransform="translate(719.5 70.5) rotate(-90) scale(70.5 588.617)">
      <stop offset="0.46" stop-color="#323232"/>
      <stop offset="1" stop-color="#323232" stop-opacity="0"/>
    </radialGradient>
    <radialGradient id="paint9_radial_15995_22432" cx="0" cy="0" r="1" gradientUnits="userSpaceOnUse" gradientTransform="translate(719.5 70.5) rotate(-90) scale(70.5 588.617)">
      <stop offset="0.46" stop-color="#323232"/>
      <stop offset="1" stop-color="#323232" stop-opacity="0"/>
    </radialGradient>
    <radialGradient id="paint10_radial_15995_22432" cx="0" cy="0" r="1" gradientUnits="userSpaceOnUse" gradientTransform="translate(719.5 70.5) rotate(-90) scale(70.5 588.617)">
      <stop offset="0.46" stop-color="#323232"/>
      <stop offset="1" stop-color="#323232" stop-opacity="0"/>
    </radialGradient>
    <radialGradient id="paint11_radial_15995_22432" cx="0" cy="0" r="1" gradientUnits="userSpaceOnUse" gradientTransform="translate(719.5 70.5) rotate(-90) scale(70.5 588.617)">
      <stop offset="0.46" stop-color="#323232"/>
      <stop offset="1" stop-color="#323232" stop-opacity="0"/>
    </radialGradient>
    <radialGradient id="paint12_radial_15995_22432" cx="0" cy="0" r="1" gradientUnits="userSpaceOnUse" gradientTransform="translate(719.5 70.5) rotate(-90) scale(70.5 588.617)">
      <stop offset="0.46" stop-color="#323232"/>
      <stop offset="1" stop-color="#323232" stop-opacity="0"/>
    </radialGradient>
    <radialGradient id="paint13_radial_15995_22432" cx="0" cy="0" r="1" gradientUnits="userSpaceOnUse" gradientTransform="translate(719.5 70.5) rotate(-90) scale(70.5 588.617)">
      <stop offset="0.46" stop-color="#323232"/>
      <stop offset="1" stop-color="#323232" stop-opacity="0"/>
    </radialGradient>
    <radialGradient id="paint14_radial_15995_22432" cx="0" cy="0" r="1" gradientUnits="userSpaceOnUse" gradientTransform="translate(719.5 70.5) rotate(-90) scale(70.5 588.617)">
      <stop offset="0.46" stop-color="#323232"/>
      <stop offset="1" stop-color="#323232" stop-opacity="0"/>
    </radialGradient>
    <radialGradient id="paint15_radial_15995_22432" cx="0" cy="0" r="1" gradientUnits="userSpaceOnUse" gradientTransform="translate(719.5 70.5) rotate(-90) scale(70.5 588.617)">
      <stop offset="0.46" stop-color="#323232"/>
      <stop offset="1" stop-color="#323232" stop-opacity="0"/>
    </radialGradient>
    <radialGradient id="paint16_radial_15995_22432" cx="0" cy="0" r="1" gradientUnits="userSpaceOnUse" gradientTransform="translate(719.5 70.5) rotate(-90) scale(70.5 588.617)">
      <stop offset="0.46" stop-color="#323232"/>
      <stop offset="1" stop-color="#323232" stop-opacity="0"/>
    </radialGradient>
    <radialGradient id="paint17_radial_15995_22432" cx="0" cy="0" r="1" gradientUnits="userSpaceOnUse" gradientTransform="translate(719.5 70.5) rotate(-90) scale(70.5 588.617)">
      <stop offset="0.46" stop-color="#323232"/>
      <stop offset="1" stop-color="#323232" stop-opacity="0"/>
    </radialGradient>
  </defs>
</svg>