<svg xmlns="http://www.w3.org/2000/svg" width="1440" height="141" viewBox="0 0 1440 141" fill="none">
  <path fill-rule="evenodd" clip-rule="evenodd" d="M1685.57 141L1344.45 0.196833L1345.88 0L1687 140.803L1685.57 141Z" fill="url(#paint0_radial_15995_21299)"/>
  <path fill-rule="evenodd" clip-rule="evenodd" d="M1564.71 140.99L1266.22 0.187172L1267.7 0.00966168L1566.18 140.813L1564.71 140.99Z" fill="url(#paint1_radial_15995_21299)"/>
  <path fill-rule="evenodd" clip-rule="evenodd" d="M1443.83 140.98L1188 0.176628L1189.52 0.0202052L1445.35 140.823L1443.83 140.98Z" fill="url(#paint2_radial_15995_21299)"/>
  <path fill-rule="evenodd" clip-rule="evenodd" d="M1322.96 140.968L1109.76 0.165225L1111.32 0.0316083L1324.52 140.835L1322.96 140.968Z" fill="url(#paint3_radial_15995_21299)"/>
  <path fill-rule="evenodd" clip-rule="evenodd" d="M1608.76 50.9119H-168.703V50H1608.76V50.9119Z" fill="url(#paint4_radial_15995_21299)"/>
  <path fill-rule="evenodd" clip-rule="evenodd" d="M1202.11 140.956L1031.55 0.153008L1033.13 0.043825L1203.69 140.847L1202.11 140.956Z" fill="url(#paint5_radial_15995_21299)"/>
  <path fill-rule="evenodd" clip-rule="evenodd" d="M1081.24 140.943L953.315 0.140069L954.929 0.0567648L1082.85 140.86L1081.24 140.943Z" fill="url(#paint6_radial_15995_21299)"/>
  <path fill-rule="evenodd" clip-rule="evenodd" d="M960.391 140.93L875.102 0.126538L876.737 0.070295L962.026 140.873L960.391 140.93Z" fill="url(#paint7_radial_15995_21299)"/>
  <path fill-rule="evenodd" clip-rule="evenodd" d="M839.53 140.916L796.894 0.112584L798.542 0.0842497L841.178 140.887L839.53 140.916Z" fill="url(#paint8_radial_15995_21299)"/>
  <path fill-rule="evenodd" clip-rule="evenodd" d="M718.674 140.902V0.0984167H720.326V140.902H718.674Z" fill="url(#paint9_radial_15995_21299)"/>
  <path fill-rule="evenodd" clip-rule="evenodd" d="M597.838 140.887L640.474 0.0842497L642.122 0.112584L599.486 140.916L597.838 140.887Z" fill="url(#paint10_radial_15995_21299)"/>
  <path fill-rule="evenodd" clip-rule="evenodd" d="M476.99 140.873L562.279 0.070295L563.914 0.126538L478.625 140.93L476.99 140.873Z" fill="url(#paint11_radial_15995_21299)"/>
  <path fill-rule="evenodd" clip-rule="evenodd" d="M356.146 140.86L484.071 0.0567648L485.685 0.140069L357.761 140.943L356.146 140.86Z" fill="url(#paint12_radial_15995_21299)"/>
  <path fill-rule="evenodd" clip-rule="evenodd" d="M235.322 140.847L405.883 0.043825L407.47 0.153008L236.909 140.956L235.322 140.847Z" fill="url(#paint13_radial_15995_21299)"/>
  <path fill-rule="evenodd" clip-rule="evenodd" d="M114.485 140.835L327.681 0.0316083L329.235 0.165225L116.039 140.968L114.485 140.835Z" fill="url(#paint14_radial_15995_21299)"/>
  <path fill-rule="evenodd" clip-rule="evenodd" d="M-6.33412 140.823L249.498 0.0202052L251.014 0.176628L-4.81819 140.98L-6.33412 140.823Z" fill="url(#paint15_radial_15995_21299)"/>
  <path fill-rule="evenodd" clip-rule="evenodd" d="M-127.168 140.813L171.317 0.00966168L172.792 0.187172L-125.693 140.99L-127.168 140.813Z" fill="url(#paint16_radial_15995_21299)"/>
  <path fill-rule="evenodd" clip-rule="evenodd" d="M-248 140.803L93.1209 2.34644e-08L94.5515 0.196833L-246.569 141L-248 140.803Z" fill="url(#paint17_radial_15995_21299)"/>
  <defs>
    <radialGradient id="paint0_radial_15995_21299" cx="0" cy="0" r="1" gradientUnits="userSpaceOnUse" gradientTransform="translate(719.5 70.5) rotate(90) scale(70.5 588.617)">
      <stop offset="0.5" stop-color="#323232"/>
      <stop offset="1" stop-color="#323232" stop-opacity="0"/>
    </radialGradient>
    <radialGradient id="paint1_radial_15995_21299" cx="0" cy="0" r="1" gradientUnits="userSpaceOnUse" gradientTransform="translate(719.5 70.5) rotate(90) scale(70.5 588.617)">
      <stop offset="0.5" stop-color="#323232"/>
      <stop offset="1" stop-color="#323232" stop-opacity="0"/>
    </radialGradient>
    <radialGradient id="paint2_radial_15995_21299" cx="0" cy="0" r="1" gradientUnits="userSpaceOnUse" gradientTransform="translate(719.5 70.5) rotate(90) scale(70.5 588.617)">
      <stop offset="0.5" stop-color="#323232"/>
      <stop offset="1" stop-color="#323232" stop-opacity="0"/>
    </radialGradient>
    <radialGradient id="paint3_radial_15995_21299" cx="0" cy="0" r="1" gradientUnits="userSpaceOnUse" gradientTransform="translate(719.5 70.5) rotate(90) scale(70.5 588.617)">
      <stop offset="0.5" stop-color="#323232"/>
      <stop offset="1" stop-color="#323232" stop-opacity="0"/>
    </radialGradient>
    <radialGradient id="paint4_radial_15995_21299" cx="0" cy="0" r="1" gradientUnits="userSpaceOnUse" gradientTransform="translate(719.5 70.5) rotate(90) scale(70.5 588.617)">
      <stop offset="0.5" stop-color="#323232"/>
      <stop offset="1" stop-color="#323232" stop-opacity="0"/>
    </radialGradient>
    <radialGradient id="paint5_radial_15995_21299" cx="0" cy="0" r="1" gradientUnits="userSpaceOnUse" gradientTransform="translate(719.5 70.5) rotate(90) scale(70.5 588.617)">
      <stop offset="0.5" stop-color="#323232"/>
      <stop offset="1" stop-color="#323232" stop-opacity="0"/>
    </radialGradient>
    <radialGradient id="paint6_radial_15995_21299" cx="0" cy="0" r="1" gradientUnits="userSpaceOnUse" gradientTransform="translate(719.5 70.5) rotate(90) scale(70.5 588.617)">
      <stop offset="0.5" stop-color="#323232"/>
      <stop offset="1" stop-color="#323232" stop-opacity="0"/>
    </radialGradient>
    <radialGradient id="paint7_radial_15995_21299" cx="0" cy="0" r="1" gradientUnits="userSpaceOnUse" gradientTransform="translate(719.5 70.5) rotate(90) scale(70.5 588.617)">
      <stop offset="0.5" stop-color="#323232"/>
      <stop offset="1" stop-color="#323232" stop-opacity="0"/>
    </radialGradient>
    <radialGradient id="paint8_radial_15995_21299" cx="0" cy="0" r="1" gradientUnits="userSpaceOnUse" gradientTransform="translate(719.5 70.5) rotate(90) scale(70.5 588.617)">
      <stop offset="0.5" stop-color="#323232"/>
      <stop offset="1" stop-color="#323232" stop-opacity="0"/>
    </radialGradient>
    <radialGradient id="paint9_radial_15995_21299" cx="0" cy="0" r="1" gradientUnits="userSpaceOnUse" gradientTransform="translate(719.5 70.5) rotate(90) scale(70.5 588.617)">
      <stop offset="0.5" stop-color="#323232"/>
      <stop offset="1" stop-color="#323232" stop-opacity="0"/>
    </radialGradient>
    <radialGradient id="paint10_radial_15995_21299" cx="0" cy="0" r="1" gradientUnits="userSpaceOnUse" gradientTransform="translate(719.5 70.5) rotate(90) scale(70.5 588.617)">
      <stop offset="0.5" stop-color="#323232"/>
      <stop offset="1" stop-color="#323232" stop-opacity="0"/>
    </radialGradient>
    <radialGradient id="paint11_radial_15995_21299" cx="0" cy="0" r="1" gradientUnits="userSpaceOnUse" gradientTransform="translate(719.5 70.5) rotate(90) scale(70.5 588.617)">
      <stop offset="0.5" stop-color="#323232"/>
      <stop offset="1" stop-color="#323232" stop-opacity="0"/>
    </radialGradient>
    <radialGradient id="paint12_radial_15995_21299" cx="0" cy="0" r="1" gradientUnits="userSpaceOnUse" gradientTransform="translate(719.5 70.5) rotate(90) scale(70.5 588.617)">
      <stop offset="0.5" stop-color="#323232"/>
      <stop offset="1" stop-color="#323232" stop-opacity="0"/>
    </radialGradient>
    <radialGradient id="paint13_radial_15995_21299" cx="0" cy="0" r="1" gradientUnits="userSpaceOnUse" gradientTransform="translate(719.5 70.5) rotate(90) scale(70.5 588.617)">
      <stop offset="0.5" stop-color="#323232"/>
      <stop offset="1" stop-color="#323232" stop-opacity="0"/>
    </radialGradient>
    <radialGradient id="paint14_radial_15995_21299" cx="0" cy="0" r="1" gradientUnits="userSpaceOnUse" gradientTransform="translate(719.5 70.5) rotate(90) scale(70.5 588.617)">
      <stop offset="0.5" stop-color="#323232"/>
      <stop offset="1" stop-color="#323232" stop-opacity="0"/>
    </radialGradient>
    <radialGradient id="paint15_radial_15995_21299" cx="0" cy="0" r="1" gradientUnits="userSpaceOnUse" gradientTransform="translate(719.5 70.5) rotate(90) scale(70.5 588.617)">
      <stop offset="0.5" stop-color="#323232"/>
      <stop offset="1" stop-color="#323232" stop-opacity="0"/>
    </radialGradient>
    <radialGradient id="paint16_radial_15995_21299" cx="0" cy="0" r="1" gradientUnits="userSpaceOnUse" gradientTransform="translate(719.5 70.5) rotate(90) scale(70.5 588.617)">
      <stop offset="0.5" stop-color="#323232"/>
      <stop offset="1" stop-color="#323232" stop-opacity="0"/>
    </radialGradient>
    <radialGradient id="paint17_radial_15995_21299" cx="0" cy="0" r="1" gradientUnits="userSpaceOnUse" gradientTransform="translate(719.5 70.5) rotate(90) scale(70.5 588.617)">
      <stop offset="0.5" stop-color="#323232"/>
      <stop offset="1" stop-color="#323232" stop-opacity="0"/>
    </radialGradient>
  </defs>
</svg>