<svg width="1334" height="105" viewBox="0 0 1334 105" fill="none" xmlns="http://www.w3.org/2000/svg">
<mask id="path-1-outside-1_16006_25472" maskUnits="userSpaceOnUse" x="-0.5" y="-1" width="1336" height="141" fill="black">
<rect fill="white" x="-0.5" y="-1" width="1336" height="141"/>
<path d="M0.621094 28.2344V1.28125H85.1914V28.2344H56.6758V138H29.1367V28.2344H0.621094ZM131.543 99.9141V35.6562C131.543 28.7552 134.473 21.724 140.332 14.5625C148.145 5.1875 158.04 0.434896 170.02 0.304688V27.8438C164.681 27.974 161.165 30.9688 159.473 36.8281C159.212 37.7396 159.082 38.3906 159.082 38.7812V99.9141C159.082 105.253 162.012 108.898 167.871 110.852C168.783 111.112 169.434 111.242 169.824 111.242V138.977C162.402 138.977 154.98 136.307 147.559 130.969C137.012 123.156 131.673 112.805 131.543 99.9141ZM180.566 138.977V111.242C182.65 111.242 184.993 110.135 187.598 107.922C190.072 105.708 191.374 103.039 191.504 99.9141V38.7812C191.504 36.4375 190.397 33.9635 188.184 31.3594C186.1 29.1458 183.561 27.974 180.566 27.8438V0.304688C193.717 0.304688 204.264 5.96875 212.207 17.2969C216.764 23.8073 219.043 29.9271 219.043 35.6562V99.9141C219.043 114.367 212.598 125.435 199.707 133.117C192.936 137.023 186.556 138.977 180.566 138.977ZM270.668 138V41.9062H272.23L298.207 83.7031V138H270.668ZM270.668 19.25V1.28125H293.129L357.582 105.188V138H344.496L270.668 19.25ZM330.043 40.7344V1.28125H357.582V82.5312H356.02L330.043 40.7344ZM488.566 138V1.28125H515.91V138H488.566ZM526.652 138V113.977H527.629C535.441 113.977 540.65 110.721 543.254 104.211C544.165 102.128 544.621 99.9792 544.621 97.7656C544.621 91.2552 542.017 86.5677 536.809 83.7031C534.204 82.2708 531.34 81.5547 528.215 81.5547H526.652V57.7266H528.215C535.507 57.7266 540.52 54.6016 543.254 48.3516C544.165 46.138 544.621 43.8594 544.621 41.5156C544.621 35.1354 541.952 30.4479 536.613 27.4531C533.879 26.0208 530.884 25.3047 527.629 25.3047H526.652V1.28125H531.34C548.267 1.28125 560.181 7.46615 567.082 19.8359C570.337 25.8255 571.965 32.401 571.965 39.5625C571.965 50.8906 568.514 60.0703 561.613 67.1016C560.572 68.013 559.595 68.8594 558.684 69.6406C566.236 75.2396 570.598 83.7682 571.77 95.2266C571.9 96.7891 571.965 98.2865 571.965 99.7188C571.965 112.349 567.538 122.245 558.684 129.406C551.392 135.135 542.277 138 531.34 138H526.652ZM621.441 99.9141V35.6562C621.441 28.7552 624.371 21.724 630.23 14.5625C638.043 5.1875 647.939 0.434896 659.918 0.304688V27.8438C654.579 27.974 651.064 30.9688 649.371 36.8281C649.111 37.7396 648.98 38.3906 648.98 38.7812V99.9141C648.98 105.253 651.91 108.898 657.77 110.852C658.681 111.112 659.332 111.242 659.723 111.242V138.977C652.301 138.977 644.879 136.307 637.457 130.969C626.91 123.156 621.572 112.805 621.441 99.9141ZM670.465 138.977V111.242C672.548 111.242 674.892 110.135 677.496 107.922C679.97 105.708 681.272 103.039 681.402 99.9141V38.7812C681.402 36.4375 680.296 33.9635 678.082 31.3594C675.999 29.1458 673.46 27.974 670.465 27.8438V0.304688C683.616 0.304688 694.163 5.96875 702.105 17.2969C706.663 23.8073 708.941 29.9271 708.941 35.6562V99.9141C708.941 114.367 702.496 125.435 689.605 133.117C682.835 137.023 676.454 138.977 670.465 138.977ZM759.785 99.9141V35.6562C759.785 28.7552 762.715 21.724 768.574 14.5625C776.387 5.1875 786.283 0.434896 798.262 0.304688V27.8438C792.923 27.974 789.408 30.9688 787.715 36.8281C787.454 37.7396 787.324 38.3906 787.324 38.7812V99.9141C787.324 105.253 790.254 108.898 796.113 110.852C797.025 111.112 797.676 111.242 798.066 111.242V138.977C790.645 138.977 783.223 136.307 775.801 130.969C765.254 123.156 759.915 112.805 759.785 99.9141ZM808.809 138.977V111.242C810.892 111.242 813.236 110.135 815.84 107.922C818.314 105.708 819.616 103.039 819.746 99.9141V38.7812C819.746 36.4375 818.639 33.9635 816.426 31.3594C814.342 29.1458 811.803 27.974 808.809 27.8438V0.304688C821.96 0.304688 832.507 5.96875 840.449 17.2969C845.007 23.8073 847.285 29.9271 847.285 35.6562V99.9141C847.285 114.367 840.84 125.435 827.949 133.117C821.178 137.023 814.798 138.977 808.809 138.977ZM898.91 138V1.28125H926.449V138H898.91ZM934.262 71.3984L955.16 1.28125H982.309L961.605 71.3984L983.09 138H956.137L934.262 71.3984ZM1030.22 138V1.28125H1057.76V138H1030.22ZM1110.17 138V41.9062H1111.73L1137.71 83.7031V138H1110.17ZM1110.17 19.25V1.28125H1132.63L1197.08 105.188V138H1184L1110.17 19.25ZM1169.54 40.7344V1.28125H1197.08V82.5312H1195.52L1169.54 40.7344ZM1248.71 100.5V35.6562C1249.88 26.4115 1253.85 18.2734 1260.62 11.2422C1267.78 3.95052 1276.57 0.304688 1286.99 0.304688V27.8438C1281.39 27.974 1277.94 30.6432 1276.64 35.8516C1276.38 37.0234 1276.25 38 1276.25 38.7812V100.5C1276.38 105.839 1279.37 109.354 1285.23 111.047C1286.01 111.307 1286.6 111.438 1286.99 111.438V138.977C1279.44 138.977 1271.88 136.307 1264.33 130.969C1254.05 123.417 1248.84 113.26 1248.71 100.5ZM1297.54 138.977V111.438C1298.97 111.438 1300.79 110.266 1303 107.922C1304.96 105.708 1305.93 103.365 1305.93 100.891V94.4453H1297.54V69.0547H1333.67V103.625C1333.67 111.698 1329.5 119.641 1321.17 127.453C1313.23 135.005 1305.35 138.846 1297.54 138.977ZM1297.54 27.8438V0.304688C1307.17 0.304688 1315.76 4.47135 1323.32 12.8047C1330.22 20.2266 1333.67 28.3646 1333.67 37.2188L1306.71 47.1797V39.5625C1306.71 33.4427 1304.37 29.6667 1299.68 28.2344C1298.9 27.974 1298.19 27.8438 1297.54 27.8438Z"/>
</mask>
<path d="M0.621094 28.2344H-0.378906V29.2344H0.621094V28.2344ZM0.621094 1.28125V0.28125H-0.378906V1.28125H0.621094ZM85.1914 1.28125H86.1914V0.28125H85.1914V1.28125ZM85.1914 28.2344V29.2344H86.1914V28.2344H85.1914ZM56.6758 28.2344V27.2344H55.6758V28.2344H56.6758ZM56.6758 138V139H57.6758V138H56.6758ZM29.1367 138H28.1367V139H29.1367V138ZM29.1367 28.2344H30.1367V27.2344H29.1367V28.2344ZM1.62109 28.2344V1.28125H-0.378906V28.2344H1.62109ZM0.621094 2.28125H85.1914V0.28125H0.621094V2.28125ZM84.1914 1.28125V28.2344H86.1914V1.28125H84.1914ZM85.1914 27.2344H56.6758V29.2344H85.1914V27.2344ZM55.6758 28.2344V138H57.6758V28.2344H55.6758ZM56.6758 137H29.1367V139H56.6758V137ZM30.1367 138V28.2344H28.1367V138H30.1367ZM29.1367 27.2344H0.621094V29.2344H29.1367V27.2344ZM131.543 99.9141H130.543L130.543 99.9242L131.543 99.9141ZM140.332 14.5625L139.564 13.9223L139.558 13.9293L140.332 14.5625ZM170.02 0.304688H171.02V-0.706242L170.009 -0.695255L170.02 0.304688ZM170.02 27.8438L170.044 28.8435L171.02 28.8197V27.8438H170.02ZM159.473 36.8281L158.512 36.5506L158.511 36.5534L159.473 36.8281ZM167.871 110.852L167.555 111.8L167.575 111.807L167.596 111.813L167.871 110.852ZM169.824 111.242H170.824V110.242H169.824V111.242ZM169.824 138.977V139.977H170.824V138.977H169.824ZM147.559 130.969L146.963 131.772L146.975 131.781L147.559 130.969ZM180.566 138.977H179.566V139.977H180.566V138.977ZM180.566 111.242V110.242H179.566V111.242H180.566ZM187.598 107.922L188.245 108.684L188.255 108.676L188.264 108.667L187.598 107.922ZM191.504 99.9141L192.503 99.9557L192.504 99.9349V99.9141H191.504ZM188.184 31.3594L188.946 30.7117L188.929 30.6924L188.912 30.674L188.184 31.3594ZM180.566 27.8438H179.566V28.8012L180.523 28.8428L180.566 27.8438ZM180.566 0.304688V-0.695312H179.566V0.304688H180.566ZM212.207 17.2969L213.026 16.7234L213.026 16.7228L212.207 17.2969ZM199.707 133.117L200.207 133.983L200.213 133.98L200.219 133.976L199.707 133.117ZM132.543 99.9141V35.6562H130.543V99.9141H132.543ZM132.543 35.6562C132.543 29.0542 135.343 22.2395 141.106 15.1957L139.558 13.9293C133.602 21.2084 130.543 28.4562 130.543 35.6562H132.543ZM141.1 15.2027C148.729 6.04792 158.35 1.43158 170.03 1.30463L170.009 -0.695255C157.73 -0.561794 147.56 4.32708 139.564 13.9223L141.1 15.2027ZM169.02 0.304688V27.8438H171.02V0.304688H169.02ZM169.995 26.844C167.134 26.9138 164.689 27.7575 162.73 29.4263C160.782 31.0857 159.396 33.4919 158.512 36.5506L160.433 37.1057C161.242 34.305 162.46 32.2841 164.027 30.9487C165.584 29.6227 167.566 28.9039 170.044 28.8435L169.995 26.844ZM158.511 36.5534C158.251 37.4632 158.082 38.2356 158.082 38.7812H160.082C160.082 38.5456 160.173 38.016 160.434 37.1028L158.511 36.5534ZM158.082 38.7812V99.9141H160.082V38.7812H158.082ZM158.082 99.9141C158.082 102.777 158.872 105.253 160.5 107.279C162.118 109.292 164.5 110.782 167.555 111.8L168.187 109.903C165.383 108.968 163.37 107.658 162.059 106.026C160.757 104.405 160.082 102.389 160.082 99.9141H158.082ZM167.596 111.813C168.506 112.073 169.279 112.242 169.824 112.242V110.242C169.589 110.242 169.059 110.151 168.146 109.89L167.596 111.813ZM168.824 111.242V138.977H170.824V111.242H168.824ZM169.824 137.977C162.656 137.977 155.434 135.402 148.143 130.157L146.975 131.781C154.527 137.213 162.148 139.977 169.824 139.977V137.977ZM148.154 130.165C137.853 122.535 132.67 112.475 132.543 99.904L130.543 99.9242C130.676 113.135 136.17 123.777 146.963 131.772L148.154 130.165ZM181.566 138.977V111.242H179.566V138.977H181.566ZM180.566 112.242C182.998 112.242 185.568 110.959 188.245 108.684L186.95 107.16C184.419 109.311 182.302 110.242 180.566 110.242V112.242ZM188.264 108.667C190.926 106.286 192.361 103.368 192.503 99.9557L190.505 99.8724C190.387 102.71 189.217 105.131 186.931 107.177L188.264 108.667ZM192.504 99.9141V38.7812H190.504V99.9141H192.504ZM192.504 38.7812C192.504 36.1121 191.244 33.4158 188.946 30.7117L187.422 32.007C189.55 34.5113 190.504 36.7629 190.504 38.7812H192.504ZM188.912 30.674C186.653 28.2736 183.869 26.9864 180.61 26.8447L180.523 28.8428C183.253 28.9615 185.548 30.018 187.455 32.0447L188.912 30.674ZM181.566 27.8438V0.304688H179.566V27.8438H181.566ZM180.566 1.30469C193.372 1.30469 203.621 6.79337 211.388 17.871L213.026 16.7228C204.907 5.14413 194.063 -0.695312 180.566 -0.695312V1.30469ZM211.388 17.8703C215.872 24.2759 218.043 30.1978 218.043 35.6562H220.043C220.043 29.6563 217.657 23.3387 213.026 16.7234L211.388 17.8703ZM218.043 35.6562V99.9141H220.043V35.6562H218.043ZM218.043 99.9141C218.043 113.999 211.797 124.748 199.195 132.258L200.219 133.976C213.398 126.122 220.043 114.736 220.043 99.9141H218.043ZM199.207 132.251C192.543 136.096 186.335 137.977 180.566 137.977V139.977C186.777 139.977 193.329 137.951 200.207 133.983L199.207 132.251ZM270.668 138H269.668V139H270.668V138ZM270.668 41.9062V40.9062H269.668V41.9062H270.668ZM272.23 41.9062L273.08 41.3784L272.786 40.9062H272.23V41.9062ZM298.207 83.7031H299.207V83.4177L299.056 83.1753L298.207 83.7031ZM298.207 138V139H299.207V138H298.207ZM270.668 19.25H269.668V19.5355L269.819 19.778L270.668 19.25ZM270.668 1.28125V0.28125H269.668V1.28125H270.668ZM293.129 1.28125L293.979 0.754128L293.685 0.28125H293.129V1.28125ZM357.582 105.188H358.582V104.903L358.432 104.66L357.582 105.188ZM357.582 138V139H358.582V138H357.582ZM344.496 138L343.647 138.528L343.94 139H344.496V138ZM330.043 40.7344H329.043V41.0198L329.194 41.2622L330.043 40.7344ZM330.043 1.28125V0.28125H329.043V1.28125H330.043ZM357.582 1.28125H358.582V0.28125H357.582V1.28125ZM357.582 82.5312V83.5312H358.582V82.5312H357.582ZM356.02 82.5312L355.17 83.0591L355.464 83.5312H356.02V82.5312ZM271.668 138V41.9062H269.668V138H271.668ZM270.668 42.9062H272.23V40.9062H270.668V42.9062ZM271.381 42.4341L297.358 84.231L299.056 83.1753L273.08 41.3784L271.381 42.4341ZM297.207 83.7031V138H299.207V83.7031H297.207ZM298.207 137H270.668V139H298.207V137ZM271.668 19.25V1.28125H269.668V19.25H271.668ZM270.668 2.28125H293.129V0.28125H270.668V2.28125ZM292.279 1.80837L356.732 105.715L358.432 104.66L293.979 0.754128L292.279 1.80837ZM356.582 105.188V138H358.582V105.188H356.582ZM357.582 137H344.496V139H357.582V137ZM345.345 137.472L271.517 18.722L269.819 19.778L343.647 138.528L345.345 137.472ZM331.043 40.7344V1.28125H329.043V40.7344H331.043ZM330.043 2.28125H357.582V0.28125H330.043V2.28125ZM356.582 1.28125V82.5312H358.582V1.28125H356.582ZM357.582 81.5312H356.02V83.5312H357.582V81.5312ZM356.869 82.0034L330.892 40.2065L329.194 41.2622L355.17 83.0591L356.869 82.0034ZM488.566 138H487.566V139H488.566V138ZM488.566 1.28125V0.28125H487.566V1.28125H488.566ZM515.91 1.28125H516.91V0.28125H515.91V1.28125ZM515.91 138V139H516.91V138H515.91ZM526.652 138H525.652V139H526.652V138ZM526.652 113.977V112.977H525.652V113.977H526.652ZM543.254 104.211L542.338 103.81L542.331 103.825L542.325 103.84L543.254 104.211ZM526.652 81.5547H525.652V82.5547H526.652V81.5547ZM526.652 57.7266V56.7266H525.652V57.7266H526.652ZM543.254 48.3516L544.17 48.7524L544.174 48.7424L544.179 48.7323L543.254 48.3516ZM536.613 27.4531L537.103 26.581L537.09 26.574L537.077 26.5673L536.613 27.4531ZM526.652 25.3047H525.652V26.3047H526.652V25.3047ZM526.652 1.28125V0.28125H525.652V1.28125H526.652ZM567.082 19.8359L567.961 19.3584L567.955 19.3487L567.082 19.8359ZM561.613 67.1016L562.272 67.8541L562.3 67.8291L562.327 67.802L561.613 67.1016ZM558.684 69.6406L558.033 68.8814L557.081 69.6973L558.088 70.4439L558.684 69.6406ZM571.77 95.2266L572.766 95.1435L572.765 95.1342L572.764 95.1248L571.77 95.2266ZM558.684 129.406L559.301 130.193L559.312 130.184L558.684 129.406ZM489.566 138V1.28125H487.566V138H489.566ZM488.566 2.28125H515.91V0.28125H488.566V2.28125ZM514.91 1.28125V138H516.91V1.28125H514.91ZM515.91 137H488.566V139H515.91V137ZM527.652 138V113.977H525.652V138H527.652ZM526.652 114.977H527.629V112.977H526.652V114.977ZM527.629 114.977C531.672 114.977 535.123 114.134 537.925 112.383C540.734 110.627 542.813 108.006 544.182 104.582L542.325 103.84C541.091 106.927 539.264 109.188 536.865 110.687C534.457 112.192 531.398 112.977 527.629 112.977V114.977ZM544.17 104.612C545.135 102.406 545.621 100.121 545.621 97.7656H543.621C543.621 99.8374 543.195 101.85 542.338 103.81L544.17 104.612ZM545.621 97.7656C545.621 90.9331 542.854 85.8869 537.291 82.8269L536.327 84.5793C541.18 87.2486 543.621 91.5773 543.621 97.7656H545.621ZM537.291 82.8269C534.531 81.3092 531.499 80.5547 528.215 80.5547V82.5547C531.18 82.5547 533.878 83.2325 536.327 84.5793L537.291 82.8269ZM528.215 80.5547H526.652V82.5547H528.215V80.5547ZM527.652 81.5547V57.7266H525.652V81.5547H527.652ZM526.652 58.7266H528.215V56.7266H526.652V58.7266ZM528.215 58.7266C532.004 58.7266 535.274 57.9137 537.972 56.2314C540.676 54.5463 542.735 52.0328 544.17 48.7524L542.338 47.9507C541.039 50.9203 539.224 53.0943 536.914 54.5342C534.6 55.9769 531.717 56.7266 528.215 56.7266V58.7266ZM544.179 48.7323C545.139 46.4006 545.621 43.9928 545.621 41.5156H543.621C543.621 43.7259 543.192 45.8754 542.329 47.9708L544.179 48.7323ZM545.621 41.5156C545.621 34.7927 542.773 29.7618 537.103 26.581L536.124 28.3253C541.131 31.134 543.621 35.4782 543.621 41.5156H545.621ZM537.077 26.5673C534.192 25.0559 531.037 24.3047 527.629 24.3047V26.3047C530.732 26.3047 533.566 26.9858 536.149 28.339L537.077 26.5673ZM527.629 24.3047H526.652V26.3047H527.629V24.3047ZM527.652 25.3047V1.28125H525.652V25.3047H527.652ZM526.652 2.28125H531.34V0.28125H526.652V2.28125ZM531.34 2.28125C547.989 2.28125 559.522 8.33717 566.209 20.3231L567.955 19.3487C560.84 6.59512 548.545 0.28125 531.34 0.28125V2.28125ZM566.203 20.3135C569.375 26.149 570.965 32.5591 570.965 39.5625H572.965C572.965 32.243 571.3 25.502 567.961 19.3584L566.203 20.3135ZM570.965 39.5625C570.965 50.6711 567.589 59.5851 560.9 66.4011L562.327 67.802C569.439 60.5556 572.965 51.1102 572.965 39.5625H570.965ZM560.955 66.349C559.915 67.2585 558.941 68.1026 558.033 68.8814L559.334 70.3999C560.249 69.6161 561.228 68.7675 562.272 67.8541L560.955 66.349ZM558.088 70.4439C565.365 75.8388 569.625 84.0816 570.775 95.3283L572.764 95.1248C571.571 83.4548 567.107 74.6404 559.279 68.8373L558.088 70.4439ZM570.773 95.3096C570.901 96.847 570.965 98.3166 570.965 99.7188H572.965C572.965 98.2563 572.898 96.7311 572.766 95.1435L570.773 95.3096ZM570.965 99.7188C570.965 112.084 566.647 121.679 558.055 128.629L559.312 130.184C568.429 122.81 572.965 112.613 572.965 99.7188H570.965ZM558.066 128.62C550.981 134.187 542.095 137 531.34 137V139C542.46 139 551.803 136.084 559.301 130.193L558.066 128.62ZM531.34 137H526.652V139H531.34V137ZM621.441 99.9141H620.441L620.441 99.9242L621.441 99.9141ZM630.23 14.5625L629.462 13.9223L629.456 13.9293L630.23 14.5625ZM659.918 0.304688H660.918V-0.706242L659.907 -0.695255L659.918 0.304688ZM659.918 27.8438L659.942 28.8435L660.918 28.8197V27.8438H659.918ZM649.371 36.8281L648.41 36.5506L648.41 36.5534L649.371 36.8281ZM657.77 110.852L657.453 111.8L657.474 111.807L657.495 111.813L657.77 110.852ZM659.723 111.242H660.723V110.242H659.723V111.242ZM659.723 138.977V139.977H660.723V138.977H659.723ZM637.457 130.969L636.862 131.772L636.873 131.781L637.457 130.969ZM670.465 138.977H669.465V139.977H670.465V138.977ZM670.465 111.242V110.242H669.465V111.242H670.465ZM677.496 107.922L678.144 108.684L678.153 108.676L678.163 108.667L677.496 107.922ZM681.402 99.9141L682.401 99.9557L682.402 99.9349V99.9141H681.402ZM678.082 31.3594L678.844 30.7117L678.828 30.6924L678.81 30.674L678.082 31.3594ZM670.465 27.8438H669.465V28.8012L670.421 28.8428L670.465 27.8438ZM670.465 0.304688V-0.695312H669.465V0.304688H670.465ZM702.105 17.2969L702.925 16.7234L702.924 16.7228L702.105 17.2969ZM689.605 133.117L690.105 133.983L690.111 133.98L690.117 133.976L689.605 133.117ZM622.441 99.9141V35.6562H620.441V99.9141H622.441ZM622.441 35.6562C622.441 29.0542 625.241 22.2395 631.004 15.1957L629.456 13.9293C623.501 21.2084 620.441 28.4562 620.441 35.6562H622.441ZM630.999 15.2027C638.628 6.04792 648.249 1.43158 659.929 1.30463L659.907 -0.695255C647.629 -0.561794 637.458 4.32708 629.462 13.9223L630.999 15.2027ZM658.918 0.304688V27.8438H660.918V0.304688H658.918ZM659.894 26.844C657.033 26.9138 654.588 27.7575 652.629 29.4263C650.681 31.0857 649.294 33.4919 648.41 36.5506L650.332 37.1057C651.141 34.305 652.358 32.2841 653.926 30.9487C655.482 29.6227 657.465 28.9039 659.942 28.8435L659.894 26.844ZM648.41 36.5534C648.15 37.4632 647.98 38.2356 647.98 38.7812H649.98C649.98 38.5456 650.072 38.016 650.333 37.1028L648.41 36.5534ZM647.98 38.7812V99.9141H649.98V38.7812H647.98ZM647.98 99.9141C647.98 102.777 648.771 105.253 650.398 107.279C652.016 109.292 654.399 110.782 657.453 111.8L658.086 109.903C655.281 108.968 653.269 107.658 651.957 106.026C650.655 104.405 649.98 102.389 649.98 99.9141H647.98ZM657.495 111.813C658.405 112.073 659.177 112.242 659.723 112.242V110.242C659.487 110.242 658.957 110.151 658.044 109.89L657.495 111.813ZM658.723 111.242V138.977H660.723V111.242H658.723ZM659.723 137.977C652.555 137.977 645.333 135.402 638.041 130.157L636.873 131.781C644.425 137.213 652.047 139.977 659.723 139.977V137.977ZM638.052 130.165C627.752 122.535 622.568 112.475 622.441 99.904L620.441 99.9242C620.575 113.135 626.069 123.777 636.862 131.772L638.052 130.165ZM671.465 138.977V111.242H669.465V138.977H671.465ZM670.465 112.242C672.896 112.242 675.467 110.959 678.144 108.684L676.848 107.16C674.317 109.311 672.2 110.242 670.465 110.242V112.242ZM678.163 108.667C680.824 106.286 682.259 103.368 682.401 99.9557L680.403 99.8724C680.285 102.71 679.116 105.131 676.829 107.177L678.163 108.667ZM682.402 99.9141V38.7812H680.402V99.9141H682.402ZM682.402 38.7812C682.402 36.1121 681.142 33.4158 678.844 30.7117L677.32 32.007C679.449 34.5113 680.402 36.7629 680.402 38.7812H682.402ZM678.81 30.674C676.551 28.2736 673.768 26.9864 670.508 26.8447L670.421 28.8428C673.152 28.9615 675.446 30.018 677.354 32.0447L678.81 30.674ZM671.465 27.8438V0.304688H669.465V27.8438H671.465ZM670.465 1.30469C683.27 1.30469 693.52 6.79337 701.287 17.871L702.924 16.7228C694.806 5.14413 683.961 -0.695312 670.465 -0.695312V1.30469ZM701.286 17.8703C705.77 24.2759 707.941 30.1978 707.941 35.6562H709.941C709.941 29.6563 707.555 23.3387 702.925 16.7234L701.286 17.8703ZM707.941 35.6562V99.9141H709.941V35.6562H707.941ZM707.941 99.9141C707.941 113.999 701.696 124.748 689.094 132.258L690.117 133.976C703.297 126.122 709.941 114.736 709.941 99.9141H707.941ZM689.106 132.251C682.442 136.096 676.233 137.977 670.465 137.977V139.977C676.676 139.977 683.228 137.951 690.105 133.983L689.106 132.251ZM759.785 99.9141H758.785L758.785 99.9242L759.785 99.9141ZM768.574 14.5625L767.806 13.9223L767.8 13.9293L768.574 14.5625ZM798.262 0.304688H799.262V-0.706242L798.251 -0.695255L798.262 0.304688ZM798.262 27.8438L798.286 28.8435L799.262 28.8197V27.8438H798.262ZM787.715 36.8281L786.754 36.5506L786.753 36.5534L787.715 36.8281ZM796.113 110.852L795.797 111.8L795.818 111.807L795.839 111.813L796.113 110.852ZM798.066 111.242H799.066V110.242H798.066V111.242ZM798.066 138.977V139.977H799.066V138.977H798.066ZM775.801 130.969L775.206 131.772L775.217 131.781L775.801 130.969ZM808.809 138.977H807.809V139.977H808.809V138.977ZM808.809 111.242V110.242H807.809V111.242H808.809ZM815.84 107.922L816.487 108.684L816.497 108.676L816.507 108.667L815.84 107.922ZM819.746 99.9141L820.745 99.9557L820.746 99.9349V99.9141H819.746ZM816.426 31.3594L817.188 30.7117L817.171 30.6924L817.154 30.674L816.426 31.3594ZM808.809 27.8438H807.809V28.8012L808.765 28.8428L808.809 27.8438ZM808.809 0.304688V-0.695312H807.809V0.304688H808.809ZM840.449 17.2969L841.268 16.7234L841.268 16.7228L840.449 17.2969ZM827.949 133.117L828.449 133.983L828.455 133.98L828.461 133.976L827.949 133.117ZM760.785 99.9141V35.6562H758.785V99.9141H760.785ZM760.785 35.6562C760.785 29.0542 763.585 22.2395 769.348 15.1957L767.8 13.9293C761.845 21.2084 758.785 28.4562 758.785 35.6562H760.785ZM769.342 15.2027C776.971 6.04792 786.593 1.43158 798.273 1.30463L798.251 -0.695255C785.972 -0.561794 775.802 4.32708 767.806 13.9223L769.342 15.2027ZM797.262 0.304688V27.8438H799.262V0.304688H797.262ZM798.237 26.844C795.376 26.9138 792.932 27.7575 790.973 29.4263C789.025 31.0857 787.638 33.4919 786.754 36.5506L788.676 37.1057C789.485 34.305 790.702 32.2841 792.27 30.9487C793.826 29.6227 795.808 28.9039 798.286 28.8435L798.237 26.844ZM786.753 36.5534C786.493 37.4632 786.324 38.2356 786.324 38.7812H788.324C788.324 38.5456 788.415 38.016 788.676 37.1028L786.753 36.5534ZM786.324 38.7812V99.9141H788.324V38.7812H786.324ZM786.324 99.9141C786.324 102.777 787.115 105.253 788.742 107.279C790.36 109.292 792.742 110.782 795.797 111.8L796.43 109.903C793.625 108.968 791.613 107.658 790.301 106.026C788.999 104.405 788.324 102.389 788.324 99.9141H786.324ZM795.839 111.813C796.748 112.073 797.521 112.242 798.066 112.242V110.242C797.831 110.242 797.301 110.151 796.388 109.89L795.839 111.813ZM797.066 111.242V138.977H799.066V111.242H797.066ZM798.066 137.977C790.898 137.977 783.677 135.402 776.385 130.157L775.217 131.781C782.769 137.213 790.391 139.977 798.066 139.977V137.977ZM776.396 130.165C766.096 122.535 760.912 112.475 760.785 99.904L758.785 99.9242C758.919 113.135 764.412 123.777 775.206 131.772L776.396 130.165ZM809.809 138.977V111.242H807.809V138.977H809.809ZM808.809 112.242C811.24 112.242 813.81 110.959 816.487 108.684L815.192 107.16C812.661 109.311 810.544 110.242 808.809 110.242V112.242ZM816.507 108.667C819.168 106.286 820.603 103.368 820.745 99.9557L818.747 99.8724C818.629 102.71 817.46 105.131 815.173 107.177L816.507 108.667ZM820.746 99.9141V38.7812H818.746V99.9141H820.746ZM820.746 38.7812C820.746 36.1121 819.486 33.4158 817.188 30.7117L815.664 32.007C817.792 34.5113 818.746 36.7629 818.746 38.7812H820.746ZM817.154 30.674C814.895 28.2736 812.111 26.9864 808.852 26.8447L808.765 28.8428C811.495 28.9615 813.79 30.018 815.698 32.0447L817.154 30.674ZM809.809 27.8438V0.304688H807.809V27.8438H809.809ZM808.809 1.30469C821.614 1.30469 831.863 6.79337 839.63 17.871L841.268 16.7228C833.15 5.14413 822.305 -0.695312 808.809 -0.695312V1.30469ZM839.63 17.8703C844.114 24.2759 846.285 30.1978 846.285 35.6562H848.285C848.285 29.6563 845.899 23.3387 841.268 16.7234L839.63 17.8703ZM846.285 35.6562V99.9141H848.285V35.6562H846.285ZM846.285 99.9141C846.285 113.999 840.039 124.748 827.437 132.258L828.461 133.976C841.64 126.122 848.285 114.736 848.285 99.9141H846.285ZM827.45 132.251C820.785 136.096 814.577 137.977 808.809 137.977V139.977C815.019 139.977 821.571 137.951 828.449 133.983L827.45 132.251ZM898.91 138H897.91V139H898.91V138ZM898.91 1.28125V0.28125H897.91V1.28125H898.91ZM926.449 1.28125H927.449V0.28125H926.449V1.28125ZM926.449 138V139H927.449V138H926.449ZM934.262 71.3984L933.303 71.1128L933.214 71.4129L933.312 71.7105L934.262 71.3984ZM955.16 1.28125V0.28125H954.415L954.202 0.995617L955.16 1.28125ZM982.309 1.28125L983.268 1.56443L983.647 0.28125H982.309V1.28125ZM961.605 71.3984L960.646 71.1153L960.559 71.4115L960.654 71.7054L961.605 71.3984ZM983.09 138V139H984.463L984.042 137.693L983.09 138ZM956.137 138L955.187 138.312L955.413 139H956.137V138ZM899.91 138V1.28125H897.91V138H899.91ZM898.91 2.28125H926.449V0.28125H898.91V2.28125ZM925.449 1.28125V138H927.449V1.28125H925.449ZM926.449 137H898.91V139H926.449V137ZM935.22 71.6841L956.118 1.56688L954.202 0.995617L933.303 71.1128L935.22 71.6841ZM955.16 2.28125H982.309V0.28125H955.16V2.28125ZM981.35 0.99807L960.646 71.1153L962.565 71.6816L983.268 1.56443L981.35 0.99807ZM960.654 71.7054L982.138 138.307L984.042 137.693L962.557 71.0914L960.654 71.7054ZM983.09 137H956.137V139H983.09V137ZM957.087 137.688L935.212 71.0864L933.312 71.7105L955.187 138.312L957.087 137.688ZM1030.22 138H1029.22V139H1030.22V138ZM1030.22 1.28125V0.28125H1029.22V1.28125H1030.22ZM1057.76 1.28125H1058.76V0.28125H1057.76V1.28125ZM1057.76 138V139H1058.76V138H1057.76ZM1031.22 138V1.28125H1029.22V138H1031.22ZM1030.22 2.28125H1057.76V0.28125H1030.22V2.28125ZM1056.76 1.28125V138H1058.76V1.28125H1056.76ZM1057.76 137H1030.22V139H1057.76V137ZM1110.17 138H1109.17V139H1110.17V138ZM1110.17 41.9062V40.9062H1109.17V41.9062H1110.17ZM1111.73 41.9062L1112.58 41.3784L1112.29 40.9062H1111.73V41.9062ZM1137.71 83.7031H1138.71V83.4177L1138.56 83.1753L1137.71 83.7031ZM1137.71 138V139H1138.71V138H1137.71ZM1110.17 19.25H1109.17V19.5355L1109.32 19.778L1110.17 19.25ZM1110.17 1.28125V0.28125H1109.17V1.28125H1110.17ZM1132.63 1.28125L1133.48 0.754128L1133.19 0.28125H1132.63V1.28125ZM1197.08 105.188H1198.08V104.903L1197.93 104.66L1197.08 105.188ZM1197.08 138V139H1198.08V138H1197.08ZM1184 138L1183.15 138.528L1183.44 139H1184V138ZM1169.54 40.7344H1168.54V41.0198L1168.69 41.2622L1169.54 40.7344ZM1169.54 1.28125V0.28125H1168.54V1.28125H1169.54ZM1197.08 1.28125H1198.08V0.28125H1197.08V1.28125ZM1197.08 82.5312V83.5312H1198.08V82.5312H1197.08ZM1195.52 82.5312L1194.67 83.0591L1194.96 83.5312H1195.52V82.5312ZM1111.17 138V41.9062H1109.17V138H1111.17ZM1110.17 42.9062H1111.73V40.9062H1110.17V42.9062ZM1110.88 42.4341L1136.86 84.231L1138.56 83.1753L1112.58 41.3784L1110.88 42.4341ZM1136.71 83.7031V138H1138.71V83.7031H1136.71ZM1137.71 137H1110.17V139H1137.71V137ZM1111.17 19.25V1.28125H1109.17V19.25H1111.17ZM1110.17 2.28125H1132.63V0.28125H1110.17V2.28125ZM1131.78 1.80837L1196.23 105.715L1197.93 104.66L1133.48 0.754128L1131.78 1.80837ZM1196.08 105.188V138H1198.08V105.188H1196.08ZM1197.08 137H1184V139H1197.08V137ZM1184.85 137.472L1111.02 18.722L1109.32 19.778L1183.15 138.528L1184.85 137.472ZM1170.54 40.7344V1.28125H1168.54V40.7344H1170.54ZM1169.54 2.28125H1197.08V0.28125H1169.54V2.28125ZM1196.08 1.28125V82.5312H1198.08V1.28125H1196.08ZM1197.08 81.5312H1195.52V83.5312H1197.08V81.5312ZM1196.37 82.0034L1170.39 40.2065L1168.69 41.2622L1194.67 83.0591L1196.37 82.0034ZM1248.71 100.5H1247.71V100.51L1248.71 100.5ZM1248.71 35.6562L1247.71 35.5305L1247.71 35.5931V35.6562H1248.71ZM1260.62 11.2422L1259.91 10.5414L1259.9 10.5485L1260.62 11.2422ZM1286.99 0.304688H1287.99V-0.695312H1286.99V0.304688ZM1286.99 27.8438L1287.01 28.8435L1287.99 28.8208V27.8438H1286.99ZM1276.64 35.8516L1275.67 35.609L1275.66 35.6218L1275.66 35.6346L1276.64 35.8516ZM1276.25 100.5H1275.25V100.512L1275.25 100.524L1276.25 100.5ZM1285.23 111.047L1285.55 110.098L1285.53 110.092L1285.51 110.086L1285.23 111.047ZM1286.99 111.438H1287.99V110.438H1286.99V111.438ZM1286.99 138.977V139.977H1287.99V138.977H1286.99ZM1264.33 130.969L1263.74 131.775L1263.75 131.78L1263.75 131.785L1264.33 130.969ZM1297.54 138.977H1296.54V139.993L1297.55 139.976L1297.54 138.977ZM1297.54 111.438V110.438H1296.54V111.438H1297.54ZM1303 107.922L1303.73 108.609L1303.74 108.596L1303.75 108.583L1303 107.922ZM1305.93 94.4453H1306.93V93.4453H1305.93V94.4453ZM1297.54 94.4453H1296.54V95.4453H1297.54V94.4453ZM1297.54 69.0547V68.0547H1296.54V69.0547H1297.54ZM1333.67 69.0547H1334.67V68.0547H1333.67V69.0547ZM1321.17 127.453L1320.48 126.724L1320.48 126.728L1321.17 127.453ZM1297.54 27.8438H1296.54V28.8438H1297.54V27.8438ZM1297.54 0.304688V-0.695312H1296.54V0.304688H1297.54ZM1323.32 12.8047L1322.58 13.4763L1322.58 13.4856L1323.32 12.8047ZM1333.67 37.2188L1334.01 38.1567L1334.67 37.9153V37.2188H1333.67ZM1306.71 47.1797H1305.71V48.6154L1307.06 48.1177L1306.71 47.1797ZM1299.68 28.2344L1299.37 29.1831L1299.38 29.187L1299.39 29.1907L1299.68 28.2344ZM1249.71 100.5V35.6562H1247.71V100.5H1249.71ZM1249.7 35.782C1250.84 26.7614 1254.71 18.8198 1261.34 11.9358L1259.9 10.5485C1252.99 17.727 1248.92 26.0615 1247.71 35.5305L1249.7 35.782ZM1261.33 11.9429C1268.3 4.84677 1276.83 1.30469 1286.99 1.30469V-0.695312C1276.31 -0.695312 1267.26 3.05427 1259.91 10.5415L1261.33 11.9429ZM1285.99 0.304688V27.8438H1287.99V0.304688H1285.99ZM1286.97 26.844C1284.01 26.9127 1281.53 27.6542 1279.59 29.1524C1277.65 30.6538 1276.36 32.8386 1275.67 35.609L1277.61 36.0941C1278.22 33.6562 1279.3 31.9022 1280.81 30.7343C1282.33 29.5632 1284.36 28.905 1287.01 28.8435L1286.97 26.844ZM1275.66 35.6346C1275.39 36.8441 1275.25 37.8992 1275.25 38.7812H1277.25C1277.25 38.1008 1277.36 37.2028 1277.61 36.0685L1275.66 35.6346ZM1275.25 38.7812V100.5H1277.25V38.7812H1275.25ZM1275.25 100.524C1275.32 103.385 1276.16 105.83 1277.83 107.789C1279.49 109.737 1281.89 111.124 1284.95 112.008L1285.51 110.086C1282.71 109.277 1280.69 108.06 1279.35 106.492C1278.03 104.936 1277.31 102.953 1277.25 100.476L1275.25 100.524ZM1284.91 111.996C1285.71 112.261 1286.43 112.438 1286.99 112.438V110.438C1286.77 110.438 1286.31 110.354 1285.55 110.098L1284.91 111.996ZM1285.99 111.438V138.977H1287.99V111.438H1285.99ZM1286.99 137.977C1279.69 137.977 1272.33 135.399 1264.91 130.152L1263.75 131.785C1271.44 137.216 1279.19 139.977 1286.99 139.977V137.977ZM1264.92 130.163C1254.89 122.797 1249.83 112.935 1249.71 100.49L1247.71 100.51C1247.84 113.585 1253.2 124.036 1263.74 131.775L1264.92 130.163ZM1298.54 138.977V111.438H1296.54V138.977H1298.54ZM1297.54 112.438C1298.52 112.438 1299.52 112.04 1300.52 111.4C1301.52 110.754 1302.59 109.814 1303.73 108.609L1302.28 107.235C1301.2 108.374 1300.25 109.191 1299.44 109.717C1298.61 110.249 1297.98 110.438 1297.54 110.438V112.438ZM1303.75 108.583C1305.84 106.224 1306.93 103.654 1306.93 100.891H1304.93C1304.93 103.076 1304.08 105.192 1302.25 107.26L1303.75 108.583ZM1306.93 100.891V94.4453H1304.93V100.891H1306.93ZM1305.93 93.4453H1297.54V95.4453H1305.93V93.4453ZM1298.54 94.4453V69.0547H1296.54V94.4453H1298.54ZM1297.54 70.0547H1333.67V68.0547H1297.54V70.0547ZM1332.67 69.0547V103.625H1334.67V69.0547H1332.67ZM1332.67 103.625C1332.67 111.323 1328.7 119.02 1320.48 126.724L1321.85 128.183C1330.3 120.261 1334.67 112.073 1334.67 103.625H1332.67ZM1320.48 126.728C1312.64 134.177 1304.99 137.852 1297.52 137.977L1297.55 139.976C1305.7 139.841 1313.81 135.833 1321.86 128.178L1320.48 126.728ZM1298.54 27.8438V0.304688H1296.54V27.8438H1298.54ZM1297.54 1.30469C1306.84 1.30469 1315.18 5.31369 1322.58 13.4762L1324.06 12.1332C1316.35 3.62902 1307.5 -0.695312 1297.54 -0.695312V1.30469ZM1322.58 13.4856C1329.34 20.7512 1332.67 28.6539 1332.67 37.2188H1334.67C1334.67 28.0753 1331.1 19.7019 1324.05 12.1237L1322.58 13.4856ZM1333.32 36.2808L1306.37 46.2417L1307.06 48.1177L1334.01 38.1567L1333.32 36.2808ZM1307.71 47.1797V39.5625H1305.71V47.1797H1307.71ZM1307.71 39.5625C1307.71 36.3838 1307.11 33.7086 1305.81 31.6133C1304.49 29.4978 1302.53 28.0571 1299.98 27.278L1299.39 29.1907C1301.53 29.8439 1303.08 31.0074 1304.11 32.668C1305.15 34.3487 1305.71 36.6214 1305.71 39.5625H1307.71ZM1300 27.2857C1299.14 26.9999 1298.32 26.8438 1297.54 26.8438V28.8438C1298.05 28.8438 1298.66 28.9481 1299.37 29.1831L1300 27.2857Z" fill="black" fill-opacity="0.2" mask="url(#path-1-outside-1_16006_25472)"/>
</svg>
