<svg width="1440" height="73" viewBox="0 0 1440 73" fill="none" xmlns="http://www.w3.org/2000/svg">
<mask id="path-1-outside-1_16006_25472" maskUnits="userSpaceOnUse" x="-20.5" y="-1" width="1475" height="114" fill="black">
<rect fill="white" x="-20.5" y="-1" width="1475" height="114"/>
<path d="M-18.7188 23.1875V1.625H48.9375V23.1875H26.125V111H4.09375V23.1875H-18.7188ZM93.2188 80.5312V29.125C93.2188 23.6042 95.5625 17.9792 100.25 12.25C106.5 4.75 114.417 0.947917 124 0.84375V22.875C119.729 22.9792 116.917 25.375 115.562 30.0625C115.354 30.7917 115.25 31.3125 115.25 31.625V80.5312C115.25 84.8021 117.594 87.7188 122.281 89.2812C123.01 89.4896 123.531 89.5938 123.844 89.5938V111.781C117.906 111.781 111.969 109.646 106.031 105.375C97.5938 99.125 93.3229 90.8438 93.2188 80.5312ZM132.438 111.781V89.5938C134.104 89.5938 135.979 88.7083 138.062 86.9375C140.042 85.1667 141.083 83.0312 141.188 80.5312V31.625C141.188 29.75 140.302 27.7708 138.531 25.6875C136.865 23.9167 134.833 22.9792 132.438 22.875V0.84375C142.958 0.84375 151.396 5.375 157.75 14.4375C161.396 19.6458 163.219 24.5417 163.219 29.125V80.5312C163.219 92.0938 158.062 100.948 147.75 107.094C142.333 110.219 137.229 111.781 132.438 111.781ZM211.719 111V34.125H212.969L233.75 67.5625V111H211.719ZM211.719 16V1.625H229.688L281.25 84.75V111H270.781L211.719 16ZM259.219 33.1875V1.625H281.25V66.625H280L259.219 33.1875ZM402.312 110.844V1.625H459.188V23.5H424.344V45.6875H444.5V67.7188H424.344V110.844H402.312ZM505.188 80.5312V29.125C505.188 23.6042 507.531 17.9792 512.219 12.25C518.469 4.75 526.385 0.947917 535.969 0.84375V22.875C531.698 22.9792 528.885 25.375 527.531 30.0625C527.323 30.7917 527.219 31.3125 527.219 31.625V80.5312C527.219 84.8021 529.562 87.7188 534.25 89.2812C534.979 89.4896 535.5 89.5938 535.812 89.5938V111.781C529.875 111.781 523.938 109.646 518 105.375C509.562 99.125 505.292 90.8438 505.188 80.5312ZM544.406 111.781V89.5938C546.073 89.5938 547.948 88.7083 550.031 86.9375C552.01 85.1667 553.052 83.0312 553.156 80.5312V31.625C553.156 29.75 552.271 27.7708 550.5 25.6875C548.833 23.9167 546.802 22.9792 544.406 22.875V0.84375C554.927 0.84375 563.365 5.375 569.719 14.4375C573.365 19.6458 575.188 24.5417 575.188 29.125V80.5312C575.188 92.0938 570.031 100.948 559.719 107.094C554.302 110.219 549.198 111.781 544.406 111.781ZM622.125 80.8438V1.625H644.156V80.8438C644.26 85.1146 646.656 87.9271 651.344 89.2812C652.073 89.4896 652.594 89.5938 652.906 89.5938V111.781C646.865 111.781 640.823 109.646 634.781 105.375C626.448 99.2292 622.229 91.0521 622.125 80.8438ZM661.344 111.781V89.5938C663.219 89.5938 665.198 88.7083 667.281 86.9375C669.052 85.2708 669.99 83.2396 670.094 80.8438V1.625H691.969V80.8438C691.969 92.6146 686.76 101.417 676.344 107.25C671.135 110.271 666.135 111.781 661.344 111.781ZM739.688 111V34.125H740.938L761.719 67.5625V111H739.688ZM739.688 16V1.625H757.656L809.219 84.75V111H798.75L739.688 16ZM787.188 33.1875V1.625H809.219V66.625H807.969L787.188 33.1875ZM858.344 111V1.625H880.375V111H858.344ZM888.812 111V88.9688C891.104 88.9688 893.24 88.0312 895.219 86.1562C896.677 84.4896 897.458 82.5104 897.562 80.2188V32.4062C897.562 30.3229 896.677 28.2917 894.906 26.3125C893.24 24.6458 891.208 23.7604 888.812 23.6562V1.625C900.375 1.625 909.125 6.78125 915.062 17.0938C918.083 22.4062 919.594 27.5104 919.594 32.4062V80.2188C919.594 92.0938 914.333 100.948 903.812 106.781C898.604 109.594 893.604 111 888.812 111ZM966.531 111L986.688 20.0625H989.031L998.406 63.8125L988.094 111H966.531ZM999.812 97.7188L1004.5 76.1562H1010.12L993.562 1.625H1015.28L1041.06 111H1019.19L1016.06 97.7188H999.812ZM1082.38 23.1875V1.625H1150.03V23.1875H1127.22V111H1105.19V23.1875H1082.38ZM1194.94 111V1.625H1216.97V111H1194.94ZM1265.47 80.5312V29.125C1265.47 23.6042 1267.81 17.9792 1272.5 12.25C1278.75 4.75 1286.67 0.947917 1296.25 0.84375V22.875C1291.98 22.9792 1289.17 25.375 1287.81 30.0625C1287.6 30.7917 1287.5 31.3125 1287.5 31.625V80.5312C1287.5 84.8021 1289.84 87.7188 1294.53 89.2812C1295.26 89.4896 1295.78 89.5938 1296.09 89.5938V111.781C1290.16 111.781 1284.22 109.646 1278.28 105.375C1269.84 99.125 1265.57 90.8438 1265.47 80.5312ZM1304.69 111.781V89.5938C1306.35 89.5938 1308.23 88.7083 1310.31 86.9375C1312.29 85.1667 1313.33 83.0312 1313.44 80.5312V31.625C1313.44 29.75 1312.55 27.7708 1310.78 25.6875C1309.11 23.9167 1307.08 22.9792 1304.69 22.875V0.84375C1315.21 0.84375 1323.65 5.375 1330 14.4375C1333.65 19.6458 1335.47 24.5417 1335.47 29.125V80.5312C1335.47 92.0938 1330.31 100.948 1320 107.094C1314.58 110.219 1309.48 111.781 1304.69 111.781ZM1383.97 111V34.125H1385.22L1406 67.5625V111H1383.97ZM1383.97 16V1.625H1401.94L1453.5 84.75V111H1443.03L1383.97 16ZM1431.47 33.1875V1.625H1453.5V66.625H1452.25L1431.47 33.1875Z"/>
</mask>
<path d="M-18.7188 23.1875H-19.7188V24.1875H-18.7188V23.1875ZM-18.7188 1.625V0.625H-19.7188V1.625H-18.7188ZM48.9375 1.625H49.9375V0.625H48.9375V1.625ZM48.9375 23.1875V24.1875H49.9375V23.1875H48.9375ZM26.125 23.1875V22.1875H25.125V23.1875H26.125ZM26.125 111V112H27.125V111H26.125ZM4.09375 111H3.09375V112H4.09375V111ZM4.09375 23.1875H5.09375V22.1875H4.09375V23.1875ZM-17.7188 23.1875V1.625H-19.7188V23.1875H-17.7188ZM-18.7188 2.625H48.9375V0.625H-18.7188V2.625ZM47.9375 1.625V23.1875H49.9375V1.625H47.9375ZM48.9375 22.1875H26.125V24.1875H48.9375V22.1875ZM25.125 23.1875V111H27.125V23.1875H25.125ZM26.125 110H4.09375V112H26.125V110ZM5.09375 111V23.1875H3.09375V111H5.09375ZM4.09375 22.1875H-18.7188V24.1875H4.09375V22.1875ZM93.2188 80.5312H92.2187L92.2188 80.5414L93.2188 80.5312ZM100.25 12.25L99.4818 11.6098L99.476 11.6168L100.25 12.25ZM124 0.84375H125V-0.167179L123.989 -0.156193L124 0.84375ZM124 22.875L124.024 23.8747L125 23.8509V22.875H124ZM115.562 30.0625L114.602 29.785L114.601 29.7878L115.562 30.0625ZM122.281 89.2812L121.965 90.2299L121.986 90.2368L122.007 90.2428L122.281 89.2812ZM123.844 89.5938H124.844V88.5938H123.844V89.5938ZM123.844 111.781V112.781H124.844V111.781H123.844ZM106.031 105.375L105.436 106.179L105.447 106.187L106.031 105.375ZM132.438 111.781H131.438V112.781H132.438V111.781ZM132.438 89.5938V88.5938H131.438V89.5938H132.438ZM138.062 86.9375L138.71 87.6994L138.72 87.6912L138.729 87.6827L138.062 86.9375ZM141.188 80.5312L142.187 80.5729L142.188 80.5521V80.5312H141.188ZM138.531 25.6875L139.293 25.0398L139.277 25.0206L139.259 25.0021L138.531 25.6875ZM132.438 22.875H131.438V23.8325L132.394 23.8741L132.438 22.875ZM132.438 0.84375V-0.15625H131.438V0.84375H132.438ZM157.75 14.4375L158.569 13.864L158.569 13.8634L157.75 14.4375ZM147.75 107.094L148.25 107.96L148.256 107.956L148.262 107.953L147.75 107.094ZM94.2188 80.5312V29.125H92.2188V80.5312H94.2188ZM94.2188 29.125C94.2188 23.9031 96.4327 18.4948 101.024 12.8832L99.476 11.6168C94.6923 17.4636 92.2188 23.3052 92.2188 29.125H94.2188ZM101.018 12.8902C107.085 5.61042 114.727 1.94461 124.011 1.84369L123.989 -0.156193C114.107 -0.0487709 105.915 3.88958 99.4818 11.6098L101.018 12.8902ZM123 0.84375V22.875H125V0.84375H123ZM123.976 21.8753C121.649 21.9321 119.646 22.6195 118.039 23.9888C116.443 25.3487 115.316 27.3122 114.602 29.785L116.523 30.34C117.163 28.1253 118.12 26.5471 119.336 25.5112C120.541 24.4847 122.081 23.9221 124.024 23.8747L123.976 21.8753ZM114.601 29.7878C114.393 30.5153 114.25 31.1575 114.25 31.625H116.25C116.25 31.4675 116.315 31.0681 116.524 30.3372L114.601 29.7878ZM114.25 31.625V80.5312H116.25V31.625H114.25ZM114.25 80.5312C114.25 82.8605 114.894 84.8876 116.228 86.5483C117.553 88.1972 119.496 89.407 121.965 90.2299L122.597 88.3326C120.379 87.593 118.806 86.5632 117.787 85.2955C116.778 84.0395 116.25 82.4728 116.25 80.5312H114.25ZM122.007 90.2428C122.734 90.4506 123.376 90.5938 123.844 90.5938V88.5938C123.686 88.5938 123.287 88.5285 122.556 88.3197L122.007 90.2428ZM122.844 89.5938V111.781H124.844V89.5938H122.844ZM123.844 110.781C118.16 110.781 112.423 108.74 106.615 104.563L105.447 106.187C111.515 110.551 117.652 112.781 123.844 112.781V110.781ZM106.626 104.571C98.4354 98.5039 94.3196 90.5137 94.2187 80.5211L92.2188 80.5414C92.3262 91.1738 96.7521 99.7461 105.436 106.179L106.626 104.571ZM133.438 111.781V89.5938H131.438V111.781H133.438ZM132.438 90.5938C134.452 90.5938 136.554 89.5323 138.71 87.6994L137.415 86.1756C135.405 87.8843 133.756 88.5938 132.438 88.5938V90.5938ZM138.729 87.6827C140.896 85.7442 142.07 83.3606 142.187 80.5729L140.188 80.4896C140.096 82.7019 139.187 84.5892 137.396 86.1923L138.729 87.6827ZM142.188 80.5312V31.625H140.188V80.5312H142.188ZM142.188 31.625C142.188 29.4246 141.149 27.2231 139.293 25.0398L137.769 26.3352C139.455 28.3186 140.188 30.0754 140.188 31.625H142.188ZM139.259 25.0021C137.417 23.0445 135.141 21.9916 132.481 21.8759L132.394 23.8741C134.525 23.9667 136.312 24.7889 137.803 26.3729L139.259 25.0021ZM133.438 22.875V0.84375H131.438V22.875H133.438ZM132.438 1.84375C142.613 1.84375 150.753 6.19962 156.931 15.0116L158.569 13.8634C152.039 4.55038 143.304 -0.15625 132.438 -0.15625V1.84375ZM156.931 15.011C160.503 20.1144 162.219 24.8124 162.219 29.125H164.219C164.219 24.2709 162.288 19.1772 158.569 13.864L156.931 15.011ZM162.219 29.125V80.5312H164.219V29.125H162.219ZM162.219 80.5312C162.219 91.7252 157.262 100.261 147.238 106.235L148.262 107.953C158.863 101.635 164.219 92.4623 164.219 80.5312H162.219ZM147.25 106.228C141.94 109.291 137.008 110.781 132.438 110.781V112.781C137.45 112.781 142.726 111.147 148.25 107.96L147.25 106.228ZM211.719 111H210.719V112H211.719V111ZM211.719 34.125V33.125H210.719V34.125H211.719ZM212.969 34.125L213.818 33.5971L213.525 33.125H212.969V34.125ZM233.75 67.5625H234.75V67.2771L234.599 67.0346L233.75 67.5625ZM233.75 111V112H234.75V111H233.75ZM211.719 16H210.719V16.2855L210.869 16.528L211.719 16ZM211.719 1.625V0.625H210.719V1.625H211.719ZM229.688 1.625L230.537 1.09788L230.244 0.625H229.688V1.625ZM281.25 84.75H282.25V84.465L282.1 84.2229L281.25 84.75ZM281.25 111V112H282.25V111H281.25ZM270.781 111L269.932 111.528L270.225 112H270.781V111ZM259.219 33.1875H258.219V33.4729L258.369 33.7154L259.219 33.1875ZM259.219 1.625V0.625H258.219V1.625H259.219ZM281.25 1.625H282.25V0.625H281.25V1.625ZM281.25 66.625V67.625H282.25V66.625H281.25ZM280 66.625L279.151 67.1529L279.444 67.625H280V66.625ZM212.719 111V34.125H210.719V111H212.719ZM211.719 35.125H212.969V33.125H211.719V35.125ZM212.119 34.6529L232.901 68.0904L234.599 67.0346L213.818 33.5971L212.119 34.6529ZM232.75 67.5625V111H234.75V67.5625H232.75ZM233.75 110H211.719V112H233.75V110ZM212.719 16V1.625H210.719V16H212.719ZM211.719 2.625H229.688V0.625H211.719V2.625ZM228.838 2.15212L280.4 85.2771L282.1 84.2229L230.537 1.09788L228.838 2.15212ZM280.25 84.75V111H282.25V84.75H280.25ZM281.25 110H270.781V112H281.25V110ZM271.63 110.472L212.568 15.472L210.869 16.528L269.932 111.528L271.63 110.472ZM260.219 33.1875V1.625H258.219V33.1875H260.219ZM259.219 2.625H281.25V0.625H259.219V2.625ZM280.25 1.625V66.625H282.25V1.625H280.25ZM281.25 65.625H280V67.625H281.25V65.625ZM280.849 66.0971L260.068 32.6596L258.369 33.7154L279.151 67.1529L280.849 66.0971ZM402.312 110.844H401.312V111.844H402.312V110.844ZM402.312 1.625V0.625H401.312V1.625H402.312ZM459.188 1.625H460.188V0.625H459.188V1.625ZM459.188 23.5V24.5H460.188V23.5H459.188ZM424.344 23.5V22.5H423.344V23.5H424.344ZM424.344 45.6875H423.344V46.6875H424.344V45.6875ZM444.5 45.6875H445.5V44.6875H444.5V45.6875ZM444.5 67.7188V68.7188H445.5V67.7188H444.5ZM424.344 67.7188V66.7188H423.344V67.7188H424.344ZM424.344 110.844V111.844H425.344V110.844H424.344ZM403.312 110.844V1.625H401.312V110.844H403.312ZM402.312 2.625H459.188V0.625H402.312V2.625ZM458.188 1.625V23.5H460.188V1.625H458.188ZM459.188 22.5H424.344V24.5H459.188V22.5ZM423.344 23.5V45.6875H425.344V23.5H423.344ZM424.344 46.6875H444.5V44.6875H424.344V46.6875ZM443.5 45.6875V67.7188H445.5V45.6875H443.5ZM444.5 66.7188H424.344V68.7188H444.5V66.7188ZM423.344 67.7188V110.844H425.344V67.7188H423.344ZM424.344 109.844H402.312V111.844H424.344V109.844ZM505.188 80.5312H504.187L504.188 80.5414L505.188 80.5312ZM512.219 12.25L511.451 11.6098L511.445 11.6168L512.219 12.25ZM535.969 0.84375H536.969V-0.167179L535.958 -0.156193L535.969 0.84375ZM535.969 22.875L535.993 23.8747L536.969 23.8509V22.875H535.969ZM527.531 30.0625L526.571 29.785L526.57 29.7878L527.531 30.0625ZM534.25 89.2812L533.934 90.2299L533.954 90.2368L533.975 90.2428L534.25 89.2812ZM535.812 89.5938H536.812V88.5938H535.812V89.5938ZM535.812 111.781V112.781H536.812V111.781H535.812ZM518 105.375L517.405 106.179L517.416 106.187L518 105.375ZM544.406 111.781H543.406V112.781H544.406V111.781ZM544.406 89.5938V88.5938H543.406V89.5938H544.406ZM550.031 86.9375L550.679 87.6994L550.689 87.6912L550.698 87.6827L550.031 86.9375ZM553.156 80.5312L554.155 80.5729L554.156 80.5521V80.5312H553.156ZM550.5 25.6875L551.262 25.0398L551.246 25.0206L551.228 25.0021L550.5 25.6875ZM544.406 22.875H543.406V23.8325L544.363 23.8741L544.406 22.875ZM544.406 0.84375V-0.15625H543.406V0.84375H544.406ZM569.719 14.4375L570.538 13.864L570.538 13.8634L569.719 14.4375ZM559.719 107.094L560.218 107.96L560.225 107.956L560.231 107.953L559.719 107.094ZM506.188 80.5312V29.125H504.188V80.5312H506.188ZM506.188 29.125C506.188 23.9031 508.401 18.4948 512.993 12.8832L511.445 11.6168C506.661 17.4636 504.188 23.3052 504.188 29.125H506.188ZM512.987 12.8902C519.053 5.61042 526.695 1.94461 535.98 1.84369L535.958 -0.156193C526.075 -0.0487709 517.884 3.88958 511.451 11.6098L512.987 12.8902ZM534.969 0.84375V22.875H536.969V0.84375H534.969ZM535.944 21.8753C533.617 21.9321 531.615 22.6195 530.008 23.9888C528.411 25.3487 527.285 27.3122 526.571 29.785L528.492 30.34C529.132 28.1253 530.089 26.5471 531.305 25.5112C532.51 24.4847 534.049 23.9221 535.993 23.8747L535.944 21.8753ZM526.57 29.7878C526.362 30.5153 526.219 31.1575 526.219 31.625H528.219C528.219 31.4675 528.284 31.0681 528.493 30.3372L526.57 29.7878ZM526.219 31.625V80.5312H528.219V31.625H526.219ZM526.219 80.5312C526.219 82.8605 526.863 84.8876 528.197 86.5483C529.522 88.1972 531.465 89.407 533.934 90.2299L534.566 88.3326C532.347 87.593 530.775 86.5632 529.756 85.2955C528.747 84.0395 528.219 82.4728 528.219 80.5312H526.219ZM533.975 90.2428C534.703 90.4506 535.345 90.5938 535.812 90.5938V88.5938C535.655 88.5938 535.256 88.5285 534.525 88.3197L533.975 90.2428ZM534.812 89.5938V111.781H536.812V89.5938H534.812ZM535.812 110.781C530.129 110.781 524.391 108.74 518.584 104.563L517.416 106.187C523.484 110.551 529.621 112.781 535.812 112.781V110.781ZM518.595 104.571C510.404 98.5039 506.288 90.5137 506.187 80.5211L504.188 80.5414C504.295 91.1738 508.721 99.7461 517.405 106.179L518.595 104.571ZM545.406 111.781V89.5938H543.406V111.781H545.406ZM544.406 90.5938C546.421 90.5938 548.523 89.5323 550.679 87.6994L549.384 86.1756C547.373 87.8843 545.725 88.5938 544.406 88.5938V90.5938ZM550.698 87.6827C552.865 85.7442 554.039 83.3606 554.155 80.5729L552.157 80.4896C552.065 82.7019 551.156 84.5892 549.364 86.1923L550.698 87.6827ZM554.156 80.5312V31.625H552.156V80.5312H554.156ZM554.156 31.625C554.156 29.4246 553.118 27.2231 551.262 25.0398L549.738 26.3352C551.424 28.3186 552.156 30.0754 552.156 31.625H554.156ZM551.228 25.0021C549.386 23.0445 547.11 21.9916 544.45 21.8759L544.363 23.8741C546.494 23.9667 548.281 24.7889 549.772 26.3729L551.228 25.0021ZM545.406 22.875V0.84375H543.406V22.875H545.406ZM544.406 1.84375C554.581 1.84375 562.721 6.19962 568.9 15.0116L570.538 13.8634C564.008 4.55038 555.273 -0.15625 544.406 -0.15625V1.84375ZM568.9 15.011C572.472 20.1144 574.188 24.8124 574.188 29.125H576.188C576.188 24.2709 574.257 19.1772 570.538 13.864L568.9 15.011ZM574.188 29.125V80.5312H576.188V29.125H574.188ZM574.188 80.5312C574.188 91.7252 569.231 100.261 559.207 106.235L560.231 107.953C570.832 101.635 576.188 92.4623 576.188 80.5312H574.188ZM559.219 106.228C553.909 109.291 548.977 110.781 544.406 110.781V112.781C549.419 112.781 554.695 111.147 560.218 107.96L559.219 106.228ZM622.125 80.8438H621.125L621.125 80.854L622.125 80.8438ZM622.125 1.625V0.625H621.125V1.625H622.125ZM644.156 1.625H645.156V0.625H644.156V1.625ZM644.156 80.8438H643.156V80.8559L643.157 80.8681L644.156 80.8438ZM651.344 89.2812L651.066 90.242L651.069 90.2428L651.344 89.2812ZM652.906 89.5938H653.906V88.5938H652.906V89.5938ZM652.906 111.781V112.781H653.906V111.781H652.906ZM634.781 105.375L634.188 106.18L634.196 106.186L634.204 106.192L634.781 105.375ZM661.344 111.781H660.344V112.781H661.344V111.781ZM661.344 89.5938V88.5938H660.344V89.5938H661.344ZM667.281 86.9375L667.929 87.6994L667.948 87.683L667.967 87.6657L667.281 86.9375ZM670.094 80.8438L671.093 80.8872L671.094 80.8655V80.8438H670.094ZM670.094 1.625V0.625H669.094V1.625H670.094ZM691.969 1.625H692.969V0.625H691.969V1.625ZM676.344 107.25L675.855 106.377L675.849 106.381L675.842 106.385L676.344 107.25ZM623.125 80.8438V1.625H621.125V80.8438H623.125ZM622.125 2.625H644.156V0.625H622.125V2.625ZM643.156 1.625V80.8438H645.156V1.625H643.156ZM643.157 80.8681C643.213 83.1951 643.901 85.1973 645.27 86.8047C646.63 88.4012 648.593 89.5276 651.066 90.242L651.621 88.3205C649.407 87.6807 647.828 86.7238 646.792 85.5078C645.766 84.3027 645.203 82.7632 645.156 80.8194L643.157 80.8681ZM651.069 90.2428C651.797 90.4506 652.439 90.5938 652.906 90.5938V88.5938C652.749 88.5938 652.349 88.5285 651.618 88.3197L651.069 90.2428ZM651.906 89.5938V111.781H653.906V89.5938H651.906ZM652.906 110.781C647.114 110.781 641.27 108.737 635.358 104.558L634.204 106.192C640.376 110.555 646.615 112.781 652.906 112.781V110.781ZM635.375 104.57C627.29 98.6076 623.226 90.7227 623.125 80.8335L621.125 80.854C621.232 91.3815 625.606 99.8507 634.188 106.18L635.375 104.57ZM662.344 111.781V89.5938H660.344V111.781H662.344ZM661.344 90.5938C663.544 90.5938 665.746 89.5552 667.929 87.6994L666.634 86.1756C664.65 87.8615 662.893 88.5938 661.344 88.5938V90.5938ZM667.967 87.6657C669.924 85.8232 670.977 83.5475 671.093 80.8872L669.095 80.8003C669.002 82.9317 668.18 84.7185 666.596 86.2093L667.967 87.6657ZM671.094 80.8438V1.625H669.094V80.8438H671.094ZM670.094 2.625H691.969V0.625H670.094V2.625ZM690.969 1.625V80.8438H692.969V1.625H690.969ZM690.969 80.8438C690.969 86.5775 689.702 91.5394 687.202 95.7642C684.702 99.9897 680.936 103.532 675.855 106.377L676.832 108.123C682.169 105.134 686.215 101.359 688.923 96.7827C691.632 92.2054 692.969 86.8809 692.969 80.8438H690.969ZM675.842 106.385C670.748 109.34 665.919 110.781 661.344 110.781V112.781C666.351 112.781 671.523 111.202 676.845 108.115L675.842 106.385ZM739.688 111H738.688V112H739.688V111ZM739.688 34.125V33.125H738.688V34.125H739.688ZM740.938 34.125L741.787 33.5971L741.493 33.125H740.938V34.125ZM761.719 67.5625H762.719V67.2771L762.568 67.0346L761.719 67.5625ZM761.719 111V112H762.719V111H761.719ZM739.688 16H738.688V16.2855L738.838 16.528L739.688 16ZM739.688 1.625V0.625H738.688V1.625H739.688ZM757.656 1.625L758.506 1.09788L758.213 0.625H757.656V1.625ZM809.219 84.75H810.219V84.465L810.069 84.2229L809.219 84.75ZM809.219 111V112H810.219V111H809.219ZM798.75 111L797.901 111.528L798.194 112H798.75V111ZM787.188 33.1875H786.188V33.4729L786.338 33.7154L787.188 33.1875ZM787.188 1.625V0.625H786.188V1.625H787.188ZM809.219 1.625H810.219V0.625H809.219V1.625ZM809.219 66.625V67.625H810.219V66.625H809.219ZM807.969 66.625L807.119 67.1529L807.413 67.625H807.969V66.625ZM740.688 111V34.125H738.688V111H740.688ZM739.688 35.125H740.938V33.125H739.688V35.125ZM740.088 34.6529L760.869 68.0904L762.568 67.0346L741.787 33.5971L740.088 34.6529ZM760.719 67.5625V111H762.719V67.5625H760.719ZM761.719 110H739.688V112H761.719V110ZM740.688 16V1.625H738.688V16H740.688ZM739.688 2.625H757.656V0.625H739.688V2.625ZM756.806 2.15212L808.369 85.2771L810.069 84.2229L758.506 1.09788L756.806 2.15212ZM808.219 84.75V111H810.219V84.75H808.219ZM809.219 110H798.75V112H809.219V110ZM799.599 110.472L740.537 15.472L738.838 16.528L797.901 111.528L799.599 110.472ZM788.188 33.1875V1.625H786.188V33.1875H788.188ZM787.188 2.625H809.219V0.625H787.188V2.625ZM808.219 1.625V66.625H810.219V1.625H808.219ZM809.219 65.625H807.969V67.625H809.219V65.625ZM808.818 66.0971L788.037 32.6596L786.338 33.7154L807.119 67.1529L808.818 66.0971ZM858.344 111H857.344V112H858.344V111ZM858.344 1.625V0.625H857.344V1.625H858.344ZM880.375 1.625H881.375V0.625H880.375V1.625ZM880.375 111V112H881.375V111H880.375ZM888.812 111H887.812V112H888.812V111ZM888.812 88.9688V87.9688H887.812V88.9688H888.812ZM895.219 86.1562L895.906 86.8822L895.94 86.85L895.971 86.8148L895.219 86.1562ZM897.562 80.2188L898.561 80.2642L898.562 80.2415V80.2188H897.562ZM894.906 26.3125L895.651 25.6457L895.633 25.625L895.613 25.6054L894.906 26.3125ZM888.812 23.6562H887.812V24.6137L888.769 24.6553L888.812 23.6562ZM888.812 1.625V0.625H887.812V1.625H888.812ZM915.062 17.0938L915.932 16.5994L915.929 16.5948L915.062 17.0938ZM903.812 106.781L904.288 107.661L904.297 107.656L903.812 106.781ZM859.344 111V1.625H857.344V111H859.344ZM858.344 2.625H880.375V0.625H858.344V2.625ZM879.375 1.625V111H881.375V1.625H879.375ZM880.375 110H858.344V112H880.375V110ZM889.812 111V88.9688H887.812V111H889.812ZM888.812 89.9688C891.407 89.9688 893.779 88.8976 895.906 86.8822L894.531 85.4303C892.7 87.1649 890.801 87.9688 888.812 87.9688V89.9688ZM895.971 86.8148C897.585 84.9711 898.447 82.7734 898.561 80.2642L896.564 80.1733C896.469 82.2474 895.77 84.0081 894.466 85.4977L895.971 86.8148ZM898.562 80.2188V32.4062H896.562V80.2188H898.562ZM898.562 32.4062C898.562 30.0151 897.54 27.7562 895.651 25.6457L894.161 26.9793C895.814 28.8271 896.562 30.6308 896.562 32.4062H898.562ZM895.613 25.6054C893.766 23.7584 891.497 22.772 888.856 22.6572L888.769 24.6553C890.92 24.7488 892.713 25.5332 894.199 27.0196L895.613 25.6054ZM889.812 23.6562V1.625H887.812V23.6562H889.812ZM888.812 2.625C900.005 2.625 908.43 7.57903 914.196 17.5927L915.929 16.5948C909.82 5.98347 900.745 0.625 888.812 0.625V2.625ZM914.193 17.5881C917.149 22.7868 918.594 27.7218 918.594 32.4062H920.594C920.594 27.2991 919.017 22.0257 915.932 16.5994L914.193 17.5881ZM918.594 32.4062V80.2188H920.594V32.4062H918.594ZM918.594 80.2188C918.594 86.0044 917.314 91.0047 914.789 95.2549C912.263 99.5057 908.459 103.061 903.328 105.907L904.297 107.656C909.686 104.668 913.773 100.88 916.508 96.2764C919.243 91.6724 920.594 86.3081 920.594 80.2188H918.594ZM903.337 105.901C898.241 108.653 893.404 110 888.812 110V112C893.805 112 898.967 110.534 904.288 107.661L903.337 105.901ZM966.531 111L965.555 110.784L965.285 112H966.531V111ZM986.688 20.0625V19.0625H985.885L985.711 19.8461L986.688 20.0625ZM989.031 20.0625L990.009 19.853L989.84 19.0625H989.031V20.0625ZM998.406 63.8125L999.383 64.026L999.429 63.8146L999.384 63.603L998.406 63.8125ZM988.094 111V112H988.899L989.071 111.214L988.094 111ZM999.812 97.7188L998.835 97.5063L998.572 98.7188H999.812V97.7188ZM1004.5 76.1562V75.1562H1003.69L1003.52 75.9438L1004.5 76.1562ZM1010.12 76.1562V77.1562H1011.37L1011.1 75.9393L1010.12 76.1562ZM993.562 1.625V0.625H992.316L992.586 1.84193L993.562 1.625ZM1015.28 1.625L1016.25 1.39557L1016.07 0.625H1015.28V1.625ZM1041.06 111V112H1042.33L1042.04 110.771L1041.06 111ZM1019.19 111L1018.21 111.229L1018.4 112H1019.19V111ZM1016.06 97.7188L1017.04 97.4897L1016.85 96.7188H1016.06V97.7188ZM967.508 111.216L987.664 20.2789L985.711 19.8461L965.555 110.784L967.508 111.216ZM986.688 21.0625H989.031V19.0625H986.688V21.0625ZM988.053 20.272L997.428 64.022L999.384 63.603L990.009 19.853L988.053 20.272ZM997.429 63.599L987.117 110.786L989.071 111.214L999.383 64.026L997.429 63.599ZM988.094 110H966.531V112H988.094V110ZM1000.79 97.9312L1005.48 76.3687L1003.52 75.9438L998.835 97.5063L1000.79 97.9312ZM1004.5 77.1562H1010.12V75.1562H1004.5V77.1562ZM1011.1 75.9393L994.539 1.40807L992.586 1.84193L1009.15 76.3732L1011.1 75.9393ZM993.562 2.625H1015.28V0.625H993.562V2.625ZM1014.31 1.85443L1040.09 111.229L1042.04 110.771L1016.25 1.39557L1014.31 1.85443ZM1041.06 110H1019.19V112H1041.06V110ZM1020.16 110.771L1017.04 97.4897L1015.09 97.9478L1018.21 111.229L1020.16 110.771ZM1016.06 96.7188H999.812V98.7188H1016.06V96.7188ZM1082.38 23.1875H1081.38V24.1875H1082.38V23.1875ZM1082.38 1.625V0.625H1081.38V1.625H1082.38ZM1150.03 1.625H1151.03V0.625H1150.03V1.625ZM1150.03 23.1875V24.1875H1151.03V23.1875H1150.03ZM1127.22 23.1875V22.1875H1126.22V23.1875H1127.22ZM1127.22 111V112H1128.22V111H1127.22ZM1105.19 111H1104.19V112H1105.19V111ZM1105.19 23.1875H1106.19V22.1875H1105.19V23.1875ZM1083.38 23.1875V1.625H1081.38V23.1875H1083.38ZM1082.38 2.625H1150.03V0.625H1082.38V2.625ZM1149.03 1.625V23.1875H1151.03V1.625H1149.03ZM1150.03 22.1875H1127.22V24.1875H1150.03V22.1875ZM1126.22 23.1875V111H1128.22V23.1875H1126.22ZM1127.22 110H1105.19V112H1127.22V110ZM1106.19 111V23.1875H1104.19V111H1106.19ZM1105.19 22.1875H1082.38V24.1875H1105.19V22.1875ZM1194.94 111H1193.94V112H1194.94V111ZM1194.94 1.625V0.625H1193.94V1.625H1194.94ZM1216.97 1.625H1217.97V0.625H1216.97V1.625ZM1216.97 111V112H1217.97V111H1216.97ZM1195.94 111V1.625H1193.94V111H1195.94ZM1194.94 2.625H1216.97V0.625H1194.94V2.625ZM1215.97 1.625V111H1217.97V1.625H1215.97ZM1216.97 110H1194.94V112H1216.97V110ZM1265.47 80.5312H1264.47V80.5414L1265.47 80.5312ZM1272.5 12.25L1271.73 11.6098L1271.73 11.6168L1272.5 12.25ZM1296.25 0.84375H1297.25V-0.167179L1296.24 -0.156193L1296.25 0.84375ZM1296.25 22.875L1296.27 23.8747L1297.25 23.8509V22.875H1296.25ZM1287.81 30.0625L1286.85 29.785L1286.85 29.7878L1287.81 30.0625ZM1294.53 89.2812L1294.21 90.2299L1294.24 90.2368L1294.26 90.2428L1294.53 89.2812ZM1296.09 89.5938H1297.09V88.5938H1296.09V89.5938ZM1296.09 111.781V112.781H1297.09V111.781H1296.09ZM1278.28 105.375L1277.69 106.179L1277.7 106.187L1278.28 105.375ZM1304.69 111.781H1303.69V112.781H1304.69V111.781ZM1304.69 89.5938V88.5938H1303.69V89.5938H1304.69ZM1310.31 86.9375L1310.96 87.6994L1310.97 87.6912L1310.98 87.6827L1310.31 86.9375ZM1313.44 80.5312L1314.44 80.5729L1314.44 80.5521V80.5312H1313.44ZM1310.78 25.6875L1311.54 25.0398L1311.53 25.0206L1311.51 25.0021L1310.78 25.6875ZM1304.69 22.875H1303.69V23.8325L1304.64 23.8741L1304.69 22.875ZM1304.69 0.84375V-0.15625H1303.69V0.84375H1304.69ZM1330 14.4375L1330.82 13.864L1330.82 13.8634L1330 14.4375ZM1320 107.094L1320.5 107.96L1320.51 107.956L1320.51 107.953L1320 107.094ZM1266.47 80.5312V29.125H1264.47V80.5312H1266.47ZM1266.47 29.125C1266.47 23.9031 1268.68 18.4948 1273.27 12.8832L1271.73 11.6168C1266.94 17.4636 1264.47 23.3052 1264.47 29.125H1266.47ZM1273.27 12.8902C1279.33 5.61042 1286.98 1.94461 1296.26 1.84369L1296.24 -0.156193C1286.36 -0.0487709 1278.17 3.88958 1271.73 11.6098L1273.27 12.8902ZM1295.25 0.84375V22.875H1297.25V0.84375H1295.25ZM1296.23 21.8753C1293.9 21.9321 1291.9 22.6195 1290.29 23.9888C1288.69 25.3487 1287.57 27.3122 1286.85 29.785L1288.77 30.34C1289.41 28.1253 1290.37 26.5471 1291.59 25.5112C1292.79 24.4847 1294.33 23.9221 1296.27 23.8747L1296.23 21.8753ZM1286.85 29.7878C1286.64 30.5153 1286.5 31.1575 1286.5 31.625H1288.5C1288.5 31.4675 1288.57 31.0681 1288.77 30.3372L1286.85 29.7878ZM1286.5 31.625V80.5312H1288.5V31.625H1286.5ZM1286.5 80.5312C1286.5 82.8605 1287.14 84.8876 1288.48 86.5483C1289.8 88.1972 1291.75 89.407 1294.21 90.2299L1294.85 88.3326C1292.63 87.593 1291.06 86.5632 1290.04 85.2955C1289.03 84.0395 1288.5 82.4728 1288.5 80.5312H1286.5ZM1294.26 90.2428C1294.98 90.4506 1295.63 90.5938 1296.09 90.5938V88.5938C1295.94 88.5938 1295.54 88.5285 1294.81 88.3197L1294.26 90.2428ZM1295.09 89.5938V111.781H1297.09V89.5938H1295.09ZM1296.09 110.781C1290.41 110.781 1284.67 108.74 1278.87 104.563L1277.7 106.187C1283.76 110.551 1289.9 112.781 1296.09 112.781V110.781ZM1278.88 104.571C1270.69 98.5039 1266.57 90.5137 1266.47 80.5211L1264.47 80.5414C1264.58 91.1738 1269 99.7461 1277.69 106.179L1278.88 104.571ZM1305.69 111.781V89.5938H1303.69V111.781H1305.69ZM1304.69 90.5938C1306.7 90.5938 1308.8 89.5323 1310.96 87.6994L1309.66 86.1756C1307.65 87.8843 1306.01 88.5938 1304.69 88.5938V90.5938ZM1310.98 87.6827C1313.15 85.7442 1314.32 83.3606 1314.44 80.5729L1312.44 80.4896C1312.35 82.7019 1311.44 84.5892 1309.65 86.1923L1310.98 87.6827ZM1314.44 80.5312V31.625H1312.44V80.5312H1314.44ZM1314.44 31.625C1314.44 29.4246 1313.4 27.2231 1311.54 25.0398L1310.02 26.3352C1311.71 28.3186 1312.44 30.0754 1312.44 31.625H1314.44ZM1311.51 25.0021C1309.67 23.0445 1307.39 21.9916 1304.73 21.8759L1304.64 23.8741C1306.78 23.9667 1308.56 24.7889 1310.05 26.3729L1311.51 25.0021ZM1305.69 22.875V0.84375H1303.69V22.875H1305.69ZM1304.69 1.84375C1314.86 1.84375 1323 6.19962 1329.18 15.0116L1330.82 13.8634C1324.29 4.55038 1315.55 -0.15625 1304.69 -0.15625V1.84375ZM1329.18 15.011C1332.75 20.1144 1334.47 24.8124 1334.47 29.125H1336.47C1336.47 24.2709 1334.54 19.1772 1330.82 13.864L1329.18 15.011ZM1334.47 29.125V80.5312H1336.47V29.125H1334.47ZM1334.47 80.5312C1334.47 91.7252 1329.51 100.261 1319.49 106.235L1320.51 107.953C1331.11 101.635 1336.47 92.4623 1336.47 80.5312H1334.47ZM1319.5 106.228C1314.19 109.291 1309.26 110.781 1304.69 110.781V112.781C1309.7 112.781 1314.98 111.147 1320.5 107.96L1319.5 106.228ZM1383.97 111H1382.97V112H1383.97V111ZM1383.97 34.125V33.125H1382.97V34.125H1383.97ZM1385.22 34.125L1386.07 33.5971L1385.77 33.125H1385.22V34.125ZM1406 67.5625H1407V67.2771L1406.85 67.0346L1406 67.5625ZM1406 111V112H1407V111H1406ZM1383.97 16H1382.97V16.2855L1383.12 16.528L1383.97 16ZM1383.97 1.625V0.625H1382.97V1.625H1383.97ZM1401.94 1.625L1402.79 1.09788L1402.49 0.625H1401.94V1.625ZM1453.5 84.75H1454.5V84.465L1454.35 84.2229L1453.5 84.75ZM1453.5 111V112H1454.5V111H1453.5ZM1443.03 111L1442.18 111.528L1442.48 112H1443.03V111ZM1431.47 33.1875H1430.47V33.4729L1430.62 33.7154L1431.47 33.1875ZM1431.47 1.625V0.625H1430.47V1.625H1431.47ZM1453.5 1.625H1454.5V0.625H1453.5V1.625ZM1453.5 66.625V67.625H1454.5V66.625H1453.5ZM1452.25 66.625L1451.4 67.1529L1451.69 67.625H1452.25V66.625ZM1384.97 111V34.125H1382.97V111H1384.97ZM1383.97 35.125H1385.22V33.125H1383.97V35.125ZM1384.37 34.6529L1405.15 68.0904L1406.85 67.0346L1386.07 33.5971L1384.37 34.6529ZM1405 67.5625V111H1407V67.5625H1405ZM1406 110H1383.97V112H1406V110ZM1384.97 16V1.625H1382.97V16H1384.97ZM1383.97 2.625H1401.94V0.625H1383.97V2.625ZM1401.09 2.15212L1452.65 85.2771L1454.35 84.2229L1402.79 1.09788L1401.09 2.15212ZM1452.5 84.75V111H1454.5V84.75H1452.5ZM1453.5 110H1443.03V112H1453.5V110ZM1443.88 110.472L1384.82 15.472L1383.12 16.528L1442.18 111.528L1443.88 110.472ZM1432.47 33.1875V1.625H1430.47V33.1875H1432.47ZM1431.47 2.625H1453.5V0.625H1431.47V2.625ZM1452.5 1.625V66.625H1454.5V1.625H1452.5ZM1453.5 65.625H1452.25V67.625H1453.5V65.625ZM1453.1 66.0971L1432.32 32.6596L1430.62 33.7154L1451.4 67.1529L1453.1 66.0971Z" fill="black" fill-opacity="0.2" mask="url(#path-1-outside-1_16006_25472)"/>
</svg>
