<svg width="24" height="25" viewBox="0 0 24 25" fill="none" xmlns="http://www.w3.org/2000/svg">
<g id="fi_5290762" clip-path="url(#clip0_17363_20614)">
<g id="Group">
<path id="Vector" d="M24 12.3645L22.8281 15.177L24 17.9895V22.2083C24 23.3714 23.0537 24.3176 21.8906 24.3176H3.04688C1.36683 24.3176 0 22.9508 0 21.2708V3.69263L21.6562 6.03638H21.8906C23.0537 6.03638 24 6.98264 24 8.14575V12.3645Z" fill="black"/>
<path id="Vector_2" d="M21.6562 6.03638H2.34375C1.04934 6.03638 0 4.98703 0 3.69263C0 2.39822 1.04934 1.34888 2.34375 1.34888H20.0156C20.9217 1.34888 21.6562 2.08341 21.6562 2.9895V6.03638ZM18.6094 12.3645C17.0561 12.3645 15.7969 13.6237 15.7969 15.177C15.7969 16.7303 17.0561 17.9895 18.6094 17.9895H24V12.3645H18.6094ZM20.0156 15.8801H18.6094C18.2211 15.8801 17.9062 15.5653 17.9062 15.177C17.9062 14.7887 18.2211 14.4739 18.6094 14.4739H20.0156C20.4039 14.4739 20.7188 14.7887 20.7188 15.177C20.7188 15.5653 20.4039 15.8801 20.0156 15.8801Z" fill="#E6E6E6"/>
</g>
</g>
<defs>
<clipPath id="clip0_17363_20614">
<rect width="24" height="24" fill="white" transform="translate(0 0.833252)"/>
</clipPath>
</defs>
</svg>
