<svg width="202" height="61" viewBox="0 0 202 61" fill="none" xmlns="http://www.w3.org/2000/svg">
<g id="Company logo" clip-path="url(#clip0_16188_3639)">
<path id="Vector" d="M12.9369 19.0621L11.2646 25.2172L20.8365 19.0271L14.5763 42.384L20.9342 42.3893L30.1823 7.89014" fill="#B1B1B1"/>
<path id="Vector_2" d="M2.6332 32.5702L0 42.3895H13.0311L18.3634 22.4144L2.6332 32.5702ZM47.8987 23.9253C47.5802 25.1092 46.9665 25.9787 46.0513 26.5341C45.1381 27.0883 43.8566 27.3665 42.2023 27.3665H36.9465L38.7919 20.4862H44.0477C45.6998 20.4862 46.8348 20.7623 47.4507 21.325C48.0665 21.8877 48.2152 22.7478 47.8987 23.937V23.9253ZM53.3403 23.7883C54.0093 21.3038 53.7332 19.3926 52.51 18.0547C51.289 16.7275 49.1463 16.0586 46.0884 16.0586H34.359L27.2982 42.4012H32.9967L35.8423 31.7835H39.5797C40.4185 31.7835 41.079 31.9215 41.561 32.1869C42.0441 32.463 42.3276 32.9408 42.4147 33.6309L43.4319 42.4012H49.5371L48.5475 34.2255C48.3457 32.3993 47.5101 31.3269 46.0417 31.0084C47.9136 30.4669 49.4818 29.5644 50.7454 28.3115C52.0001 27.0677 52.8965 25.5089 53.3403 23.7989V23.7883ZM67.1922 32.9726C66.7144 34.7564 65.9818 36.1049 64.9912 37.0499C63.9995 37.9948 62.8145 38.462 61.4321 38.462C60.0242 38.462 59.0697 38.0055 58.5653 37.0817C58.0599 36.158 58.0429 34.8201 58.5122 33.0682C58.9815 31.3163 59.7301 29.9466 60.76 28.9591C61.7899 27.9717 62.994 27.478 64.3764 27.478C65.7567 27.478 66.7017 27.9558 67.1795 28.9039C67.6679 29.8563 67.6785 31.2186 67.2007 32.9918L67.1922 32.9726ZM69.6895 23.6503L68.976 26.3153C68.6681 25.3597 68.0703 24.5953 67.1869 24.0219C66.3014 23.4592 65.2057 23.1725 63.8986 23.1725C62.2953 23.1725 60.7558 23.5866 59.2799 24.4148C57.804 25.2429 56.5087 26.4109 55.4044 27.9186C54.3002 29.4263 53.4932 31.1358 52.973 33.0576C52.4633 34.99 52.3571 36.6782 52.665 38.1435C52.9836 39.6194 53.6525 40.7448 54.6824 41.5305C55.723 42.3269 57.0502 42.7197 58.6747 42.7197C59.9656 42.7263 61.2419 42.4471 62.4121 41.9022C63.5691 41.3803 64.5983 40.6121 65.4276 39.6512L64.6843 42.4288H70.1949L75.2267 23.6598H69.7055L69.6895 23.6503ZM95.0288 23.6503H79.0034L77.8832 27.8337H87.2077L74.8805 38.4833L73.8273 42.4118H90.3697L91.4899 38.2284H81.4986L94.0148 27.4196L95.0288 23.6503ZM109.134 32.9408C108.639 34.7883 107.903 36.1771 106.931 37.0817C105.96 37.9948 104.783 38.4514 103.402 38.4514C100.514 38.4514 99.5647 36.6145 100.55 32.9408C101.038 31.1145 101.777 29.7417 102.765 28.8169C103.752 27.8889 104.949 27.4259 106.356 27.4259C107.736 27.4259 108.668 27.8857 109.148 28.8116C109.628 29.7353 109.624 31.1124 109.134 32.9387V32.9408ZM112.36 24.3564C111.091 23.5664 109.472 23.1714 107.497 23.1714C105.498 23.1714 103.647 23.5643 101.944 24.35C100.248 25.1308 98.7575 26.2963 97.5908 27.754C96.391 29.2299 95.5278 30.9606 94.998 32.9355C94.4777 34.903 94.414 36.6305 94.8175 38.1095C95.2209 39.5854 96.0704 40.7215 97.3445 41.5072C98.6292 42.2993 100.264 42.6932 102.271 42.6932C104.246 42.6932 106.083 42.2961 107.771 41.5061C109.459 40.7119 110.903 39.5843 112.103 38.0978C113.303 36.6177 114.163 34.8913 114.694 32.9164C115.225 30.9415 115.288 29.2172 114.885 27.7349C114.482 26.2591 113.643 25.123 112.379 24.3319L112.36 24.3564ZM132.033 28.664L133.445 23.5568C132.967 23.3126 132.341 23.1852 131.555 23.1852C130.291 23.1852 129.081 23.4974 127.913 24.1302C126.909 24.6675 126.055 25.4256 125.333 26.3748L126.065 23.6248L124.465 23.6312H120.537L115.472 42.3927H121.06L123.688 32.5851C124.07 31.1591 124.758 30.0368 125.751 29.2405C126.739 28.441 127.97 28.0407 129.457 28.0407C130.37 28.0407 131.219 28.2499 132.026 28.6672L132.033 28.664ZM147.581 33.031C147.103 34.783 146.381 36.1208 145.394 37.0445C144.407 37.9725 143.217 38.4355 141.837 38.4355C140.457 38.4355 139.512 37.9683 139.013 37.0339C138.503 36.0943 138.492 34.7405 138.97 32.961C139.448 31.1825 140.181 29.8181 141.189 28.8731C142.198 27.9207 143.387 27.4451 144.768 27.4451C146.127 27.4451 147.04 27.9335 147.528 28.9209C148.017 29.9084 148.027 31.2781 147.558 33.03L147.581 33.031ZM151.465 24.3871C150.43 23.559 149.108 23.1449 147.505 23.1449C146.1 23.1449 144.761 23.4634 143.491 24.1068C142.222 24.7492 141.193 25.6252 140.402 26.7337L140.421 26.6063L141.358 23.6227H135.901L134.51 28.8147L134.467 28.9952L128.734 50.3836H134.329L137.217 39.6172C137.504 40.575 138.088 41.3267 138.98 41.8703C139.872 42.4118 140.973 42.6804 142.282 42.6804C143.906 42.6804 145.457 42.2876 146.927 41.5019C148.403 40.714 149.677 39.5801 150.76 38.1148C151.843 36.6496 152.647 34.9507 153.16 33.0289C153.68 31.1039 153.786 29.387 153.489 27.8846C153.186 26.3801 152.516 25.2153 151.482 24.3914L151.465 24.3871ZM170.026 32.9546C169.548 34.7278 168.816 36.0868 167.828 37.0212C166.841 37.9619 165.652 38.4302 164.271 38.4302C162.859 38.4302 161.904 37.9736 161.404 37.0499C160.895 36.1261 160.884 34.7883 161.351 33.0364C161.819 31.2844 162.564 29.9147 163.594 28.9273C164.624 27.9398 165.829 27.4472 167.211 27.4472C168.592 27.4472 169.526 27.925 170.014 28.87C170.503 29.8181 170.506 31.1804 170.03 32.9578L170.026 32.9546ZM172.521 23.6269L171.807 26.292C171.499 25.3311 170.904 24.5666 170.023 23.9985C169.131 23.4316 168.037 23.1491 166.731 23.1491C165.128 23.1491 163.58 23.5632 162.102 24.3914C160.626 25.2196 159.331 26.3812 158.227 27.8846C157.122 29.3881 156.315 31.1018 155.795 33.0236C155.28 34.9529 155.179 36.6443 155.487 38.1159C155.798 39.5811 156.468 40.713 157.505 41.5029C158.539 42.2887 159.872 42.6858 161.497 42.6858C162.803 42.6858 164.05 42.4139 165.234 41.8682C166.389 41.3439 167.415 40.5747 168.242 39.614L167.499 42.3938H173.01L178.04 23.6322H172.53L172.521 23.6269ZM201.175 23.6333L201.179 23.628H197.791C197.683 23.628 197.588 23.6333 197.489 23.6354H195.732L194.829 24.8883L194.606 25.1856L194.511 25.3342L187.37 35.2809L185.894 23.6333H180.046L183.008 41.3331L176.468 50.39H182.297L183.879 48.1465C183.924 48.0806 183.964 48.0254 184.017 47.9553L185.865 45.3328L185.918 45.2584L194.192 33.5258L201.168 23.6513L201.179 23.645H201.175V23.6333Z" fill="#B1B1B1"/>
</g>
<defs>
<clipPath id="clip0_16188_3639">
<rect width="201.25" height="60" fill="white" transform="translate(0 0.5)"/>
</clipPath>
</defs>
</svg>
