<svg xmlns="http://www.w3.org/2000/svg" viewBox="0 0 48 48" width="48px" height="48px">
  <path
    fill="#FFFFFF"
    d="M 8 7 C 5.2500302 7 3 9.2500302 3 12 L 3 36 C 3 38.74997 5.2500302 41 8 41 L 30 41 A 1.0001 1.0001 0 0 0 31 40 L 31 32 A 1.0001 1.0001 0 1 0 29 32 L 29 39 L 8 39 C 6.3299698 39 5 37.67003 5 36 L 5 12 C 5 10.32997 6.3299698 9 8 9 L 29 9 L 29 16 A 1.0001 1.0001 0 1 0 31 16 L 31 8 A 1.0001 1.0001 0 0 0 30 7 L 8 7 z M 34 7 A 1.0001 1.0001 0 1 0 34 9 L 40 9 C 41.67003 9 43 10.32997 43 12 L 43 36 C 43 37.67003 41.67003 39 40 39 L 34 39 A 1.0001 1.0001 0 1 0 34 41 L 40 41 C 42.74997 41 45 38.74997 45 36 L 45 12 C 45 9.2500302 42.74997 7 40 7 L 34 7 z M 24.949219 16.990234 A 1.0001 1.0001 0 0 0 24.322266 18.734375 L 28.941406 23 L 14 23 A 1.0001 1.0001 0 1 0 14 25 L 28.941406 25 L 24.322266 29.265625 A 1.0001 1.0001 0 1 0 25.677734 30.734375 L 31.382812 25.470703 C 32.229831 24.688841 32.229831 23.311159 31.382812 22.529297 L 25.677734 17.265625 A 1.0001 1.0001 0 0 0 24.949219 16.990234 z" />
</svg>