<svg width="24" height="25" viewBox="0 0 24 25" fill="none" xmlns="http://www.w3.org/2000/svg">
<path d="M12 24.5C8.8174 24.5 5.76516 23.2357 3.51472 20.9853C1.26428 18.7348 0 15.6826 0 12.5C0 9.3174 1.26428 6.26516 3.51472 4.01472C5.76516 1.76428 8.8174 0.5 12 0.5C13.5759 0.5 15.1363 0.810389 16.5922 1.41345C18.0481 2.0165 19.371 2.90042 20.4853 4.01472C21.5996 5.12902 22.4835 6.45189 23.0866 7.9078C23.6896 9.36371 24 10.9241 24 12.5C24 14.0759 23.6896 15.6363 23.0866 17.0922C22.4835 18.5481 21.5996 19.871 20.4853 20.9853C19.371 22.0996 18.0481 22.9835 16.5922 23.5866C15.1363 24.1896 13.5759 24.5 12 24.5Z" fill="url(#paint0_linear_16213_4404)"/>
<path d="M10.665 17.2618C10.4752 17.2621 10.2873 17.2248 10.112 17.1523C9.93664 17.0797 9.77739 16.9732 9.64337 16.8388L5.68043 12.8762C5.41275 12.6046 5.2633 12.2382 5.26466 11.8568C5.26602 11.4755 5.41808 11.1102 5.68769 10.8405C5.9573 10.5708 6.32259 10.4186 6.70392 10.4172C7.08526 10.4157 7.4517 10.5651 7.72337 10.8327L10.6647 13.7738L16.277 8.1615C16.5479 7.89052 16.9155 7.73828 17.2987 7.73828C17.6819 7.73828 18.0495 7.89052 18.3204 8.1615C18.5914 8.43248 18.7436 8.80001 18.7436 9.18323C18.7436 9.56645 18.5914 9.93398 18.3204 10.205L11.6866 16.8388C11.5525 16.9732 11.3933 17.0797 11.218 17.1523C11.0427 17.2248 10.8547 17.2621 10.665 17.2618Z" fill="#222222"/>
<defs>
<linearGradient id="paint0_linear_16213_4404" x1="1.91232e-07" y1="21.1667" x2="24.993" y2="18.7439" gradientUnits="userSpaceOnUse">
<stop stop-color="#1ECC97"/>
<stop offset="1" stop-color="#5A60FC"/>
</linearGradient>
</defs>
</svg>
