<svg width="54" height="54" viewBox="0 0 54 54" fill="none" xmlns="http://www.w3.org/2000/svg">
<path fill-rule="evenodd" clip-rule="evenodd" d="M25.6824 13.0107H28.3178C30.0672 13.0107 31.5144 14.3498 31.6656 16.0778L31.6472 16.0683C31.6528 16.0834 31.6582 16.0986 31.6639 16.1139L31.6656 16.0778L39.3554 16.0779C40.0032 14.5443 41.5154 13.4643 43.2864 13.4643C45.6194 13.4643 47.5202 15.3651 47.5202 17.6979C47.5202 20.0522 45.6194 21.9531 43.2864 21.9531C41.5154 21.9531 39.9816 20.8729 39.3338 19.3178H35.9424C39.204 21.996 41.2562 26.0136 41.2562 30.3552V31.6515C42.984 31.8027 44.3446 33.2503 44.3446 35.0215V37.6351C44.3446 39.5143 42.811 41.0263 40.9536 41.0263H38.3398C36.4606 41.0263 34.9486 39.5143 34.9486 37.6351V35.0215C34.9486 33.2503 36.288 31.8027 38.0162 31.6515V30.3552C38.0162 25.9923 35.3808 22.0179 31.4498 20.2899C30.9314 21.5211 29.7216 22.4067 28.3178 22.4067H25.6824C24.2786 22.4067 23.0476 21.5211 22.5289 20.2901C18.6194 22.0397 15.9843 25.9925 15.9843 30.3557V31.6733C17.6908 31.8245 19.0297 33.2503 19.0297 35.0215V37.6351C19.0297 39.5143 17.5178 41.0263 15.6386 41.0263H13.0248C11.1673 41.0263 9.63375 39.5143 9.63375 37.6351V35.0215C9.63375 33.2503 11.0162 31.7813 12.7443 31.6517V30.3557C12.7443 26.0141 14.7962 21.9965 18.0578 19.318H14.6667C14.0186 20.8732 12.4848 21.9531 10.7135 21.9531C8.38078 21.9531 6.47998 20.0522 6.47998 17.6979C6.47998 15.3651 8.38078 13.4643 10.7135 13.4643C12.4848 13.4643 13.997 14.5444 14.6451 16.078L22.313 16.0779C22.464 14.3499 23.933 13.0107 25.6824 13.0107Z" fill="url(#paint0_linear_16188_5273)"/>
<defs>
<linearGradient id="paint0_linear_16188_5273" x1="27.0001" y1="13.0107" x2="27.0001" y2="41.0263" gradientUnits="userSpaceOnUse">
<stop/>
<stop offset="1" stop-opacity="0.6"/>
</linearGradient>
</defs>
</svg>
