<svg width="50" height="51" viewBox="0 0 50 51" fill="none" xmlns="http://www.w3.org/2000/svg">
<path d="M36.9522 30.9625L31.8981 35.6083C29.299 37.8741 26.2452 39.5576 22.9418 40.5458L24.2835 46.8041C24.3521 47.1235 24.4948 47.4222 24.7001 47.6763C24.9054 47.9303 25.1676 48.1325 25.4655 48.2665C25.7634 48.4005 26.0886 48.4627 26.4149 48.4478C26.7412 48.433 27.0594 48.3417 27.3439 48.1812L35.4793 43.5937C36.6246 42.898 37.5192 41.8564 38.0341 40.6192C38.5489 39.382 38.6574 38.0132 38.3439 36.7104L36.9522 30.9625ZM15.1376 18.7833L19.4876 13.6166L14.0626 12.3083C12.7434 11.848 11.3021 11.8807 10.0051 12.4003C8.70803 12.92 7.64288 13.8915 7.0064 15.1354L2.42306 23.2604C2.26259 23.5449 2.17126 23.8631 2.15644 24.1894C2.14163 24.5157 2.20374 24.8409 2.33777 25.1388C2.4718 25.4367 2.67399 25.6988 2.92802 25.9042C3.18205 26.1095 3.4808 26.2522 3.80015 26.3208L10.2022 27.6937C11.2637 24.4359 12.939 21.4113 15.1376 18.7833ZM34.8626 18.8666C35.4807 18.8666 36.0849 18.6834 36.5988 18.34C37.1127 17.9966 37.5132 17.5085 37.7498 16.9375C37.9863 16.3665 38.0482 15.7382 37.9276 15.132C37.807 14.5258 37.5094 13.969 37.0724 13.5319C36.6353 13.0949 36.0785 12.7973 35.4723 12.6767C34.8661 12.5561 34.2378 12.618 33.6668 12.8545C33.0957 13.091 32.6077 13.4916 32.2643 14.0055C31.9209 14.5194 31.7376 15.1236 31.7376 15.7416C31.7376 16.5704 32.0669 17.3653 32.6529 17.9513C33.239 18.5374 34.0338 18.8666 34.8626 18.8666Z" fill="url(#paint0_linear_16868_1354)"/>
<path d="M47.0857 4.79584C46.9918 4.43886 46.8049 4.1132 46.5439 3.85221C46.2829 3.59121 45.9572 3.40424 45.6002 3.31043C41.3269 2.19997 36.8267 2.3193 32.6182 3.65469C28.4097 4.99007 24.6641 7.48718 21.8127 10.8583L15.1377 18.7833C11.8038 22.7595 9.68852 27.6135 9.04607 32.7625C9.00448 33.0791 9.03621 33.4009 9.13879 33.7033C9.24138 34.0056 9.41209 34.2804 9.63774 34.5063L16.0961 40.9646C16.2897 41.1583 16.5197 41.3119 16.7728 41.4167C17.0259 41.5214 17.2972 41.5752 17.5711 41.575C17.6294 41.575 17.6898 41.5729 17.7502 41.5667C22.979 41.1345 27.9339 39.0475 31.8961 35.6083L39.5294 28.5917C42.9122 25.7474 45.418 22.0011 46.7553 17.7886C48.0926 13.5761 48.2085 9.0705 47.0857 4.79584ZM34.8627 18.8667C34.2447 18.8667 33.6405 18.6834 33.1266 18.34C32.6127 17.9966 32.2121 17.5086 31.9756 16.9376C31.7391 16.3665 31.6772 15.7382 31.7978 15.132C31.9184 14.5258 32.216 13.969 32.653 13.532C33.0901 13.0949 33.6469 12.7973 34.2531 12.6767C34.8593 12.5561 35.4876 12.618 36.0586 12.8546C36.6296 13.0911 37.1177 13.4916 37.4611 14.0055C37.8045 14.5194 37.9877 15.1236 37.9877 15.7417C37.9877 16.5705 37.6585 17.3653 37.0724 17.9514C36.4864 18.5374 35.6915 18.8667 34.8627 18.8667Z" fill="white"/>
<defs>
<linearGradient id="paint0_linear_16868_1354" x1="2.1543" y1="11.9854" x2="45.4672" y2="24.6061" gradientUnits="userSpaceOnUse">
<stop stop-color="#E39BFC"/>
<stop offset="1" stop-color="#82D2FF"/>
</linearGradient>
</defs>
</svg>
