<svg width="33" height="41" viewBox="0 0 33 41" fill="none" xmlns="http://www.w3.org/2000/svg">
<g id="Group">
<path id="Vector" d="M28.1981 39.2533L28.1981 39.2533C25.3332 39.7281 21.0817 40.2456 16.166 40.2456C11.2504 40.2456 6.9988 39.7281 4.13404 39.2533L4.13401 39.2533C2.0912 38.9149 0.666016 37.1133 0.666016 35.0002C0.666016 29.6129 5.03334 25.2456 10.4207 25.2456H21.9114C27.2987 25.2456 31.666 29.6129 31.666 35.0002C31.666 37.1133 30.2408 38.9149 28.1981 39.2533Z" fill="#E6E6E6" stroke="#B1B1B1"/>
<path id="Vector_2" d="M6.66602 10.7456C6.66602 5.4989 10.9193 1.24561 16.166 1.24561C21.4127 1.24561 25.666 5.4989 25.666 10.7456C25.666 15.9923 21.4127 20.2456 16.166 20.2456C10.9193 20.2456 6.66602 15.9923 6.66602 10.7456Z" fill="#E6E6E6" stroke="#B1B1B1"/>
</g>
</svg>
